<?xml version="1.0" encoding="utf-8"?>
<!-- Generator: Adobe Illustrator 27.3.1, SVG Export Plug-In . SVG Version: 6.00 Build 0)  -->
<svg version="1.1" id="top_fist" xmlns="http://www.w3.org/2000/svg" xmlns:xlink="http://www.w3.org/1999/xlink" x="0px" y="0px"
	 width="197px" height="211px" viewBox="0 0 197 211" style="enable-background:new 0 0 197 211;" xml:space="preserve">
<path d="M193.6,114.7c-0.9-0.4-1.7-0.1-2.7,0.9c-4.2,4.2-8.4,8.4-12.6,12.7l-6.5,6.5c-0.2,0.2-0.4,0.4-0.7,0.6
	c-0.8,0.6-1.7,0.8-2.6,0.5c-0.9-0.2-1.6-0.9-2-1.7c-0.7-1.6,0.2-2.8,1-3.6c6.7-6.7,13.4-13.4,20.1-20.1l6.4-6.4
	c3.2-3.2,3.2-7,0-10.2l-15.8-15.8c-1.2-1.2-1.4-1.2-2.6,0c-6.6,6.6-13.1,13.1-19.7,19.7l-10.5,10.5c-0.2,0.2-0.4,0.4-0.7,0.6
	c-1.1,0.9-2.8,0.9-3.9-0.1c-1.1-1-1.2-2.7-0.4-3.9c0.3-0.5,0.7-0.8,1.1-1.2c4.9-4.9,9.9-9.9,14.8-14.8c5-5.1,10.1-10.1,15.1-15.2
	c0.6-0.6,0.8-0.9,0.8-1.2s-0.2-0.6-0.8-1.2c-6.6-6.6-13.2-13.2-19.8-19.8c-0.6-0.6-0.9-0.8-1.2-0.8c0,0,0,0,0,0
	c-0.3,0-0.6,0.2-1.2,0.8c-6.7,6.7-13.4,13.4-20,20.1l-0.1,0.1c-0.3,0.3-0.5,0.5-0.8,0.8c-0.8,0.6-1.8,0.8-2.8,0.4
	c-0.9-0.3-1.6-1.1-1.9-2.1c-0.4-1.4,0.4-2.4,1.2-3.2c5.6-5.5,11.1-11.1,16.6-16.6l3.7-3.7c1-1,1-1.3,0-2.3
	c-6.6-6.6-13.2-13.2-19.8-19.9c-0.5-0.5-0.9-0.8-1.1-0.8c0,0,0,0,0,0c-0.3,0-0.6,0.2-1.2,0.8l-20.2,20.2c-0.3,0.3-0.6,0.6-1,0.9
	c-1.1,0.7-2.3,0.7-3.3,0c-1.1-0.8-1.5-1.9-1.1-3.1c0.2-0.6,0.5-1.1,1.2-1.8c5.3-5.4,10.7-10.7,16.1-16.1l4.2-4.2
	c0.5-0.5,0.8-0.9,0.8-1.2c0-0.3-0.2-0.7-0.8-1.2c-5.3-5.3-10.5-10.5-15.8-15.8l-0.4-0.4c-2.8-2.8-6.5-2.8-9.2,0
	c-4.5,4.5-9,8.9-13.5,13.4l-8.9,8.8c-0.6,0.6-1.1,1.1-1.1,1.5c0,0.3,0.4,0.8,1,1.4l45.4,45.4c0.4,0.4,0.9,0.9,1.3,1.5
	c2.2,3.3,1.6,7.2-1.4,10.2c-2.8,2.8-5.6,5.6-8.3,8.3c-2.1,2.1-4.2,4.2-6.3,6.3c-3.7,3.7-8.2,3.7-11.9,0l-0.7-0.7
	c-4.8-4.8-9.6-9.6-14.4-14.4c-1.7-1.7-2.5-1.7-4.2,0l-2.1,2.1c-3.6,3.6-7.2,7.2-10.8,10.8c-0.6,0.5-1.2,1-1.8,1.1
	c-1.3,0.4-2.6-0.2-3.3-1.4c-0.7-1.3-0.4-2.6,0.8-3.8l3.8-3.8c3.2-3.3,6.6-6.6,9.9-9.9c3.4-3.4,8-3.3,11.5,0.1l0.7,0.7
	c5,5,9.9,9.9,14.9,14.9c0.6,0.6,1.2,1,1.8,1c0,0,0,0,0,0c0.6,0,1.1-0.3,1.8-1c2.4-2.4,4.8-4.8,7.2-7.2c2.4-2.4,4.8-4.8,7.2-7.3
	c1.4-1.4,1.4-2.4,0-3.8c-7.6-7.6-15.3-15.3-22.9-23c-7.5-7.5-14.9-14.9-22.4-22.4c-0.6-0.6-0.9-0.9-1.3-0.9c-0.3,0-0.7,0.3-1.3,0.9
	c-3,3-6.1,6-9.1,9.1l-35.3,35c-5,5-10.2,10.2-15.4,15.2c-2.7,2.7-4,5.6-4,9.4c0,30.2,0,56.5,0,85.1l0,22.3c0,2.4,0.5,2.9,2.9,2.9
	h90.1l0,0h98.6c2.2,0,2.7-0.5,2.7-2.7l0-90.7c0-0.2,0-0.4,0-0.6C194.8,115.6,194.4,115.1,193.6,114.7z"/>
</svg>
