<?xml version="1.0" encoding="utf-8"?>
<!-- Generator: Adobe Illustrator 27.3.1, SVG Export Plug-In . SVG Version: 6.00 Build 0)  -->
<svg version="1.1" id="Layer_1" xmlns="http://www.w3.org/2000/svg" xmlns:xlink="http://www.w3.org/1999/xlink" x="0px" y="0px"
	 width="681.3px" height="124.3px" viewBox="0 0 681.3 124.3" style="enable-background:new 0 0 681.3 124.3;" xml:space="preserve"
	>
<path d="M450.4,51.2c-2.5,2.7-6,4.1-9.7,3.9c-7.7,0-13.6-5.4-13.6-13.7c0.1-7.7,6.3-13.7,13.9-13.7c3.3,0,6.6,1.3,9.1,3.5l-1.5,3
	c-2-2.1-4.7-3.3-7.7-3.2c-5.8,0-9.9,4.1-9.9,10.3s4.3,10.4,9.9,10.4c3,0.1,5.9-1.1,7.9-3.2L450.4,51.2z M468,54.8h-3.5v-2.4
	c-1.4,1.8-3.5,2.7-5.8,2.7c-3.4,0-6.3-2.1-6.3-5.7s3-5.3,7.1-5.5l4.8-0.2V43c0-2.7-1.9-4.1-4.5-4.1c-1.9,0-3.8,0.6-5.4,1.5l-1.2-2.5
	c2.1-1.2,4.5-1.8,6.8-1.9c3.1,0,4.8,0.8,6,2.1c1.2,1.2,2,2.8,2,5.9L468,54.8z M464.3,45.9l-4.3,0.2c-3,0.1-4.1,1.4-4.1,3.2
	s1.3,3.2,3.8,3.2c1.9-0.1,3.7-1.1,4.6-2.6V45.9z M488.5,54.8h-3.8V44.6c0-3.1-0.6-5.3-3.8-5.3s-4.7,2.8-4.7,6.4v9.2h-3.7V36.5h3.7
	v2.8h0.1c1.1-2,3.3-3.3,5.5-3.2c5.2,0,6.5,3.4,6.5,7.8L488.5,54.8z M507.6,54.8h-3.5v-2.4c-1.4,1.8-3.5,2.7-5.8,2.7
	c-3.4,0-6.3-2.1-6.3-5.7s3-5.3,7.1-5.5l4.8-0.2V43c0-2.7-1.9-4.1-4.5-4.1c-1.9,0-3.8,0.6-5.5,1.5l-1.1-2.5c2.1-1.2,4.5-1.8,6.8-1.9
	c3.1,0,4.8,0.8,6,2.1c1.2,1.2,2,2.8,2,5.9L507.6,54.8z M504,45.9l-4.3,0.2c-3,0.1-4.1,1.4-4.1,3.2s1.3,3.2,3.8,3.2
	c1.9-0.1,3.7-1.1,4.6-2.6V45.9z M530.1,54.8h-3.5v-3h-0.1c-1.4,2.1-3.9,3.4-6.4,3.3c-5.4,0-8.9-4.1-8.9-9.6s3.4-9.4,8.9-9.4
	c2.5-0.1,5,1.1,6.4,3.2h0.1V28.2h3.7L530.1,54.8z M520.7,39.2c-3.7,0-5.8,2.8-5.8,6.4s2.1,6.5,5.8,6.5c3.7,0,5.8-2.8,5.8-6.5
	S524.3,39.2,520.7,39.2z M549.4,54.8h-3.5v-2.4c-1.4,1.8-3.5,2.7-5.8,2.7c-3.4,0-6.3-2.1-6.3-5.7s3-5.3,7.1-5.5l4.8-0.2V43
	c0-2.7-1.9-4.1-4.5-4.1c-1.9,0-3.8,0.6-5.5,1.5l-1.1-2.5c2.1-1.2,4.5-1.8,6.8-1.9c3.1,0,4.8,0.8,6,2.1c1.2,1.2,2,2.8,2,5.9
	L549.4,54.8z M545.8,45.9l-4.3,0.2c-3,0.1-4.1,1.4-4.1,3.2s1.3,3.2,3.8,3.2c1.9-0.1,3.7-1.1,4.6-2.6V45.9z M583.9,51.2
	c-2.5,2.7-6,4.1-9.7,3.9c-7.7,0-13.6-5.4-13.6-13.7c0.1-7.7,6.3-13.7,13.9-13.7c3.3,0,6.6,1.3,9.1,3.5l-1.5,3
	c-2-2.1-4.8-3.3-7.7-3.2c-5.7,0-9.8,4.1-9.8,10.3s4.1,10.4,9.8,10.4c3,0.1,5.9-1.1,7.9-3.2L583.9,51.2z M595.4,55.1
	c-5.2-0.1-9.3-4.4-9.2-9.7c0.1-5.2,4.4-9.3,9.7-9.2c5.2,0.1,9.2,4.3,9.2,9.4c0.1,5.1-3.9,9.3-9.1,9.4
	C595.8,55.1,595.6,55.1,595.4,55.1z M595.4,39.2c-3.7,0-5.9,2.8-5.9,6.4s2.2,6.5,5.9,6.5c3.7,0,5.9-2.8,5.9-6.5S599,39.2,595.4,39.2
	z M624.4,54.8h-3.5v-2.6c-1.2,2-3.3,3.1-5.7,3.1c-1.9,0.1-3.8-0.6-5.1-2.1c-0.9-1.2-1.3-3.1-1.3-5.7V36.6h3.5v10.6
	c0,2.5,0.6,4.8,3.8,4.8s4.5-2.7,4.5-5.8v-9.8h3.7L624.4,54.8z M645.3,54.8h-3.7V44.6c0-3.1-0.6-5.3-3.8-5.3c-3.2,0-4.7,2.8-4.7,6.4
	v9.2h-3.7V36.5h3.7v2.8h0.1c1.1-2,3.3-3.3,5.5-3.2c5.2,0,6.5,3.4,6.5,7.8V54.8z M665.5,52.4c-0.6,0.6-2.4,2.7-7.3,2.7
	c-5.2,0-9.4-4.4-9.4-9.6s4.4-9.4,9.6-9.4c4.8,0,6.8,2.4,7.1,2.6l-1.3,2.7c-1.4-1.5-3.4-2.2-5.4-2.2c-3.3,0-5.9,2.6-5.9,5.9
	c0,0.1,0,0.2,0,0.4c0,3.8,2.4,6.5,5.9,6.5c2.1,0,4.1-0.8,5.5-2.4L665.5,52.4z M670.4,32.8c-1.3,0-2.2-1.1-2.1-2.4
	c0-1.3,1.1-2.2,2.4-2.1c1.2,0,2.1,1.1,2.1,2.2C672.8,31.8,671.7,32.8,670.4,32.8L670.4,32.8z M672.2,54.8h-3.7V36.5h3.7V54.8z
	 M681.3,54.8h-3.7V28.2h3.7V54.8z M437.5,74.1c-0.7-0.2-1.4-0.4-2.1-0.4c-2.4,0-2.8,1.8-2.8,3.9v2h4.4v3h-4.4v15.2h-3.7V82.6h-2.6
	v-3h2.6v-1.8c-0.1-1.8,0.2-3.4,1.2-4.8c1.1-1.3,2.7-2,4.4-2c1.1,0,2.1,0.1,3.2,0.5L437.5,74.1z M447.2,98.3
	c-5.2-0.1-9.4-4.4-9.3-9.7c0.1-5.2,4.4-9.4,9.7-9.3c5.2,0.1,9.4,4.4,9.3,9.6c0.1,5.1-3.9,9.3-9.1,9.4
	C447.5,98.3,447.4,98.3,447.2,98.3z M447.2,82.3c-3.7,0-5.9,2.8-5.9,6.4c0,3.5,2.2,6.5,5.9,6.5c3.7,0,5.9-2.8,5.9-6.5
	S450.8,82.3,447.2,82.3L447.2,82.3z M470.6,83.1h-0.1c-0.6-0.2-1.3-0.4-2-0.4c-1.2,0-2.2,0.6-3,1.5c-0.8,1.4-1.2,3-1.2,4.6V98h-3.7
	V79.7h3.7v2.8h0.1c0.7-1.9,2.5-3.2,4.5-3.2c0.7,0,1.3,0.1,1.9,0.4L470.6,83.1z M490,97.8c-1.1,0.5-2.2,0.6-3.3,0.6
	c-1.5,0.1-3.1-0.6-3.9-1.9c-0.8-1.2-0.9-2.6-0.9-5.4v-8.4h-2.7v-3h2.7v-5.4h3.7v5.4h4.4v3h-4.4v8.3c-0.1,1.2,0,2.2,0.5,3.3
	c0.4,0.7,1.2,1.1,1.9,0.9c0.6,0,1.3-0.1,1.9-0.5L490,97.8z M509.2,97.9h-3.7V87.5c0-2.6-0.4-5.2-3.8-5.2c-3.4,0-4.7,2.8-4.7,6.5v9
	h-3.7V71.4h3.7v11.1h0.1c1.1-2,3.3-3.3,5.7-3.2c5.3,0,6.5,3.4,6.5,7.7L509.2,97.9z M530.7,89.6h-14c0.2,3.5,2.5,5.8,5.9,5.8
	c2.1,0,4.3-0.8,6-2.1l1.5,2.1c-0.2,0.2-2.6,2.8-8,2.8s-9.1-3.8-9.1-9.6c-0.2-5,3.7-9.2,8.6-9.4c0.2,0,0.5,0,0.6,0
	c4.6-0.2,8.4,3.3,8.6,7.9c0,0.2,0,0.6,0,0.8C530.8,88.5,530.8,89.1,530.7,89.6z M527.4,87.2c0-2.8-2.4-5.2-5.3-5.2s-5.3,2.4-5.3,5.2
	H527.4z M564.4,97.9h-4.1l-2.7-7h-11.3l-2.7,7h-3.9l10.7-26.6h3.3L564.4,97.9z M556.5,87.8l-4.6-11.9l-4.6,11.9H556.5z M576.9,83.1
	h-0.1c-0.6-0.2-1.3-0.4-2-0.4c-1.2,0-2.2,0.6-3,1.5c-0.8,1.4-1.2,3-1.1,4.6V98h-3.7V79.7h3.7v2.8h0.1c0.7-1.9,2.5-3.2,4.5-3.2
	c0.7,0,1.3,0.1,1.9,0.4L576.9,83.1z M588.7,97.8c-1.1,0.5-2.2,0.6-3.3,0.6c-1.5,0.1-3-0.6-3.9-1.9c-0.8-1.2-0.9-2.6-0.9-5.4v-8.4
	h-2.7v-3h2.7v-5.4h3.7v5.4h4.5v3h-4.4v8.3c-0.1,1.2,0,2.2,0.5,3.3c0.4,0.7,1.2,1.1,1.9,0.9c0.7,0,1.3-0.1,1.9-0.5L588.7,97.8z
	 M602.2,96.7c-1.4,1.1-3.2,1.7-5.1,1.7c-2.7,0.1-5.3-1.2-7.1-3.3l1.8-2.1c1.3,1.5,3.3,2.5,5.4,2.6c1.7,0,3.5-0.6,3.5-2.6
	c0-2-2.8-2.6-4.1-3.1c-0.8-0.2-1.7-0.6-2.5-0.9c-1.8-0.7-3-2.5-2.8-4.4c0-3.4,3-5.2,6.1-5.2c2.4-0.1,4.6,0.7,6.3,2.4l-1.5,2.2
	c-1.2-1.2-2.8-1.9-4.6-2c-1.8,0-3,0.7-3,2.2c0,1.5,1.8,2.1,3.5,2.7c0.9,0.4,1.7,0.6,2.5,0.9s1.5,0.7,2.1,1.3
	c0.9,0.8,1.5,2.1,1.4,3.4C604.2,94.1,603.5,95.7,602.2,96.7z M164.6,51.2c-2.5,2.7-6,4.1-9.7,3.9c-7.7,0-13.6-5.4-13.6-13.7
	c0.1-7.7,6.3-13.7,13.9-13.7c3.3,0,6.6,1.3,9.1,3.5l-1.5,3c-2-2.1-4.7-3.3-7.7-3.2c-5.7,0-9.9,4.1-9.9,10.3s4.1,10.4,9.9,10.4
	c3,0.1,5.9-1.1,7.9-3.2L164.6,51.2z M176,55.1c-5.2-0.1-9.3-4.4-9.2-9.7c0.1-5.2,4.4-9.3,9.7-9.2c5.2,0.1,9.2,4.3,9.2,9.4
	c0.1,5.1-3.9,9.3-9.1,9.4C176.5,55.1,176.2,55.1,176,55.1z M176,39.2c-3.7,0-5.9,2.8-5.9,6.4s2.2,6.5,5.9,6.5s5.9-2.8,5.9-6.5
	S179.7,39.2,176,39.2z M205.4,54.8h-3.7V44.6c0-3.1-0.6-5.3-3.8-5.3s-4.7,2.8-4.7,6.4v9.2h-3.7V36.5h3.8v2.8h0.1
	c1.1-2,3.3-3.3,5.5-3.2c5.2,0,6.5,3.4,6.5,7.8L205.4,54.8z M220.8,53.6c-1.4,1.1-3.2,1.7-5.1,1.7c-2.7,0.1-5.3-1.2-7.1-3.3l1.8-2.1
	c1.3,1.5,3.3,2.5,5.3,2.6c1.7,0,3.5-0.6,3.5-2.6s-2.8-2.6-4.1-3.1c-0.8-0.2-1.7-0.6-2.5-0.9c-1.8-0.7-2.8-2.5-2.8-4.4
	c0-3.4,3-5.2,6.1-5.2c2.4-0.1,4.6,0.7,6.3,2.4l-1.5,2.2c-1.3-1.2-3-1.9-4.7-1.9s-3,0.7-3,2.2c0,1.5,1.8,2.1,3.5,2.7
	c0.9,0.4,1.7,0.6,2.5,0.9c0.8,0.4,1.5,0.7,2.1,1.3c0.9,0.8,1.5,2.1,1.4,3.4C222.6,51,221.9,52.5,220.8,53.6z M242.7,46.5h-14
	c0.2,3.7,2.5,5.8,5.9,5.8c2.2,0,4.3-0.8,6-2.1l1.5,2.1c-0.2,0.2-2.6,2.8-8,2.8c-5.4,0-9.1-3.8-9.1-9.6c-0.2-5,3.7-9.2,8.6-9.4
	c0.2,0,0.5,0,0.6,0c4.6-0.1,8.5,3.4,8.6,8c0,0.2,0,0.5,0,0.7C242.8,45.5,242.8,45.9,242.7,46.5z M239.4,44c0-2.8-2.4-5.2-5.3-5.2
	s-5.3,2.4-5.3,5.2H239.4z M248.5,32.8c-1.3,0-2.2-1.1-2.1-2.4c0-1.3,1.1-2.2,2.4-2.1c1.2,0,2.1,1.1,2.1,2.2
	C250.9,31.8,249.8,32.8,248.5,32.8L248.5,32.8z M250.4,54.8h-3.7V36.5h3.7V54.8z M259.4,54.8h-3.5V28.2h3.5V54.8z M289.9,54.8h-3.5
	v-3h-0.1c-1.4,2.1-3.9,3.4-6.4,3.3c-5.4,0-8.9-4.1-8.9-9.6s3.4-9.4,8.9-9.4c2.5-0.1,5,1.1,6.4,3.2h0.1V28.2h3.7L289.9,54.8z
	 M280.6,39.2c-3.7,0-5.8,2.8-5.8,6.4s2.1,6.5,5.8,6.5c3.7,0,5.8-2.8,5.8-6.5S284.3,39.2,280.6,39.2z M311.8,46.5h-14
	c0.2,3.7,2.5,5.8,5.9,5.8c2.1,0,4.3-0.8,6-2.1l1.5,2.1c-0.2,0.2-2.6,2.8-8,2.8s-9.1-3.8-9.1-9.6c-0.2-5,3.7-9.2,8.6-9.4
	c0.2,0,0.5,0,0.6,0c4.6-0.2,8.4,3.3,8.6,7.9c0,0.2,0,0.6,0,0.8C311.9,45.6,311.8,46.5,311.8,46.5z M308.4,44c0-2.8-2.4-5.2-5.3-5.2
	s-5.3,2.4-5.3,5.2H308.4z M325.9,53.6c-1.4,1.1-3.2,1.7-5.1,1.7c-2.7,0.1-5.3-1.2-7.1-3.3l1.8-2.1c1.3,1.5,3.3,2.5,5.3,2.6
	c1.7,0,3.5-0.6,3.5-2.6s-2.8-2.6-4.1-3.1c-0.8-0.2-1.7-0.6-2.5-0.9c-1.8-0.7-2.8-2.5-2.8-4.4c0-3.4,3-5.2,6.1-5.2
	c2.4-0.1,4.6,0.7,6.3,2.4l-1.5,2.2c-1.2-1.2-2.8-1.9-4.6-2c-1.8,0-3,0.7-3,2.2c0,1.5,1.8,2.1,3.5,2.7c0.9,0.4,1.7,0.6,2.5,0.9
	c0.8,0.4,1.5,0.7,2.1,1.3c0.9,0.8,1.4,2.1,1.4,3.4C327.8,51,327.1,52.5,325.9,53.6z M353.2,54.8h-3.5v-2.4c-1.4,1.8-3.5,2.7-5.8,2.7
	c-3.4,0-6.3-2.1-6.3-5.7s3-5.3,7.1-5.5l4.8-0.2V43c0-2.7-1.9-4.1-4.5-4.1c-1.9,0-3.8,0.6-5.4,1.5l-1.2-2.5c2.1-1.2,4.5-1.8,6.8-1.9
	c3.1,0,4.8,0.8,6,2.1c1.2,1.2,2,2.8,2,5.9L353.2,54.8z M349.6,45.9l-4.3,0.2c-3,0.1-4.1,1.4-4.1,3.2s1.3,3.2,3.8,3.2
	c1.9-0.1,3.7-1.1,4.6-2.6V45.9z M367.9,39.9h-0.1c-0.6-0.2-1.3-0.4-2-0.4c-1.2,0-2.2,0.6-3,1.5c-0.8,1.4-1.2,3-1.2,4.6v9.1h-3.7
	V36.5h3.7v2.8h0.1c0.7-1.9,2.5-3.2,4.5-3.2c0.7,0,1.3,0.1,1.9,0.4L367.9,39.9z M379.7,54.5c-1.1,0.4-2.2,0.6-3.3,0.6
	c-1.5,0.1-3.1-0.6-3.9-1.9c-0.7-1.2-0.9-2.6-0.9-5.4v-8.3h-2.7v-3.1h2.7V31h3.7v5.4h4.4v3h-4.4v8.3c-0.1,1.2,0,2.2,0.5,3.3
	c0.4,0.7,1.2,1.1,1.9,0.9c0.6,0,1.3-0.1,1.9-0.5L379.7,54.5z M393.1,53.6c-1.4,1.1-3.2,1.7-5.1,1.7c-2.7,0.1-5.3-1.1-7.1-3.3
	l1.8-2.1c1.3,1.5,3.3,2.5,5.4,2.6c1.7,0,3.5-0.6,3.5-2.6s-2.8-2.6-4.1-3.1c-0.8-0.2-1.7-0.6-2.5-0.9c-1.8-0.7-2.8-2.5-2.8-4.4
	c0-3.4,3-5.2,6.1-5.2c2.4-0.1,4.6,0.7,6.3,2.4l-1.5,2.2c-1.2-1.2-2.8-1.9-4.6-2c-1.8,0-3,0.7-3,2.2c0,1.5,1.8,2.1,3.5,2.7
	c1.1,0.4,1.7,0.6,2.5,0.9c0.8,0.4,1.5,0.7,2.1,1.3c0.9,0.8,1.5,2.1,1.4,3.4C395.1,51,394.4,52.5,393.1,53.6z M160.2,97.9h-3.5v-3
	h-0.1c-1.4,2.1-3.9,3.4-6.4,3.3c-5.4,0-8.9-4.1-8.9-9.6c0-5.4,3.4-9.4,8.7-9.4c2.5-0.1,5,1.1,6.4,3.2h0.1V71.3h3.7V97.9z
	 M150.9,82.3c-3.7,0-5.8,2.7-5.8,6.4s2.1,6.5,5.8,6.5c3.7,0,5.8-2.8,5.8-6.5S154.4,82.3,150.9,82.3L150.9,82.3z M180.8,97.9h-3.5
	v-2.6c-1.2,2-3.3,3.1-5.7,3.1c-1.9,0.1-3.8-0.6-5.1-2.1c-1.1-1.7-1.5-3.7-1.3-5.7v-11h3.7v10.7c0,2.5,0.5,4.8,3.8,4.8
	c3.3,0,4.5-2.7,4.5-5.8v-9.8h3.7V97.9z M215.7,94.4c-2.5,2.7-6,4.1-9.7,3.9c-7.7,0-13.6-5.4-13.6-13.7c0.1-7.6,6.3-13.7,13.9-13.7
	c3.3,0,6.6,1.3,9.1,3.5l-1.5,3c-2-2.1-4.7-3.3-7.6-3.3c-5.8,0-9.9,4.1-9.9,10.3c0,6.1,4.1,10.4,9.9,10.4c3,0.1,5.9-1.1,7.9-3.2
	L215.7,94.4z M233.3,97.9h-3.5v-2.4c-1.4,1.8-3.5,2.7-5.8,2.7c-3.4,0-6.3-2.1-6.3-5.7c0-3.5,3-5.3,7.1-5.5l4.8-0.2v-0.6
	c0-2.7-1.9-4.1-4.5-4.1c-1.9,0-3.8,0.6-5.4,1.5l-1.1-2.5c2.1-1.2,4.5-1.8,6.8-1.9c3.1,0,4.8,0.8,6,2.1s2,2.8,2,5.9L233.3,97.9z
	 M229.6,89.1l-4.3,0.2c-3,0.1-4.1,1.4-4.1,3.2c0,1.8,1.3,3.2,3.8,3.2c1.9,0,3.7-1.1,4.6-2.6L229.6,89.1L229.6,89.1z M253.8,97.9
	h-3.7V87.7c0-3.1-0.6-5.3-3.8-5.3s-4.7,2.8-4.7,6.4V98H238V79.7h3.7v2.8h0.1c1.1-2,3.3-3.3,5.5-3.2c5.2,0,6.5,3.4,6.5,7.8V97.9z
	 M272.9,97.9h-3.5v-2.4c-1.4,1.8-3.5,2.7-5.8,2.7c-3.4,0-6.3-2.1-6.3-5.7c0-3.5,3-5.3,7.1-5.5l4.8-0.2v-0.6c0-2.7-1.9-4.1-4.5-4.1
	c-1.9,0-3.8,0.6-5.4,1.5l-1.2-2.5c2.1-1.2,4.5-1.8,6.8-1.9c2.2-0.2,4.4,0.6,6,2.1c1.2,1.3,1.9,2.8,1.9,5.9V97.9z M269.3,89.1
	l-4.3,0.2c-3,0.1-4.1,1.4-4.1,3.2c0,1.8,1.3,3.2,3.8,3.2c1.9,0,3.7-1.1,4.6-2.6L269.3,89.1z M295.4,97.9h-3.5v-3h-0.1
	c-1.4,2.1-3.9,3.4-6.4,3.3c-5.4,0-8.9-4.1-8.9-9.6c0-5.4,3.4-9.4,8.9-9.4c2.5-0.1,5,1.1,6.4,3.2h0.1V71.3h3.7L295.4,97.9z M286,82.3
	c-3.7,0-5.8,2.7-5.8,6.4s2.1,6.5,5.8,6.5c3.7,0,5.8-2.8,5.8-6.5S289.6,82.3,286,82.3L286,82.3z M314.7,97.9h-3.5v-2.4
	c-1.4,1.8-3.5,2.7-5.8,2.7c-3.4,0-6.3-2.1-6.3-5.7c0-3.5,3-5.3,7.1-5.5l4.8-0.2v-0.6c0-2.7-1.9-4.1-4.5-4.1c-1.9,0-3.8,0.6-5.4,1.5
	l-1.1-2.5c2.1-1.2,4.5-1.8,6.8-1.9c2.2-0.2,4.4,0.6,6,2.1c1.2,1.3,2,2.8,2,5.9L314.7,97.9z M311.1,89.1l-4.3,0.2
	c-3,0.1-4.1,1.4-4.1,3.2c0,1.8,1.3,3.2,3.8,3.2c1.9,0,3.7-1.1,4.6-2.6V89.1z M111.1,98.9c-5.9-5.8-23-10.7-40.6-11.8
	c-1.1,0.8-2,1.8-2.6,3c14.8,0.7,29,4.8,34.2,9.6c4.7,3.8,4,9-1.4,12.5c-8,5.7-24.7,8.3-42.7,8.1s-34.7-2.5-42.7-8.1
	c-5.5-3.5-6.3-8.7-1.4-12.5c5.2-4.7,19.5-9,34.2-9.6c-0.6-1.2-1.5-2.2-2.6-3c-17.6,1.1-34.6,6-40.6,11.8c-8,7.2-1.7,15.6,15.9,20.8
	c9.8,3,23.6,4.6,37.2,4.6s27.4-1.7,37.2-4.6C112.7,114.5,119.1,106.1,111.1,98.9z M101.8,39.2c-0.4-4.8-4.3-8.6-9-10.4
	c1.9-2.6,2.2-6,0.8-9c-2.2-5.2-8.3-7-11.9-6.6c-5.1,0.4-8.1,2.5-13.6,6.6c-1.3-0.9-3.8-2.8-4.8-3.8l0,0c2.4-1.9,4.8-3.7,7.6-5.1
	c1.9-1.1,4-1.9,6.1-2.2C72.2,3.3,65.3,0,58,0l0,0c-7.3,0-14.3,3.3-19,9c2.1,0.4,4.3,1.1,6.1,2.2c2.7,1.4,5.2,3.2,7.6,5.1
	c-1.1,0.8-3.7,2.7-5,3.8c-5.4-4.1-8.5-6.3-13.6-6.6c-3.7-0.2-9.7,1.4-11.9,6.6c-1.4,3-1.1,6.4,0.8,9c-4.7,1.8-8.6,5.4-9,10.4
	c-0.4,5,2.5,9.3,7.6,11.5c-1.3,1.7-2,3.5-2.1,5.7c0,4.7,4.3,11.1,13.2,10.9c6.7-0.1,9.3-2.2,14.6-6.4c0.4,0.5,4.4,7,4.4,18.2
	c0,0,0.6,8.6-3.7,29.6l0,0c0,1.2,4.4,2,9.8,2s9.8-0.9,9.8-2l0,0c-4.1-21.1-3.5-29.8-3.5-29.8c0-11.2,4.1-17.7,4.4-18.2
	c5.2,4.1,7.9,6.1,14.6,6.4c9,0.2,13.2-6.1,13.2-10.9c-0.1-2.1-0.8-4.1-2.1-5.7C99.2,48.5,102,44,101.8,39.2z M81.6,20.1
	c4.7-0.2,6.5,2.6,6.1,4.5c-0.5,2.4-3.4,4.1-6.1,3.8c-2.7-0.4-4.7-1.7-7.9-4.3C75.8,22.3,78.5,20.2,81.6,20.1z M68.2,28.1
	c1.5,1.2,3,2.2,4.1,3.1c0.6,0.5,1.2,0.9,1.8,1.3c-0.8,0.6-1.4,1.1-2.2,1.8l-2.7,2c-1.7-1.2-3.5-2.6-5.8-4.4
	C64.9,30.7,66.5,29.4,68.2,28.1z M62.8,24c-1.5,1.2-3,2.2-4.8,3.7l0,0l0,0c-1.9-1.4-3.3-2.6-4.8-3.7l4.7-3.7l0.1-0.1l0.1,0.1
	C60.2,22,61.6,23,62.8,24z M51.2,7.7c0,0,1.7-1.8,6.6-1.9c5-0.1,6.6,1.9,6.6,1.9s-1.3,0.7-3.1,2c-2.2,1.7-3.4,2.5-3.5,2.6
	s-1.2-1.1-3.5-2.6C52.5,8.4,51.2,7.7,51.2,7.7z M57.7,36.1l0.2-0.2l0.2,0.2c1.8,1.4,3.7,2.7,5.7,4.3c-1.2,0.8-2.1,1.5-3,2.2
	c-0.8,0.7-1.8,1.3-2.7,2l-0.1,0.1L58,44.6c-0.9-0.7-1.9-1.4-2.7-2c-0.8-0.6-1.8-1.4-3-2.2C54.1,38.8,55.9,37.5,57.7,36.1z
	 M47.6,28.1c1.8,1.3,3.4,2.6,5,3.8c-2.2,1.8-4.3,3.2-5.8,4.4l-2.7-2c-0.9-0.7-1.5-1.2-2.4-1.8c0.6-0.4,1.2-0.8,1.8-1.3
	C44.6,30.3,46,29.3,47.6,28.1z M34.3,20.1c3.1,0.1,5.8,2.4,7.9,4c-3.3,2.6-5.2,4-7.9,4.3c-2.7,0.2-5.7-1.4-6.1-3.8
	C27.8,22.7,29.6,19.8,34.3,20.1z M20.6,40.6c-0.1-2.5,1.7-6,8.3-6.4c4.5-0.2,7.6,2.4,12.5,6c-3.9,3-7,5.5-12.6,5.9
	C24.3,46.5,20.9,43.1,20.6,40.6L20.6,40.6z M33.3,60.9c-4.7,0.2-7.6-2.1-7.3-4.7c0.1-2,4.6-6.7,13.9-2.6c1.2,0.6,2.4,1.3,3.4,2.2
	C38.7,59.4,36.9,60.8,33.3,60.9z M48.4,51.9c-1.8-1.8-3.9-3.2-6.1-4.3c1.4-0.9,3-2.1,4.5-3.3l0.1-0.1c2.1,1.5,4.1,3.1,5.8,4.4
	C51.2,49.9,49.8,50.9,48.4,51.9L48.4,51.9z M58.1,69.7L58,70.2l-0.1-0.6c-0.8-4.3-2.5-8.5-4.6-12.3c1.7-1.3,3.2-2.5,4.8-3.7
	c1.7,1.2,3.1,2.4,4.8,3.7C60.5,61.3,58.9,65.4,58.1,69.7L58.1,69.7z M67.5,51.9c-1.4-1.1-2.8-2.1-4.4-3.3c1.8-1.3,3.8-2.8,5.8-4.4
	c0.1,0,0.1,0,0.1,0.1c1.5,1.3,3,2.4,4.5,3.3C71.4,48.8,69.3,50.3,67.5,51.9z M82.5,60.9c-3.7-0.1-5.3-1.7-10-5.1
	c1.1-0.9,2.2-1.7,3.4-2.2c9.3-4.1,13.8,0.6,13.9,2.6C90.1,58.8,87.3,61.2,82.5,60.9L82.5,60.9z M87,46.2c-5.5-0.4-8.6-3-12.6-5.9
	c4.8-3.7,8-6.4,12.5-6c6.6,0.4,8.4,3.9,8.3,6.4S91.6,46.5,87,46.2z"/>
</svg>
