<?xml version="1.0" encoding="utf-8"?>
<!-- Generator: Adobe Illustrator 27.3.1, SVG Export Plug-In . SVG Version: 6.00 Build 0)  -->
<svg version="1.1" id="Layer_1" xmlns="http://www.w3.org/2000/svg" xmlns:xlink="http://www.w3.org/1999/xlink" x="0px" y="0px"
	 width="655.9px" height="144.2px" viewBox="0 0 655.9 144.2" style="enable-background:new 0 0 655.9 144.2;" xml:space="preserve"
	>
<g>
	<path d="M135.4,16.2v24.2c-7.1-14.5-18.8-26.2-33.3-33.3h24.2V0H0.2v126.1h7.1v-24.2c7.1,14.5,18.8,26.2,33.3,33.3H16.4v7.1h126.1
		V16.2H135.4z M7.3,7.1h33.3C26.1,14.2,14.4,25.9,7.3,40.4V7.1z M7.3,71.1c0-35.4,28.7-64,64-64s64,28.7,64,64c0,35.4-28.7,64-64,64
		C36,135.2,7.3,106.5,7.3,71.1z M102.2,135.2c14.5-7.1,26.2-18.8,33.3-33.3v33.3H102.2z"/>
	<path d="M205.6,86.4c-6.2,6.1-16.2,6.1-22.4,0c-4.5-4.5-5.3-10.8-5.3-17.6s0.8-13.2,5.3-17.6c6.2-6.1,16.2-6.1,22.4,0
		c4.5,4.5,5.3,10.8,5.3,17.6S210.1,81.9,205.6,86.4z M201.9,55c-4.1-4.1-10.7-4.2-14.9-0.1l-0.1,0.1c-3.4,3.7-3.6,9.5-3.6,13.9
		s0.1,10.3,3.6,13.9C191,87,197.7,87,201.8,83l0.1-0.1c3.4-3.7,3.6-9.5,3.6-13.9S205.4,58.5,201.9,55z"/>
	<path d="M235.3,90.2V70.9c0-4.6-1.8-7.4-6.4-7.4c-2.9,0-5.1,2-6.4,4.7c-1.1,2.2-1.1,5.4-1.1,7.8v14.2h-5V59.7h4.3l0.4,4.6
		c1.7-3.3,5.2-5.4,8.9-5.4c6.7,0,10.3,4.2,10.3,11.2v20.1H235.3z"/>
	<path d="M257,90.6c-6.4,0-8.2-4.2-8.2-8.3V64h-5.7v-4.3h5.8v-7.8l5-1.2v8.9h8.8V64H254v17.6c0,2.9,1.2,4.2,3.9,4.2
		c1.7-0.1,3.4-0.2,5.1-0.5v4.3C261.1,90.3,259.1,90.6,257,90.6z"/>
	<path d="M289.8,90.6c-2.4,0-4.2-1.9-4.2-4.3c0-0.1,0-0.2,0-0.3h-0.1c-2.1,3.3-5.7,5.2-9.6,5c-6.8,0-10.1-4.7-10.1-9.5
		c0-3.9,2.5-9.1,10.5-9.6l9.1-0.5v-2.2c0.2-1.7-0.4-3.4-1.6-4.6c-1.4-1.1-3.1-1.7-4.9-1.6c-2-0.1-3.9,0.5-5.4,1.8
		c-1,1-1.5,2.3-1.4,3.7h-4.9c0-2.4,0.9-4.7,2.6-6.4c2-2.2,5.5-3.3,9.1-3.3c5.8,0,9.1,2.5,10.4,5.9c0.6,1.5,0.9,3.1,0.9,4.7v14.7
		c0,1.6,0.7,2.1,1.6,2.1c0.4,0,0.9-0.1,1.3-0.1V90C292.1,90.4,290.9,90.7,289.8,90.6z M285.3,75.5l-8,0.5c-3,0.1-6.4,1.6-6.4,5.5
		c0,2.8,1.6,5.3,5.9,5.3c2.3,0.1,4.5-0.9,6-2.5c1.7-1.9,2.6-4.4,2.5-7V75.5z"/>
	<path d="M310.7,64.4c-2.1,0-4.1,0.9-5.7,2.4c-2.4,2.4-2.6,6.6-2.6,9.7V90h-4.9V59.6h4.3l0.4,5.4c1.5-3.5,5-5.7,8.8-5.5
		c0.8,0,1.6,0,2.4,0.1v5C312.6,64.5,311.6,64.4,310.7,64.4z"/>
	<path d="M316.9,52.6v-6h5.8v6H316.9z M317.3,90.2V59.7h5.1v30.5H317.3z"/>
	<path d="M349.9,87.5c-2.4,2.4-5.6,3.6-8.9,3.5c-3.3,0-6.5-1.2-8.9-3.6c-3.2-3.3-4.2-7.6-4.2-12.5s1.1-9.2,4.2-12.5
		c2.4-2.4,5.6-3.7,8.9-3.6c3.3,0,6.5,1.2,8.9,3.6c3.2,3.3,4.2,7.6,4.2,12.5S353,84.2,349.9,87.5z M346.2,65.5
		c-1.4-1.5-3.3-2.3-5.3-2.2c-2-0.1-3.9,0.8-5.3,2.2c-2.1,2.2-2.8,5.9-2.8,9.5s0.7,7.2,2.8,9.5c1.4,1.5,3.3,2.3,5.3,2.2
		c2,0.1,3.9-0.8,5.3-2.2c2.1-2.2,2.8-5.9,2.8-9.5S348.3,67.7,346.2,65.5z"/>
	<path d="M398.3,90.2l-3.4-10.1h-18l-3.3,10.1h-5.3l14.6-42.7h6l14.7,42.7H398.3z M385.8,52.7L378.4,75h14.7L385.8,52.7z"/>
	<path d="M427.2,87.6c-2.2,2.4-5.8,3.4-9.6,3.4c-3.5,0.2-7-1-9.6-3.4c-1.9-1.8-2.9-4.4-2.9-7h5c0,1.9,0.9,3.6,2.4,4.7
		c1.6,1,3.4,1.5,5.3,1.4c2,0.1,3.9-0.5,5.4-1.7c0.9-0.8,1.4-2,1.4-3.3c0-2.2-1.6-3.9-4.6-4.3c-1.3-0.1-4.6-0.7-6.7-0.9
		c-4.5-0.8-7.2-3.6-7.2-8.2c0-2.2,0.9-4.4,2.5-5.9c2.3-2.3,5.4-3.5,8.7-3.4c3.9,0,7.5,1.3,9.5,3.8c1.4,1.6,2.2,3.8,2.1,5.9h-5
		c0-1.5-0.6-2.8-1.7-3.8c-2.4-1.7-5.5-2.1-8.3-0.9c-1.7,0.6-2.9,2.2-3,4.1c0,2.5,1.6,3.7,3.9,3.9c1.6,0.3,3.9,0.5,7.1,1.1
		c4.2,0.8,7.5,3.8,7.5,8.4C429.6,83.8,428.8,86,427.2,87.6z"/>
	<path d="M455.4,87.6c-2.2,2.4-5.8,3.4-9.6,3.4c-3.5,0.2-7-1-9.6-3.4c-1.9-1.8-2.9-4.4-2.9-7h5c0,1.9,0.9,3.6,2.4,4.7
		c1.6,1,3.4,1.5,5.3,1.4c2,0.1,3.9-0.5,5.4-1.7c0.9-0.9,1.4-2,1.4-3.3c0-2.2-1.6-3.9-4.6-4.3c-1.3-0.1-4.6-0.7-6.7-0.9
		c-4.5-0.8-7.2-3.6-7.2-8.2c0-2.2,0.9-4.4,2.5-5.9c2.3-2.3,5.4-3.5,8.7-3.4c3.9,0,7.5,1.3,9.5,3.8c1.4,1.6,2.2,3.8,2.1,5.9h-5
		c0-1.5-0.6-2.8-1.7-3.8c-2.4-1.7-5.5-2.1-8.3-0.9c-1.7,0.6-2.9,2.2-3,4.1c0,2.5,1.6,3.7,3.9,3.9c1.6,0.3,3.9,0.5,7.1,1.1
		c4.2,0.8,7.5,3.8,7.5,8.4C457.7,83.8,456.9,86,455.4,87.6z"/>
	<path d="M483.1,87.5c-2.4,2.4-5.6,3.7-8.9,3.6c-3.3,0-6.5-1.2-8.9-3.6c-3.2-3.3-4.2-7.6-4.2-12.5s1.1-9.2,4.2-12.5
		c2.4-2.4,5.6-3.7,8.9-3.6c3.3,0,6.5,1.2,8.9,3.6c3.2,3.3,4.2,7.6,4.2,12.5C487.3,79.8,486.3,84.2,483.1,87.5z M479.4,65.5
		c-2.8-2.9-7.4-3-10.3-0.2c-0.1,0.1-0.1,0.1-0.2,0.2c-2.1,2.2-2.8,5.9-2.8,9.5s0.7,7.2,2.8,9.5c2.8,2.9,7.4,3,10.3,0.2
		c0.1-0.1,0.1-0.1,0.2-0.2c2.1-2.2,2.8-5.9,2.8-9.5S481.5,67.7,479.4,65.5z"/>
	<path d="M512.3,87.7c-2.3,2.2-5.4,3.4-8.5,3.3c-4.4,0.2-8.5-2.1-10.8-5.8c-1.8-3.1-2.7-6.7-2.5-10.3c0-4.6,0.9-7.9,2.5-10.3
		c2.3-3.7,6.4-5.9,10.8-5.8c3.1-0.1,6.2,1.1,8.4,3.3c2.1,2.1,3.4,4.9,3.6,7.9h-5c-0.1-1.8-0.9-3.4-2.1-4.7c-1.3-1.2-3-1.9-4.7-1.8
		c-1.9,0-3.7,0.7-5.1,2c-2.4,2.1-3,5.9-3,9.6s0.7,7.5,3,9.6c1.4,1.3,3.2,2,5.1,2c1.9,0.1,3.7-0.7,5-2.1c1.1-1.2,1.8-2.8,2-4.5h5
		C515.6,83,514.4,85.7,512.3,87.7z"/>
	<path d="M520.3,52.6v-6h5.8v6H520.3z M520.6,90.2V59.7h5.1v30.5H520.6z"/>
	<path d="M554.4,90.6c-2.4,0-4.2-1.9-4.2-4.3c0-0.1,0-0.2,0-0.3h-0.1c-2.1,3.3-5.7,5.2-9.6,5c-6.8,0-10.1-4.7-10.1-9.5
		c0-3.9,2.5-9.1,10.5-9.6l9.1-0.5v-2.2c0.2-1.7-0.4-3.4-1.6-4.6c-1.4-1.1-3.1-1.7-4.9-1.6c-2-0.1-3.9,0.5-5.4,1.8
		c-1,1-1.5,2.3-1.4,3.7h-4.9c0-2.4,0.9-4.7,2.6-6.4c2-2.2,5.5-3.3,9.1-3.3c5.8,0,9.1,2.5,10.4,5.9c0.6,1.5,0.9,3.1,0.9,4.7v14.7
		c0,1.6,0.7,2.1,1.6,2.1c0.4,0,0.9-0.1,1.3-0.1V90C556.7,90.4,555.5,90.7,554.4,90.6z M549.8,75.5l-8,0.5c-3,0.1-6.4,1.6-6.4,5.5
		c0,2.8,1.6,5.3,5.9,5.3c2.3,0.1,4.5-0.9,6-2.5c1.7-1.9,2.6-4.4,2.5-7V75.5z"/>
	<path d="M571.1,90.6c-6.4,0-8.2-4.2-8.2-8.3V64h-5.8v-4.3h5.8v-7.8l5-1.2v8.9h8.8V64h-8.8v17.6c0,2.9,1.2,4.2,3.9,4.2
		c1.7-0.1,3.4-0.2,5.1-0.5v4.3C575.1,90.3,573.1,90.6,571.1,90.6z"/>
	<path d="M581.1,52.6v-6h5.8v6H581.1z M581.5,90.2V59.7h5.1v30.5H581.5z"/>
	<path d="M613.8,87.5c-2.4,2.4-5.6,3.7-8.9,3.6c-3.3,0-6.5-1.2-8.9-3.6c-3.2-3.3-4.2-7.6-4.2-12.5s1.1-9.2,4.2-12.5
		c2.4-2.4,5.6-3.7,8.9-3.6c3.3,0,6.5,1.2,8.9,3.6c3.2,3.3,4.2,7.6,4.2,12.5C618,79.8,617,84.2,613.8,87.5z M610.1,65.5
		c-1.4-1.5-3.3-2.3-5.3-2.2c-2-0.1-3.9,0.8-5.3,2.2c-2.1,2.2-2.8,5.9-2.8,9.5s0.7,7.2,2.8,9.5c1.4,1.5,3.3,2.3,5.3,2.2
		c2,0.1,3.9-0.8,5.3-2.2c2.1-2.2,2.8-5.9,2.8-9.5S612.3,67.7,610.1,65.5z"/>
	<path d="M641.7,90.2V70.9c0-4.6-1.8-7.4-6.4-7.4c-2.9,0-5.1,2-6.4,4.7c-1.1,2.2-1.1,5.4-1.1,7.8v14.2h-5V59.7h4.3l0.4,4.6
		c1.7-3.3,5.2-5.4,8.9-5.4c6.7,0,10.3,4.2,10.3,11.2v20.1H641.7z"/>
	<path d="M200.1,139.3c-2.4,2.4-5.6,3.7-8.9,3.6c-3.3,0-6.5-1.2-8.9-3.6c-3.2-3.3-4.2-7.6-4.2-12.5s1.1-9.2,4.2-12.5
		c2.4-2.4,5.6-3.7,8.9-3.6c3.3,0,6.5,1.2,8.9,3.6c3.2,3.3,4.2,7.6,4.2,12.5C204.3,131.7,203.3,136,200.1,139.3z M196.4,117.3
		c-2.8-2.9-7.4-3-10.3-0.2c-0.1,0.1-0.1,0.1-0.2,0.2c-2.1,2.2-2.8,5.9-2.8,9.5c0,3.6,0.7,7.2,2.8,9.5c2.8,2.9,7.4,3,10.3,0.2
		c0.1-0.1,0.1-0.1,0.2-0.2c2.1-2.2,2.8-5.9,2.8-9.5S198.5,119.5,196.4,117.3z"/>
	<path d="M221,102.2c-2.2-0.2-4.1,1.5-4.2,3.7c0,0.2,0,0.4,0,0.5v5.1h8.5v4.3h-8.5V142h-5v-26.2h-5.4v-4.3h5.4v-5.4
		c-0.1-4.4,3.5-8.1,7.9-8.2c0.2,0,0.4,0,0.6,0c1.9,0,3.7,0.2,5.5,0.5v4.3C224.3,102.4,222.6,102.2,221,102.2z"/>
	<path d="M267.3,142l-3.4-10.1h-18l-3.3,10.1h-5.3l14.6-42.7h6l14.7,42.7H267.3z M254.8,104.7l-7.4,22.2h14.7L254.8,104.7z"/>
	<path d="M289.8,116.3c-2.1,0-4.1,0.9-5.7,2.4c-2.4,2.4-2.6,6.6-2.6,9.7v13.5h-4.9v-30.5h4.3l0.4,5.4c1.5-3.5,5-5.7,8.8-5.5
		c0.8,0,1.6,0,2.4,0.1v5C291.6,116.4,290.6,116.3,289.8,116.3z"/>
	<path d="M316.1,139.5c-2.3,2.2-5.4,3.4-8.5,3.3c-4.4,0.2-8.5-2.1-10.8-5.8c-1.8-3.1-2.7-6.7-2.5-10.3c0-4.6,0.9-7.9,2.5-10.3
		c2.3-3.7,6.4-5.9,10.8-5.8c3.1-0.1,6.2,1.1,8.4,3.3c2.1,2.1,3.4,4.9,3.6,7.9h-5c-0.1-1.8-0.9-3.4-2.1-4.7c-1.3-1.2-3-1.9-4.7-1.8
		c-1.9,0-3.7,0.7-5.1,2c-2.4,2.1-3,5.9-3,9.6s0.7,7.5,3,9.6c1.4,1.3,3.2,2,5.1,2c1.9,0.1,3.7-0.7,5-2.1c1.1-1.2,1.8-2.8,2-4.5h5
		C319.4,134.8,318.2,137.5,316.1,139.5z"/>
	<path d="M343.4,142v-19.3c0-4.6-1.8-7.4-6.4-7.4c-2.9,0-5.1,2-6.4,4.7c-1.1,2.2-1.1,5.4-1.1,7.8V142h-5V98.5h5v17.1
		c1.8-3.1,5.1-4.9,8.7-4.9c6.7,0,10.3,4.2,10.3,11.2V142H343.4z"/>
	<path d="M354.4,104.6v-6h5.8v6H354.4z M354.8,142v-30.5h5.1V142H354.8z"/>
	<path d="M377.4,142.4c-6.4,0-8.2-4.2-8.2-8.3v-18.3h-5.8v-4.3h5.8v-7.8l5-1.2v8.9h8.8v4.3h-8.8v17.6c0,2.9,1.2,4.2,3.9,4.2
		c1.7-0.1,3.4-0.2,5.1-0.5v4.3C381.4,142.2,379.4,142.5,377.4,142.4z"/>
	<path d="M411.4,128.5h-20.9c0,2.8,1,5.5,2.9,7.6c1.4,1.5,3.4,2.3,5.4,2.2c2,0.1,4-0.6,5.5-2c0.9-0.9,1.5-2,1.7-3.3h4.9
		c-0.4,3-2.1,5.8-4.6,7.5c-2.2,1.5-4.8,2.3-7.5,2.2c-3.8,0-7.4-1.7-9.9-4.6c-2.5-3.2-3.8-7.2-3.7-11.3c-0.1-3.4,0.7-6.7,2.2-9.7
		c2.3-4,6.6-6.5,11.2-6.4c3.5-0.1,6.8,1.4,9.1,3.9c2.5,3,3.8,6.9,3.7,10.8L411.4,128.5z M404.6,117.8c-1.4-1.9-3.6-2.9-5.9-2.8
		c-5.4,0-8,4.5-8.2,8.9h15.8C406.3,121.8,405.7,119.7,404.6,117.8L404.6,117.8z"/>
	<path d="M437.2,139.5c-2.3,2.2-5.4,3.4-8.5,3.3c-4.4,0.2-8.5-2.1-10.8-5.8c-1.8-3.1-2.7-6.7-2.5-10.3c0-4.6,0.9-7.9,2.5-10.3
		c2.3-3.7,6.4-5.9,10.8-5.8c3.1-0.1,6.2,1.1,8.4,3.3c2.1,2.1,3.4,4.9,3.6,7.9h-5c-0.1-1.8-0.9-3.4-2.1-4.7c-1.3-1.2-3-1.9-4.7-1.8
		c-1.9,0-3.7,0.7-5.1,2c-2.4,2.1-3,5.9-3,9.6s0.7,7.5,3,9.6c1.4,1.3,3.2,2,5.1,2c1.9,0.1,3.7-0.7,5-2.1c1.1-1.2,1.8-2.8,2-4.5h5
		C440.6,134.8,439.3,137.5,437.2,139.5z"/>
	<path d="M456.7,142.4c-6.4,0-8.2-4.2-8.2-8.3v-18.3h-5.8v-4.3h5.8v-7.8l5-1.2v8.9h8.8v4.3h-8.8v17.6c0,2.9,1.2,4.2,3.9,4.2
		c1.7-0.1,3.4-0.2,5.1-0.5v4.3C460.7,142.2,458.7,142.5,456.7,142.4z"/>
	<path d="M487.3,139.4c-2.2,2.4-5.8,3.4-9.6,3.4c-3.5,0.2-7-1-9.6-3.4c-1.9-1.8-2.9-4.4-2.9-7h5c0,1.9,0.9,3.6,2.4,4.7
		c1.6,1,3.4,1.5,5.3,1.4c2,0.1,3.9-0.5,5.4-1.7c0.9-0.8,1.4-2,1.4-3.3c0-2.2-1.6-3.9-4.6-4.3c-1.3-0.1-4.6-0.7-6.7-0.9
		c-4.5-0.8-7.2-3.6-7.2-8.2c0-2.2,0.9-4.4,2.5-5.9c2.3-2.3,5.4-3.5,8.7-3.4c3.9,0,7.5,1.3,9.5,3.8c1.4,1.6,2.2,3.8,2.1,5.9h-5
		c0-1.5-0.6-2.8-1.7-3.8c-2.4-1.7-5.5-2.1-8.3-0.9c-1.7,0.6-2.9,2.2-3,4.1c0,2.5,1.6,3.7,3.9,3.9c1.6,0.3,3.9,0.5,7.1,1.1
		c4.2,0.8,7.5,3.8,7.5,8.4C489.7,135.6,488.9,137.8,487.3,139.4z"/>
</g>
</svg>
