<?xml version="1.0" encoding="utf-8"?>
<!-- Generator: Adobe Illustrator 27.3.1, SVG Export Plug-In . SVG Version: 6.00 Build 0)  -->
<svg version="1.1" id="Layer_1" xmlns="http://www.w3.org/2000/svg" xmlns:xlink="http://www.w3.org/1999/xlink" x="0px" y="0px"
	 width="449.9px" height="144.2px" viewBox="0 0 449.9 144.2" style="enable-background:new 0 0 449.9 144.2;" xml:space="preserve"
	>
<g>
	<path d="M686.8,426.4c-1.4-1.4-3.2-2.1-5.3-2.1c-2.6,0-4.7,0.9-6.4,2.8c-1.7,1.8-2.5,4.4-2.5,7.7c0,3,0.8,5.5,2.5,7.3
		c1.6,1.8,3.6,2.7,5.9,2.7c2.1,0,3.9-0.8,5.3-2.4c1.4-1.6,2.3-3.3,2.6-5.2l-0.7-0.4c-0.6,1.7-1.4,2.9-2.3,3.6c-0.9,0.7-2,1-3.3,1
		c-1.9,0-3.5-0.8-4.9-2.4c-1.4-1.6-2.1-3.9-2.1-6.7h13.3C688.8,429.7,688.1,427.8,686.8,426.4z M675.5,430.9
		c0.2-1.6,0.7-2.9,1.6-3.8c0.9-0.9,2-1.4,3.1-1.4c0.8,0,1.5,0.2,2.2,0.7c0.7,0.4,1.2,1.1,1.6,1.9c0.2,0.5,0.4,1.4,0.4,2.6H675.5z"/>
	<path d="M733.9,417.8c0.4-0.4,0.6-0.9,0.6-1.5s-0.2-1.1-0.6-1.5c-0.4-0.4-0.9-0.6-1.5-0.6c-0.6,0-1.1,0.2-1.5,0.6
		c-0.4,0.4-0.6,0.9-0.6,1.5s0.2,1.1,0.6,1.5s0.9,0.6,1.5,0.6C733,418.5,733.5,418.2,733.9,417.8z"/>
	<path d="M778.7,439.3c0.8-1.8,1.2-3.5,1.2-5.2c0-1.4-0.3-2.6-0.7-3.8l10.4,6.9l0.7-1.1l-12.5-8.3c-0.1-0.1-0.1-0.2-0.2-0.3
		c-1.3-1.6-2.9-2.7-4.9-3.1l-39.4-26.3l-0.7,1.1l37.5,25c-1.4,0.1-2.8,0.5-4.1,1.2c-1.4,0.8-2.6,2.1-3.5,3.9
		c-0.2,0.4-0.4,0.8-0.6,1.3l-4.6-3.1h0.1c0.6,0,1,0,1.1-0.1c0.1,0,0.2-0.1,0.2-0.2c0.1-0.1,0.1-0.4,0.1-0.8c0-0.3,0-0.5-0.1-0.7
		c0-0.1-0.1-0.1-0.2-0.2c-0.1,0-0.4-0.1-1.1-0.1h-2.9l-40-27.4l-0.7,1l36.9,25.2c-0.7-0.1-1.4-0.2-2.1-0.2c-2.2,0-4.1,0.7-5.5,2.1
		c-1,1-1.7,2.1-2,3.4l-7.1-4.9v-0.6h-0.8l-38.2-26.4l-0.7,1l37.4,25.9l-4.5,1.8l0.3,0.8c0.6-0.2,1-0.3,1.4-0.3
		c0.4,0,0.7,0.1,0.9,0.3c0.2,0.2,0.4,0.5,0.5,0.9c0.1,0.6,0.2,2,0.2,4.1v3.6l-10.9-7.3c0.3-0.4,0.6-0.8,0.9-1.1
		c0.3-0.3,0.6-0.4,0.8-0.4c0.3,0,0.7,0.2,1.4,0.7c0.6,0.5,1.2,0.7,1.7,0.7c0.5,0,0.9-0.2,1.3-0.6c0.4-0.4,0.5-0.8,0.5-1.4
		c0-0.6-0.3-1.2-0.8-1.6c-0.5-0.5-1.1-0.7-1.9-0.7c-1.6,0-3.2,1.3-4.7,3.8l-0.3-0.2v-3.6h-0.9l-2.9,1.2l-6.4-4.3v-6.9h-0.9l-5.7,2.4
		l0.1,0.2l-25-16.7L661,415.6h-13.4v0.8h1c0.7,0,1.3,0.2,1.9,0.5c0.4,0.3,0.7,0.6,0.9,0.9c0.2,0.5,0.3,1.4,0.3,2.9v4.1L623.8,452
		l0.9,0.9l27-26.4V439c0,1.7-0.2,2.8-0.5,3.2c-0.5,0.7-1.4,1-2.6,1h-1v0.8h12.2v-0.8h-1c-0.7,0-1.3-0.2-1.9-0.5
		c-0.4-0.3-0.7-0.6-0.9-0.9c-0.2-0.5-0.3-1.4-0.3-2.9v-9h5.2c1,0,1.7,0.1,2.2,0.4c0.5,0.3,0.9,0.6,1.1,1.2c0.3,0.5,0.4,1.3,0.4,2.4
		h0.8v-9.7h-0.8c-0.2,1.6-0.6,2.6-1.1,3.1c-0.6,0.5-1.4,0.8-2.6,0.8h-5.2v-5.8l5.5-5.4h0.7c1.5,0,2.6,0.1,3.3,0.4
		c0.7,0.3,1.3,0.7,1.8,1.4c0.5,0.6,0.9,1.6,1.3,2.9h0.7l-0.3-6.3h-6l14.2-13.9l28,18.7c0,0.6,0,1.2,0,2v3.6
		c-1.1-1.1-2.5-1.6-4.2-1.6c-2.7,0-5,1.1-6.7,3.4c-1.7,2.3-2.6,4.8-2.6,7.6c0,2.8,0.8,5,2.4,6.8c1.6,1.8,3.4,2.6,5.5,2.6
		c1,0,2-0.2,2.9-0.6c0.9-0.4,1.8-1.1,2.8-2.1v2.8h1l5.7-2.4l-0.2-0.7c-0.6,0.2-1.1,0.4-1.5,0.4c-0.3,0-0.6-0.1-0.8-0.3
		c-0.2-0.2-0.4-0.5-0.5-1c-0.1-0.5-0.2-1.9-0.2-4.1v-13.8l5,3.3l-1.5,0.6l0.2,0.8c0.5-0.2,1-0.3,1.5-0.3c0.4,0,0.7,0.1,0.9,0.3
		c0.2,0.2,0.4,0.5,0.5,0.9c0.1,0.4,0.1,1.8,0.1,4v7.5c0,1.1,0,1.8-0.1,2c-0.1,0.5-0.4,0.8-0.7,1.1c-0.5,0.3-1.2,0.5-2.2,0.5v0.8h9.9
		v-0.8c-0.9,0-1.5-0.1-2-0.4c-0.5-0.3-0.8-0.6-1-0.9c-0.3-0.5-0.4-1.4-0.4-2.4v-9.2c0.1-0.2,0.2-0.5,0.4-0.7l11.6,7.7v2.3
		c0,1.2-0.1,2-0.3,2.4c-0.2,0.4-0.4,0.7-0.8,0.9c-0.3,0.2-1,0.3-1.9,0.3v0.8h9.4v-0.8c-0.9,0-1.5-0.1-1.9-0.3
		c-0.3-0.2-0.6-0.5-0.8-0.9c-0.2-0.4-0.3-1.2-0.3-2.4v0l8.1,5.4c-0.6,0.6-1,1-1,1.1c-0.7,0.9-1.2,1.6-1.5,2.2
		c-0.2,0.3-0.2,0.7-0.2,1c0,0.8,0.5,1.5,1.6,2.2c1.9,1.2,4.1,1.8,6.9,1.8c3.5,0,6.4-1,8.6-3.1c1.5-1.4,2.2-2.9,2.2-4.5
		c0-1.1-0.4-2.1-1.2-2.9c-0.8-0.8-1.8-1.3-3.1-1.5c-0.9-0.1-2.7-0.2-5.6-0.3c-1.6,0-2.6-0.1-2.9-0.1c-0.7-0.1-1.1-0.3-1.4-0.5
		c-0.2-0.2-0.3-0.5-0.3-0.7c0-0.3,0.1-0.6,0.3-1c0.2-0.4,0.6-0.9,1.3-1.4c1,0.3,2,0.4,2.9,0.4c0.7,0,1.3-0.1,1.9-0.2l21.6,14.9
		l0.7-1l-20.8-14.4c0.8-0.3,1.5-0.7,2.1-1.3c1.4-1.3,2.1-2.8,2.1-4.6c0-1.6-0.4-2.9-1.2-3.9h0.1l6.4,4.4c-0.2,0.9-0.4,1.8-0.4,2.7
		c0,2.4,0.7,4.6,2.2,6.6c1.7,2.3,4,3.5,6.9,3.5c1.8,0,3.4-0.4,4.8-1.3c0.5-0.3,1-0.7,1.4-1.2l12.9,8.8l0.7-1l-12.8-8.8
		C777.9,440.7,778.3,440,778.7,439.3z M655.7,420.8v-3.7h3.7L655.7,420.8z M705.1,440.5c-1.2,1.3-2.4,1.9-3.7,1.9
		c-1.5,0-2.9-0.8-4.1-2.3c-1.2-1.5-1.9-3.7-1.9-6.5c0-2.8,0.6-4.9,1.9-6.4c1-1.1,2.1-1.7,3.3-1.7c0.7,0,1.3,0.2,2,0.6
		c0.7,0.4,1.3,1,1.7,1.8c0.4,0.8,0.7,1.7,0.8,2.6V440.5z M702.6,417.1c0.4-0.1,0.7-0.2,1-0.2c0.3,0,0.6,0.1,0.8,0.3s0.4,0.5,0.5,1
		c0,0.1,0,0.3,0.1,0.5L702.6,417.1z M743.8,449.6c-0.8-0.5-1.2-1.1-1.2-1.8c0-0.5,0.2-1.1,0.5-1.7c0.1-0.1,0.1-0.2,0.2-0.3l7.6,5.1
		c-0.3,0-0.6,0-1,0C747.2,450.9,745.2,450.4,743.8,449.6z M744.5,444.1c1.7,0.2,4.1,0.4,7.3,0.5c2.2,0.1,3.6,0.2,4.3,0.5
		c0.7,0.3,1.1,0.8,1.1,1.6c0,1-0.6,2-1.8,2.8c-0.7,0.5-1.6,0.8-2.6,1.1l-8.8-5.9C744.2,444.5,744.3,444.3,744.5,444.1z M742,439.9
		c-0.4,0.7-0.6,1.2-0.6,1.7c0,0.4,0.2,0.8,0.5,1.2c0.3,0.3,0.8,0.7,1.5,1.2c-0.1,0.1-0.2,0.2-0.2,0.2l-9-6v-11.8l6.9,4.8
		c0,0,0,0.1,0,0.1c0,1.2,0.3,2.4,0.9,3.4c0.6,1,1.5,1.8,2.7,2.4C743.3,438.3,742.4,439.2,742,439.9z M748.9,436.9
		c-1.1,0-2-0.5-2.8-1.4c-0.3-0.4-0.5-0.9-0.8-1.4l3.9,2.7C749.2,436.8,749.1,436.9,748.9,436.9z M751.6,435.7
		c-0.2,0.3-0.5,0.5-0.8,0.6l-5.9-4.1c-0.1-0.6-0.2-1.2-0.2-1.9c0-1.7,0.4-3,1.1-3.8c0.7-0.8,1.6-1.2,2.6-1.2c1.1,0,2,0.5,2.8,1.4
		c1,1.3,1.5,3,1.5,5.2C752.6,433.6,752.3,434.9,751.6,435.7z M765.9,428.6c0.5-1.1,1.1-1.9,1.8-2.3c0.8-0.4,1.5-0.7,2.2-0.7
		c1.5,0,2.8,0.7,3.8,2c1.5,2,2.2,4.7,2.2,8.1c0,1.7-0.2,3-0.5,4.1l-10.3-7C765.2,431.1,765.5,429.7,765.9,428.6z M774.7,441.5
		c-0.9,1.1-2,1.7-3.4,1.7c-1.8,0-3.3-1-4.4-3c-0.9-1.7-1.4-3.6-1.6-5.7l9.7,6.6C774.9,441.2,774.8,441.4,774.7,441.5z"/>
	<path d="M635.5,448.3v0.1h0.2c0.1,0,0.2,0,0.3,0.1c0.1,0,0.1,0.1,0.2,0.2c0,0.1,0,0.2,0,0.5v3.3c0,0.3,0,0.5-0.1,0.6
		c-0.1,0.1-0.2,0.2-0.5,0.2h-0.2v0.1h2.2v-0.1h-0.2c-0.1,0-0.2,0-0.3-0.1c-0.1,0-0.1-0.1-0.2-0.2c0-0.1,0-0.2,0-0.5v-1.6h0.9
		c0.2,0,0.3,0,0.4,0.1c0.1,0,0.2,0.1,0.2,0.2c0,0.1,0.1,0.2,0.1,0.4h0.1v-1.7h-0.1c0,0.3-0.1,0.5-0.2,0.6c-0.1,0.1-0.3,0.1-0.5,0.1
		H637v-2h1.1c0.3,0,0.5,0,0.6,0.1c0.1,0,0.2,0.1,0.3,0.2c0.1,0.1,0.2,0.3,0.2,0.5h0.1l0-1.1H635.5z"/>
	<path d="M641.8,449.9c-0.3,0-0.5,0.1-0.8,0.2s-0.5,0.4-0.6,0.7c-0.2,0.3-0.2,0.6-0.2,0.9c0,0.4,0.1,0.8,0.4,1.2
		c0.3,0.4,0.7,0.6,1.2,0.6c0.3,0,0.6-0.1,0.9-0.2c0.3-0.2,0.5-0.4,0.6-0.7s0.2-0.6,0.2-0.9c0-0.4-0.1-0.8-0.4-1.2
		C642.7,450.1,642.3,449.9,641.8,449.9z M642.5,452.9c-0.2,0.2-0.4,0.3-0.6,0.3c-0.3,0-0.6-0.2-0.8-0.5c-0.2-0.4-0.3-0.8-0.3-1.3
		c0-0.3,0-0.6,0.1-0.8c0.1-0.2,0.2-0.3,0.3-0.4c0.1-0.1,0.3-0.1,0.4-0.1c0.3,0,0.5,0.1,0.7,0.4c0.3,0.3,0.4,0.8,0.4,1.4
		C642.7,452.4,642.6,452.7,642.5,452.9z"/>
	<path d="M646,449.9c-0.3,0-0.6,0.3-0.9,0.8v-0.8H645l-1,0.4l0,0.1c0.1,0,0.2-0.1,0.3-0.1c0.1,0,0.1,0,0.2,0.1c0,0,0.1,0.1,0.1,0.2
		c0,0.1,0,0.3,0,0.7v1.3c0,0.2,0,0.3,0,0.4c0,0.1-0.1,0.1-0.1,0.2c-0.1,0.1-0.2,0.1-0.4,0.1v0.1h1.7v-0.1c-0.2,0-0.3,0-0.4-0.1
		c-0.1,0-0.1-0.1-0.2-0.2c0-0.1-0.1-0.2-0.1-0.4V451c0.1-0.2,0.2-0.4,0.3-0.5c0.1,0,0.1-0.1,0.1-0.1c0.1,0,0.1,0,0.2,0.1
		c0.1,0.1,0.2,0.1,0.3,0.1c0.1,0,0.2,0,0.2-0.1c0.1-0.1,0.1-0.1,0.1-0.2c0-0.1,0-0.2-0.1-0.3C646.3,449.9,646.1,449.9,646,449.9z"/>
	<path d="M650,453c0-0.1-0.1-0.2-0.1-0.4v-1.5c0-0.3,0-0.5-0.1-0.7c-0.1-0.2-0.2-0.4-0.3-0.5c-0.1-0.1-0.3-0.1-0.5-0.1
		c-0.4,0-0.7,0.2-1.1,0.7v-0.7h-0.2l-1,0.4l0.1,0.1c0.1,0,0.2-0.1,0.2-0.1c0.1,0,0.1,0,0.2,0c0,0,0.1,0.1,0.1,0.2c0,0.1,0,0.3,0,0.7
		v1.3c0,0.2,0,0.4-0.1,0.5c-0.1,0.1-0.2,0.1-0.4,0.1h-0.1v0.1h1.7v-0.1c-0.2,0-0.3,0-0.4,0c-0.1,0-0.1-0.1-0.1-0.2
		c0-0.1,0-0.2,0-0.4v-1.8c0.3-0.3,0.6-0.5,0.9-0.5c0.2,0,0.3,0.1,0.4,0.2c0.1,0.1,0.1,0.4,0.1,0.7v1.4c0,0.2,0,0.3,0,0.3
		c0,0.1-0.1,0.2-0.1,0.2c-0.1,0-0.2,0.1-0.3,0.1h-0.1v0.1h1.7v-0.1c-0.2,0-0.3,0-0.3-0.1C650,453.2,650,453.1,650,453z"/>
	<path d="M652.1,448.7c0.1-0.1,0.1-0.2,0.1-0.3c0-0.1,0-0.2-0.1-0.3c-0.1-0.1-0.2-0.1-0.3-0.1c-0.1,0-0.2,0-0.3,0.1
		c-0.1,0.1-0.1,0.2-0.1,0.3c0,0.1,0,0.2,0.1,0.3s0.2,0.1,0.3,0.1C651.9,448.9,652,448.8,652.1,448.7z"/>
	<path d="M652.2,453c0-0.1,0-0.2,0-0.4v-2.7h-0.2l-1,0.4l0.1,0.1c0.1,0,0.2-0.1,0.3-0.1c0.1,0,0.1,0,0.2,0s0.1,0.1,0.1,0.2
		c0,0.1,0,0.3,0,0.7v1.3c0,0.2,0,0.4,0,0.4c0,0.1-0.1,0.1-0.1,0.2s-0.2,0-0.3,0v0.1h1.7v-0.1c-0.2,0-0.3,0-0.3-0.1
		S652.2,453.1,652.2,453z"/>
	<path d="M654.8,452.9c-0.1,0.1-0.2,0.1-0.2,0.1c-0.1,0-0.2,0-0.2-0.1c-0.1-0.1-0.1-0.2-0.1-0.4v-2.2h0.8V450h-0.8v-1.1h-0.1
		c-0.1,0.2-0.2,0.4-0.2,0.5c-0.1,0.2-0.2,0.3-0.4,0.5c-0.1,0.1-0.3,0.2-0.4,0.3v0.1h0.5v2.3c0,0.2,0,0.4,0.1,0.5
		c0.1,0.1,0.1,0.2,0.2,0.3c0.1,0.1,0.2,0.1,0.3,0.1c0.2,0,0.3-0.1,0.5-0.2c0.2-0.1,0.3-0.3,0.4-0.5H655
		C655,452.8,654.9,452.9,654.8,452.9z"/>
	<path d="M658.9,453c-0.1,0-0.1,0-0.1-0.1c0,0-0.1-0.1-0.1-0.2c0-0.1,0-0.3,0-0.7V450h-1.2v0.1c0.2,0,0.4,0,0.4,0.1
		c0.1,0.1,0.1,0.2,0.1,0.4v1.9c-0.2,0.2-0.3,0.3-0.5,0.4c-0.1,0.1-0.3,0.1-0.4,0.1c-0.2,0-0.3,0-0.4-0.1c-0.1-0.1-0.2-0.3-0.2-0.6
		V450h-1.2v0.1c0.2,0,0.3,0,0.4,0c0.1,0,0.1,0.1,0.2,0.1c0,0.1,0.1,0.2,0.1,0.3v1.5c0,0.3,0,0.6,0.1,0.7c0.1,0.2,0.2,0.3,0.3,0.4
		c0.1,0.1,0.3,0.2,0.5,0.2c0.2,0,0.3,0,0.5-0.1s0.4-0.3,0.7-0.6v0.7h0.2l1-0.4l-0.1-0.1C659,453,658.9,453,658.9,453z"/>
	<path d="M661.5,449.9c-0.3,0-0.6,0.3-0.9,0.8v-0.8h-0.2l-1,0.4l0,0.1c0.1,0,0.2-0.1,0.3-0.1c0.1,0,0.1,0,0.2,0.1
		c0,0,0.1,0.1,0.1,0.2c0,0.1,0,0.3,0,0.7v1.3c0,0.2,0,0.3,0,0.4c0,0.1-0.1,0.1-0.1,0.2c-0.1,0.1-0.2,0.1-0.4,0.1v0.1h1.7v-0.1
		c-0.2,0-0.3,0-0.4-0.1c-0.1,0-0.1-0.1-0.2-0.2c0-0.1-0.1-0.2-0.1-0.4V451c0.1-0.2,0.2-0.4,0.3-0.5c0.1,0,0.1-0.1,0.1-0.1
		c0.1,0,0.1,0,0.2,0.1c0.1,0.1,0.2,0.1,0.3,0.1c0.1,0,0.2,0,0.2-0.1s0.1-0.1,0.1-0.2c0-0.1,0-0.2-0.1-0.3
		C661.8,449.9,661.7,449.9,661.5,449.9z"/>
	<path d="M665.2,453C665.1,453,665.1,453,665.2,453c-0.1-0.1-0.1-0.1-0.2-0.2c0-0.1,0-0.3,0-0.6V451c0-0.3,0-0.5-0.1-0.7
		c-0.1-0.2-0.2-0.3-0.3-0.4c-0.2-0.1-0.4-0.2-0.7-0.2c-0.4,0-0.7,0.1-0.9,0.3c-0.2,0.2-0.3,0.4-0.3,0.6c0,0.1,0,0.2,0.1,0.3
		c0.1,0.1,0.1,0.1,0.2,0.1c0.1,0,0.2,0,0.2-0.1c0.1-0.1,0.1-0.1,0.1-0.3l0-0.2c0-0.1,0-0.2,0.1-0.3c0.1-0.1,0.2-0.1,0.4-0.1
		c0.2,0,0.4,0.1,0.5,0.2c0.1,0.1,0.2,0.4,0.2,0.7v0.1c-0.6,0.2-1,0.4-1.3,0.5c-0.3,0.1-0.4,0.3-0.5,0.5c-0.1,0.1-0.1,0.3-0.1,0.4
		c0,0.3,0.1,0.5,0.2,0.6c0.2,0.2,0.3,0.2,0.6,0.2c0.2,0,0.3,0,0.4-0.1c0.1,0,0.3-0.2,0.7-0.5c0,0.2,0,0.3,0.1,0.4
		c0.1,0.1,0.2,0.1,0.3,0.1c0.3,0,0.5-0.2,0.8-0.6v-0.2c-0.1,0.1-0.2,0.2-0.3,0.3C665.2,453,665.2,453,665.2,453z M664.4,452.6
		c-0.3,0.2-0.6,0.4-0.7,0.4c-0.1,0-0.3-0.1-0.4-0.2c-0.1-0.1-0.2-0.3-0.2-0.4c0-0.1,0-0.3,0.1-0.4s0.2-0.2,0.4-0.3
		c0.1-0.1,0.4-0.2,0.7-0.3V452.6z"/>
	<path d="M670.7,450.2c-0.2-0.2-0.6-0.4-0.9-0.4c-0.5,0-0.8,0.2-1.1,0.5c-0.3,0.3-0.4,0.8-0.4,1.4c0,0.5,0.1,1,0.4,1.3
		c0.3,0.3,0.6,0.5,1,0.5c0.4,0,0.7-0.1,0.9-0.4c0.2-0.3,0.4-0.6,0.5-0.9l-0.1-0.1c-0.1,0.3-0.2,0.5-0.4,0.6
		c-0.2,0.1-0.4,0.2-0.6,0.2c-0.3,0-0.6-0.1-0.9-0.4s-0.4-0.7-0.4-1.2h2.3C671.1,450.8,671,450.5,670.7,450.2z M668.8,451
		c0-0.3,0.1-0.5,0.3-0.7c0.2-0.2,0.3-0.2,0.6-0.2c0.1,0,0.3,0,0.4,0.1c0.1,0.1,0.2,0.2,0.3,0.3c0,0.1,0.1,0.2,0.1,0.5H668.8z"/>
	<path d="M676,449.9c-0.2,0-0.4,0.1-0.6,0.2c-0.2,0.1-0.4,0.3-0.5,0.6v-0.8h-0.1l-1,0.4l0,0.1c0.1,0,0.2-0.1,0.2-0.1
		c0.1,0,0.1,0,0.2,0c0,0,0.1,0.1,0.1,0.1c0,0.1,0,0.2,0,0.4v3.2c0,0.2,0,0.4,0,0.5c0,0.1-0.1,0.1-0.1,0.1c-0.1,0.1-0.2,0.1-0.3,0.1
		h-0.1v0.1h1.8v-0.1c-0.2,0-0.3,0-0.4-0.1c-0.1,0-0.1-0.1-0.1-0.2c0-0.1,0-0.2,0-0.4v-1c0.1,0.1,0.2,0.2,0.3,0.2
		c0.1,0.1,0.3,0.1,0.5,0.1c0.4,0,0.8-0.2,1-0.5c0.3-0.4,0.5-0.9,0.5-1.5c0-0.5-0.1-0.9-0.4-1.3C676.6,450,676.3,449.9,676,449.9z
		 M676.3,453c-0.2,0.2-0.4,0.3-0.6,0.3c-0.2,0-0.4-0.1-0.5-0.2s-0.2-0.2-0.3-0.4c0-0.1,0-0.3,0-0.5v-1.3c0.2-0.2,0.4-0.4,0.4-0.4
		c0.1-0.1,0.2-0.1,0.4-0.1c0.2,0,0.4,0.1,0.6,0.3c0.2,0.3,0.3,0.7,0.3,1.2C676.6,452.4,676.5,452.7,676.3,453z"/>
	<path d="M679.6,449.9c-0.3,0-0.5,0.1-0.8,0.2s-0.5,0.4-0.6,0.7c-0.2,0.3-0.2,0.6-0.2,0.9c0,0.4,0.1,0.8,0.4,1.2
		c0.3,0.4,0.7,0.6,1.2,0.6c0.3,0,0.6-0.1,0.9-0.2c0.3-0.2,0.5-0.4,0.6-0.7c0.1-0.3,0.2-0.6,0.2-0.9c0-0.4-0.1-0.8-0.4-1.2
		C680.5,450.1,680.1,449.9,679.6,449.9z M680.3,452.9c-0.2,0.2-0.4,0.3-0.6,0.3c-0.3,0-0.6-0.2-0.8-0.5c-0.2-0.4-0.3-0.8-0.3-1.3
		c0-0.3,0-0.6,0.1-0.8c0.1-0.2,0.2-0.3,0.3-0.4c0.1-0.1,0.3-0.1,0.4-0.1c0.3,0,0.5,0.1,0.7,0.4c0.3,0.3,0.4,0.8,0.4,1.4
		C680.6,452.4,680.5,452.7,680.3,452.9z"/>
	<path d="M683.7,451.5l-0.5-0.3c-0.2-0.1-0.4-0.2-0.5-0.3c-0.1-0.1-0.1-0.2-0.1-0.4c0-0.1,0.1-0.2,0.2-0.3s0.2-0.1,0.4-0.1
		c0.2,0,0.4,0.1,0.6,0.2c0.1,0.1,0.3,0.4,0.4,0.7h0.1v-1.2h-0.1c0,0.1-0.1,0.1-0.1,0.1c0,0-0.1,0-0.1,0c0,0-0.1,0-0.3-0.1
		c-0.2-0.1-0.4-0.1-0.5-0.1c-0.3,0-0.6,0.1-0.7,0.3s-0.3,0.4-0.3,0.7c0,0.2,0.1,0.4,0.2,0.5c0.1,0.1,0.3,0.3,0.7,0.5
		c0.4,0.2,0.6,0.3,0.7,0.4c0.1,0.1,0.2,0.3,0.2,0.4c0,0.1-0.1,0.3-0.2,0.4c-0.1,0.1-0.2,0.1-0.4,0.1c-0.2,0-0.5-0.1-0.7-0.3
		c-0.2-0.2-0.3-0.4-0.4-0.8h-0.1v1.2h0.1c0-0.1,0.1-0.1,0.1-0.1c0.1,0,0.1,0,0.2,0c0.3,0.1,0.5,0.1,0.7,0.1c0.3,0,0.6-0.1,0.8-0.3
		c0.2-0.2,0.4-0.4,0.4-0.7C684.4,452,684.2,451.7,683.7,451.5z"/>
	<path d="M687.9,453C687.9,453,687.8,453,687.9,453c-0.1-0.1-0.1-0.1-0.2-0.2c0-0.1,0-0.3,0-0.6V451c0-0.3,0-0.5-0.1-0.7
		c-0.1-0.2-0.2-0.3-0.3-0.4c-0.2-0.1-0.4-0.2-0.7-0.2c-0.4,0-0.7,0.1-0.9,0.3c-0.2,0.2-0.3,0.4-0.3,0.6c0,0.1,0,0.2,0.1,0.3
		c0.1,0.1,0.1,0.1,0.2,0.1c0.1,0,0.2,0,0.2-0.1c0.1-0.1,0.1-0.1,0.1-0.3l0-0.2c0-0.1,0-0.2,0.1-0.3c0.1-0.1,0.2-0.1,0.4-0.1
		c0.2,0,0.4,0.1,0.5,0.2c0.1,0.1,0.2,0.4,0.2,0.7v0.1c-0.6,0.2-1,0.4-1.3,0.5c-0.3,0.1-0.4,0.3-0.5,0.5c-0.1,0.1-0.1,0.3-0.1,0.4
		c0,0.3,0.1,0.5,0.2,0.6c0.2,0.2,0.3,0.2,0.6,0.2c0.2,0,0.3,0,0.4-0.1c0.1,0,0.3-0.2,0.7-0.5c0,0.2,0,0.3,0.1,0.4
		c0.1,0.1,0.2,0.1,0.3,0.1c0.3,0,0.5-0.2,0.8-0.6v-0.2c-0.1,0.1-0.2,0.2-0.3,0.3C688,453,687.9,453,687.9,453z M687.1,452.6
		c-0.3,0.2-0.6,0.4-0.7,0.4c-0.1,0-0.3-0.1-0.4-0.2c-0.1-0.1-0.2-0.3-0.2-0.4c0-0.1,0-0.3,0.1-0.4s0.2-0.2,0.4-0.3
		c0.1-0.1,0.4-0.2,0.7-0.3V452.6z"/>
	<path d="M692.5,452.9c-0.1,0.1-0.2,0.1-0.2,0.1c-0.1,0-0.2,0-0.2-0.1c-0.1-0.1-0.1-0.2-0.1-0.4v-2.2h0.8V450h-0.8v-1.1h-0.1
		c-0.1,0.2-0.2,0.4-0.2,0.5c-0.1,0.2-0.2,0.3-0.4,0.5c-0.1,0.1-0.3,0.2-0.4,0.3v0.1h0.5v2.3c0,0.2,0,0.4,0.1,0.5
		c0.1,0.1,0.1,0.2,0.2,0.3c0.1,0.1,0.2,0.1,0.3,0.1c0.2,0,0.3-0.1,0.5-0.2c0.2-0.1,0.3-0.3,0.4-0.5h-0.1
		C692.6,452.8,692.6,452.9,692.5,452.9z"/>
	<path d="M695.8,450.2c-0.2-0.2-0.6-0.4-0.9-0.4c-0.5,0-0.8,0.2-1.1,0.5c-0.3,0.3-0.4,0.8-0.4,1.4c0,0.5,0.1,1,0.4,1.3
		c0.3,0.3,0.6,0.5,1,0.5c0.4,0,0.7-0.1,0.9-0.4c0.2-0.3,0.4-0.6,0.5-0.9l-0.1-0.1c-0.1,0.3-0.2,0.5-0.4,0.6
		c-0.2,0.1-0.4,0.2-0.6,0.2c-0.3,0-0.6-0.1-0.9-0.4s-0.4-0.7-0.4-1.2h2.3C696.2,450.8,696.1,450.5,695.8,450.2z M693.8,451
		c0-0.3,0.1-0.5,0.3-0.7c0.2-0.2,0.3-0.2,0.6-0.2c0.1,0,0.3,0,0.4,0.1c0.1,0.1,0.2,0.2,0.3,0.3c0,0.1,0.1,0.2,0.1,0.5H693.8z"/>
	<path d="M698.4,452.9c-0.1,0.1-0.2,0.1-0.2,0.1c-0.1,0-0.2,0-0.2-0.1c-0.1-0.1-0.1-0.2-0.1-0.4v-2.2h0.8V450h-0.8v-1.1h-0.1
		c-0.1,0.2-0.2,0.4-0.2,0.5c-0.1,0.2-0.2,0.3-0.4,0.5c-0.1,0.1-0.3,0.2-0.4,0.3v0.1h0.5v2.3c0,0.2,0,0.4,0.1,0.5
		c0.1,0.1,0.1,0.2,0.2,0.3c0.1,0.1,0.2,0.1,0.3,0.1c0.2,0,0.3-0.1,0.5-0.2c0.2-0.1,0.3-0.3,0.4-0.5h-0.1
		C698.6,452.8,698.5,452.9,698.4,452.9z"/>
	<path d="M700.8,452.9c-0.1,0.1-0.2,0.1-0.2,0.1c-0.1,0-0.2,0-0.2-0.1c-0.1-0.1-0.1-0.2-0.1-0.4v-2.2h0.8V450h-0.8v-1.1h-0.1
		c-0.1,0.2-0.2,0.4-0.2,0.5c-0.1,0.2-0.2,0.3-0.4,0.5c-0.1,0.1-0.3,0.2-0.4,0.3v0.1h0.5v2.3c0,0.2,0,0.4,0.1,0.5
		c0.1,0.1,0.1,0.2,0.2,0.3c0.1,0.1,0.2,0.1,0.3,0.1c0.2,0,0.3-0.1,0.5-0.2c0.2-0.1,0.3-0.3,0.4-0.5H701
		C700.9,452.8,700.9,452.9,700.8,452.9z"/>
	<path d="M702.8,453c0-0.1,0-0.2,0-0.4v-2.7h-0.2l-1,0.4l0.1,0.1c0.1,0,0.2-0.1,0.3-0.1c0.1,0,0.1,0,0.2,0s0.1,0.1,0.1,0.2
		c0,0.1,0,0.3,0,0.7v1.3c0,0.2,0,0.4,0,0.4c0,0.1-0.1,0.1-0.1,0.2c-0.1,0-0.2,0-0.3,0v0.1h1.7v-0.1c-0.2,0-0.3,0-0.3-0.1
		S702.8,453.1,702.8,453z"/>
	<path d="M702.7,448.7c0.1-0.1,0.1-0.2,0.1-0.3c0-0.1,0-0.2-0.1-0.3c-0.1-0.1-0.2-0.1-0.3-0.1c-0.1,0-0.2,0-0.3,0.1
		c-0.1,0.1-0.1,0.2-0.1,0.3c0,0.1,0,0.2,0.1,0.3s0.2,0.1,0.3,0.1C702.5,448.9,702.6,448.8,702.7,448.7z"/>
	<path d="M706.7,448.7c0.1-0.1,0.1-0.2,0.1-0.3c0-0.1,0-0.2-0.1-0.3c-0.1-0.1-0.2-0.1-0.3-0.1c-0.1,0-0.2,0-0.3,0.1
		c-0.1,0.1-0.1,0.2-0.1,0.3c0,0.1,0,0.2,0.1,0.3s0.2,0.1,0.3,0.1C706.6,448.9,706.7,448.8,706.7,448.7z"/>
	<path d="M706.8,453c0-0.1,0-0.2,0-0.4v-2.7h-0.2l-1,0.4l0.1,0.1c0.1,0,0.2-0.1,0.3-0.1c0.1,0,0.1,0,0.2,0s0.1,0.1,0.1,0.2
		c0,0.1,0,0.3,0,0.7v1.3c0,0.2,0,0.4,0,0.4c0,0.1-0.1,0.1-0.1,0.2c-0.1,0-0.2,0-0.3,0v0.1h1.7v-0.1c-0.2,0-0.3,0-0.3-0.1
		S706.9,453.1,706.8,453z"/>
	<path d="M711,453c0-0.1-0.1-0.2-0.1-0.4v-1.5c0-0.3,0-0.5-0.1-0.7c-0.1-0.2-0.2-0.4-0.3-0.5c-0.1-0.1-0.3-0.1-0.5-0.1
		c-0.4,0-0.7,0.2-1.1,0.7v-0.7h-0.2l-1,0.4l0.1,0.1c0.1,0,0.2-0.1,0.2-0.1c0.1,0,0.1,0,0.2,0c0,0,0.1,0.1,0.1,0.2c0,0.1,0,0.3,0,0.7
		v1.3c0,0.2,0,0.4-0.1,0.5c-0.1,0.1-0.2,0.1-0.4,0.1h-0.1v0.1h1.7v-0.1c-0.2,0-0.3,0-0.4,0c-0.1,0-0.1-0.1-0.1-0.2
		c0-0.1,0-0.2,0-0.4v-1.8c0.3-0.3,0.6-0.5,0.9-0.5c0.2,0,0.3,0.1,0.4,0.2s0.1,0.4,0.1,0.7v1.4c0,0.2,0,0.3,0,0.3
		c0,0.1-0.1,0.2-0.1,0.2c-0.1,0-0.2,0.1-0.3,0.1h-0.1v0.1h1.7v-0.1c-0.2,0-0.3,0-0.3-0.1C711.1,453.2,711,453.1,711,453z"/>
	<path d="M715.2,453c0-0.1,0-0.2,0-0.4v-4.5H715l-1,0.4l0.1,0.1c0.1,0,0.2-0.1,0.2-0.1c0.1,0,0.1,0,0.1,0c0,0,0.1,0.1,0.1,0.2
		c0,0.1,0,0.3,0,0.7v3.1c0,0.2,0,0.4,0,0.4s-0.1,0.1-0.1,0.2s-0.2,0-0.3,0v0.1h1.7v-0.1c-0.2,0-0.3,0-0.4-0.1
		C715.3,453.2,715.2,453.1,715.2,453z"/>
	<path d="M718.9,450.2c-0.2-0.2-0.6-0.4-0.9-0.4c-0.5,0-0.8,0.2-1.1,0.5c-0.3,0.3-0.4,0.8-0.4,1.4c0,0.5,0.1,1,0.4,1.3
		c0.3,0.3,0.6,0.5,1,0.5c0.4,0,0.7-0.1,0.9-0.4c0.2-0.3,0.4-0.6,0.5-0.9l-0.1-0.1c-0.1,0.3-0.2,0.5-0.4,0.6
		c-0.2,0.1-0.4,0.2-0.6,0.2c-0.3,0-0.6-0.1-0.9-0.4s-0.4-0.7-0.4-1.2h2.3C719.2,450.8,719.1,450.5,718.9,450.2z M716.9,451
		c0-0.3,0.1-0.5,0.3-0.7c0.2-0.2,0.3-0.2,0.6-0.2c0.1,0,0.3,0,0.4,0.1c0.1,0.1,0.2,0.2,0.3,0.3c0,0.1,0.1,0.2,0.1,0.5H716.9z"/>
	<path d="M723.3,450.1c0,0-0.1,0-0.2,0h-0.7c-0.2-0.2-0.5-0.2-0.8-0.2c-0.4,0-0.7,0.1-1,0.4c-0.3,0.2-0.4,0.5-0.4,0.9
		c0,0.2,0.1,0.4,0.2,0.6c0.1,0.2,0.3,0.3,0.5,0.4c-0.3,0.2-0.4,0.4-0.5,0.5c-0.1,0.1-0.1,0.2-0.1,0.3c0,0.1,0,0.1,0.1,0.2
		c0.1,0.1,0.1,0.1,0.3,0.2c-0.2,0.2-0.4,0.4-0.4,0.4c-0.1,0.2-0.2,0.3-0.3,0.4c0,0.1,0,0.1,0,0.2c0,0.1,0.1,0.3,0.3,0.4
		c0.3,0.2,0.7,0.3,1.2,0.3c0.6,0,1.1-0.2,1.5-0.5c0.3-0.2,0.4-0.5,0.4-0.8c0-0.2-0.1-0.4-0.2-0.5c-0.1-0.1-0.3-0.2-0.6-0.3
		c-0.2,0-0.5,0-1-0.1c-0.3,0-0.5,0-0.5,0c-0.1,0-0.2,0-0.2-0.1c0,0-0.1-0.1-0.1-0.1c0,0,0-0.1,0.1-0.2c0-0.1,0.1-0.2,0.2-0.2
		c0.2,0,0.3,0.1,0.5,0.1c0.4,0,0.7-0.1,1-0.3s0.4-0.5,0.4-0.8c0-0.3-0.1-0.5-0.2-0.7h0.4c0.1,0,0.2,0,0.2,0c0,0,0,0,0,0
		c0,0,0-0.1,0-0.1C723.4,450.2,723.3,450.2,723.3,450.1C723.3,450.1,723.3,450.1,723.3,450.1z M720.8,453.4c0.3,0,0.7,0.1,1.3,0.1
		c0.4,0,0.6,0,0.8,0.1c0.1,0.1,0.2,0.1,0.2,0.3c0,0.2-0.1,0.3-0.3,0.5c-0.2,0.2-0.5,0.2-1,0.2c-0.5,0-0.8-0.1-1.1-0.2
		c-0.1-0.1-0.2-0.2-0.2-0.3c0-0.1,0-0.2,0.1-0.3S720.7,453.5,720.8,453.4z M722,451.9c-0.1,0.1-0.3,0.2-0.5,0.2
		c-0.2,0-0.4-0.1-0.5-0.2c-0.2-0.2-0.3-0.5-0.3-0.9c0-0.3,0.1-0.5,0.2-0.7c0.1-0.1,0.3-0.2,0.5-0.2c0.2,0,0.4,0.1,0.5,0.2
		c0.2,0.2,0.3,0.5,0.3,0.9C722.2,451.5,722.2,451.7,722,451.9z"/>
	<path d="M727,453c0-0.1-0.1-0.2-0.1-0.4v-1.5c0-0.3,0-0.5-0.1-0.7c-0.1-0.2-0.2-0.4-0.3-0.5c-0.1-0.1-0.3-0.1-0.5-0.1
		c-0.4,0-0.7,0.2-1.1,0.7v-0.7h-0.2l-1,0.4l0.1,0.1c0.1,0,0.2-0.1,0.2-0.1c0.1,0,0.1,0,0.2,0c0,0,0.1,0.1,0.1,0.2c0,0.1,0,0.3,0,0.7
		v1.3c0,0.2,0,0.4-0.1,0.5c-0.1,0.1-0.2,0.1-0.4,0.1h-0.1v0.1h1.7v-0.1c-0.2,0-0.3,0-0.4,0c-0.1,0-0.1-0.1-0.1-0.2
		c0-0.1,0-0.2,0-0.4v-1.8c0.3-0.3,0.6-0.5,0.9-0.5c0.2,0,0.3,0.1,0.4,0.2c0.1,0.1,0.1,0.4,0.1,0.7v1.4c0,0.2,0,0.3,0,0.3
		c0,0.1-0.1,0.2-0.1,0.2c-0.1,0-0.2,0.1-0.3,0.1h-0.1v0.1h1.7v-0.1c-0.2,0-0.3,0-0.3-0.1C727.1,453.2,727.1,453.1,727,453z"/>
	<path d="M729.7,449.9c-0.3,0-0.5,0.1-0.8,0.2s-0.5,0.4-0.6,0.7c-0.2,0.3-0.2,0.6-0.2,0.9c0,0.4,0.1,0.8,0.4,1.2
		c0.3,0.4,0.7,0.6,1.2,0.6c0.3,0,0.6-0.1,0.9-0.2c0.3-0.2,0.5-0.4,0.6-0.7s0.2-0.6,0.2-0.9c0-0.4-0.1-0.8-0.4-1.2
		C730.6,450.1,730.2,449.9,729.7,449.9z M730.4,452.9c-0.2,0.2-0.4,0.3-0.6,0.3c-0.3,0-0.6-0.2-0.8-0.5c-0.2-0.4-0.3-0.8-0.3-1.3
		c0-0.3,0-0.6,0.1-0.8c0.1-0.2,0.2-0.3,0.3-0.4c0.1-0.1,0.3-0.1,0.4-0.1c0.3,0,0.5,0.1,0.7,0.4c0.3,0.3,0.4,0.8,0.4,1.4
		C730.6,452.4,730.5,452.7,730.4,452.9z"/>
	<rect x="770.4" y="387.9" transform="matrix(0.5826 -0.8128 0.8128 0.5826 -12.3064 798.335)" width="1.3" height="46.5"/>
</g>
<g>
	<g>
		<path d="M74.7,1.3H35.9C33,1.9,0.4,10.4,0,71.6v70.7h24.8V85.8h49.9v56.5H100V1.3L74.7,1.3z M25.2,62.9
			c4.4-54,46.6-61.2,49.5-61.6v61.6H25.2z"/>
		<path d="M383.8,1.3c-2.8,0.6-36.8,12.5-37.3,70.5l0,0.3c-0.1,55.8,31.6,68.9,37,70.3h41c-5-0.8-49-9.9-50.7-70.5
			c1.8-60,45.2-69.5,50.8-70.5v34.1h25.3V1.3L383.8,1.3z"/>
		<path d="M333.1,103.5C332.3,70.1,309,65.4,306.8,65h-19c6.6-1.3,27.9-7.5,28.2-31.8l0-0.1c-0.4-27.5-26.3-31.5-28.8-31.8l-58.7,0
			v141H253v0h45.4c3.6-0.5,33.8-5.6,34.7-38.6C333.1,103.7,333.1,103.6,333.1,103.5C333.1,103.6,333.1,103.5,333.1,103.5z
			 M290.3,33.2c0.3,30.6-31.9,31.8-36.4,31.8V1.3C258.3,1.5,290.1,4.2,290.3,33.2z M253.8,142.2V68.3c35.8-2.8,44.9,17.7,47.1,25.7
			c0.7,2.9,1,5.9,1,9.4C302,138.8,260.2,142,253.8,142.2z"/>
		<path d="M185.4,35.3h26.7c-5.6-30.3-27.6-33.5-29.7-34l-64,0v141h25.3V85.8h41.6V62.9h-41.6V1.3C147,1.6,177.2,4.9,185.4,35.3z"/>
	</g>
</g>
</svg>
