<?xml version="1.0" encoding="utf-8"?>
<!-- Generator: Adobe Illustrator 27.3.1, SVG Export Plug-In . SVG Version: 6.00 Build 0)  -->
<svg version="1.1" id="Layer_1" xmlns="http://www.w3.org/2000/svg" xmlns:xlink="http://www.w3.org/1999/xlink" x="0px" y="0px"
	 width="419.7px" height="144.2px" viewBox="0 0 419.7 144.2" style="enable-background:new 0 0 419.7 144.2;" xml:space="preserve"
	>
<g>
	<path d="M157.6,72.9c-3.4-3.5-7.8-5.3-13.1-5.3c-6.3,0-11.5,2.3-15.7,6.8c-4.2,4.6-6.3,10.9-6.3,19c0,7.5,2,13.5,6.1,17.9
		c4.1,4.4,9,6.7,14.7,6.7c5.3,0,9.6-1.9,13.1-5.8c3.5-3.9,5.6-8.2,6.3-13l-1.6-1c-1.6,4.2-3.5,7.1-5.8,8.8c-2.3,1.7-5,2.6-8.1,2.6
		c-4.7,0-8.7-2-12.2-6c-3.5-4-5.2-9.6-5.1-16.6h32.9C162.8,81.1,161.1,76.4,157.6,72.9z M129.9,84c0.4-4,1.7-7.1,4-9.3
		c2.3-2.2,4.8-3.4,7.7-3.4c1.9,0,3.7,0.6,5.4,1.7c1.7,1.1,3,2.6,3.9,4.6c0.6,1.2,0.9,3.4,1.1,6.4H129.9z"/>
	<path d="M274.2,51.8c1-1,1.5-2.3,1.5-3.7s-0.5-2.7-1.5-3.7c-1-1-2.3-1.5-3.7-1.5c-1.5,0-2.7,0.5-3.8,1.5c-1,1-1.5,2.3-1.5,3.7
		s0.5,2.7,1.6,3.7c1,1,2.3,1.6,3.7,1.6C271.9,53.4,273.1,52.8,274.2,51.8z"/>
	<path d="M384.6,104.9c2-4.4,3.1-8.7,3.1-12.9c0-3.4-0.6-6.5-1.8-9.4l25.7,17.2l1.7-2.6l-30.8-20.5c-0.2-0.2-0.3-0.5-0.5-0.7
		c-3.2-4.1-7.3-6.6-12.1-7.7L272.7,3.3L271,5.9l92.7,61.8c-3.5,0.2-6.9,1.1-10.1,3c-3.5,2.1-6.4,5.2-8.5,9.6c-0.5,1-1,2.1-1.4,3.1
		l-11.4-7.8h0.3c1.5,0,2.4-0.1,2.6-0.2c0.3-0.1,0.4-0.2,0.5-0.4c0.2-0.3,0.3-1,0.3-1.9c0-0.8-0.1-1.4-0.3-1.7
		c-0.1-0.2-0.3-0.4-0.5-0.4c-0.2-0.1-1.1-0.1-2.6-0.1h-7.2L226.6,3.3l-1.8,2.6l91.1,62.4c-1.6-0.4-3.4-0.6-5.2-0.6
		c-5.5,0-10.1,1.7-13.6,5.1c-2.6,2.4-4.2,5.2-4.9,8.4L274.8,69v-1.4h-2L178.5,2.6l-1.8,2.6L269.2,69l-11.1,4.5l0.7,1.9
		c1.4-0.5,2.6-0.8,3.5-0.8c0.9,0,1.6,0.2,2.1,0.6c0.5,0.4,0.9,1.2,1.1,2.3c0.3,1.5,0.5,4.9,0.5,10v8.8l-26.9-18
		c0.8-1.1,1.5-2,2.3-2.7c0.7-0.7,1.4-1,2-1c0.7,0,1.8,0.6,3.3,1.8c1.5,1.2,2.9,1.8,4.1,1.8c1.2,0,2.3-0.5,3.2-1.4s1.4-2.1,1.4-3.4
		c0-1.5-0.6-2.9-1.9-4c-1.2-1.2-2.8-1.7-4.7-1.7c-3.9,0-7.8,3.2-11.5,9.5l-0.7-0.5v-9h-2.2l-7,2.9l-15.9-10.6V42.8h-2.3L195,48.6
		l0.1,0.4L133.4,7.8L94.1,46.2H60.9v1.9h2.5c1.7,0,3.3,0.4,4.8,1.2c1.1,0.6,1.8,1.4,2.1,2.2c0.4,1.1,0.7,3.5,0.7,7.1v10.2L2.2,136.2
		l2.2,2.2L71,73.2v31c0,4.2-0.4,6.9-1.2,8c-1.3,1.7-3.4,2.5-6.3,2.5h-2.5v1.9h30.2v-1.9h-2.5c-1.7,0-3.3-0.4-4.8-1.2
		c-1.1-0.6-1.8-1.4-2.2-2.2c-0.4-1.1-0.7-3.5-0.7-7.1V82.1h12.8c2.4,0,4.1,0.3,5.3,1c1.2,0.6,2.1,1.6,2.8,2.9c0.7,1.3,1,3.3,1.1,6
		h1.9V68.1H103c-0.4,3.8-1.4,6.4-2.7,7.7c-1.4,1.3-3.5,1.9-6.5,1.9H81V63.5l13.7-13.4h1.8c3.7,0,6.4,0.3,8.1,1
		c1.8,0.7,3.2,1.8,4.4,3.3c1.2,1.5,2.2,4,3.1,7.2h1.8l-0.7-15.5H98.6l35.1-34.4l69.1,46.1c0,1.4,0,3,0,4.9v8.8
		c-2.7-2.7-6.2-4-10.4-4c-6.8,0-12.3,2.8-16.6,8.5c-4.3,5.7-6.4,11.9-6.4,18.7s1.9,12.4,5.8,16.7c3.9,4.3,8.4,6.5,13.6,6.5
		c2.6,0,5-0.5,7.2-1.6c2.2-1.1,4.5-2.8,6.8-5.2v6.8h2.4l14.1-5.9l-0.6-1.8c-1.6,0.6-2.8,0.9-3.7,0.9c-0.8,0-1.4-0.2-2-0.7
		c-0.6-0.5-1-1.3-1.2-2.6c-0.3-1.2-0.4-4.6-0.4-10.2V63.7l12.4,8.3l-3.8,1.5l0.5,1.9c1.4-0.5,2.6-0.8,3.6-0.8c0.9,0,1.7,0.2,2.3,0.7
		c0.6,0.5,1,1.3,1.2,2.3c0.2,1.1,0.3,4.4,0.3,9.9V106c0,2.8-0.1,4.4-0.3,5c-0.3,1.2-1,2.1-1.8,2.6c-1.2,0.8-3,1.1-5.4,1.1v1.9h24.4
		v-1.9c-2.1,0-3.8-0.3-4.9-0.9c-1.1-0.6-1.9-1.4-2.4-2.3c-0.7-1.4-1-3.3-1-6V82.7c0.3-0.6,0.6-1.1,0.9-1.7l28.6,19.1v5.8
		c0,2.9-0.2,4.9-0.7,6c-0.5,1-1.1,1.8-1.9,2.2c-0.8,0.4-2.4,0.7-4.7,0.7v1.9H282v-1.9c-2.3,0-3.8-0.2-4.6-0.7
		c-0.8-0.5-1.5-1.2-1.9-2.2c-0.4-1-0.6-3-0.6-5.9v0l19.9,13.3c-1.5,1.6-2.4,2.5-2.5,2.7c-1.8,2.3-3,4.1-3.6,5.3
		c-0.4,0.8-0.6,1.7-0.6,2.5c0,1.9,1.3,3.7,3.9,5.4c4.6,3,10.2,4.5,16.9,4.5c8.7,0,15.7-2.5,21.1-7.6c3.7-3.4,5.5-7.1,5.5-11
		c0-2.8-1-5.2-2.9-7.2c-1.9-1.9-4.5-3.1-7.7-3.6c-2.1-0.3-6.7-0.6-13.9-0.7c-3.9-0.1-6.3-0.2-7.3-0.4c-1.7-0.2-2.8-0.6-3.3-1.2
		c-0.6-0.6-0.9-1.1-0.9-1.7c0-0.7,0.3-1.5,0.8-2.5c0.5-1,1.6-2.1,3.1-3.5c2.5,0.7,4.9,1,7.2,1c1.7,0,3.2-0.2,4.7-0.5l53.4,36.9
		l1.8-2.6l-51.3-35.5c1.9-0.8,3.6-1.8,5.1-3.1c3.4-3.1,5.1-6.9,5.1-11.4c0-3.9-1-7.1-2.9-9.6h0.3l15.9,10.9
		c-0.6,2.3-0.9,4.5-0.9,6.8c0,6,1.8,11.4,5.3,16.2c4.2,5.7,9.9,8.6,17.1,8.6c4.4,0,8.4-1.1,12-3.3c1.3-0.8,2.4-1.8,3.5-2.9
		l31.9,21.9l1.8-2.6l-31.6-21.6C382.8,108.2,383.8,106.7,384.6,104.9z M81,59.1v-9h9.2L81,59.1z M202.9,107.7
		c-2.9,3.1-6,4.7-9.1,4.7c-3.7,0-7.1-1.9-10.2-5.6c-3-3.7-4.6-9.1-4.6-16.1c0-6.9,1.6-12.2,4.7-15.8c2.4-2.7,5.1-4.1,8.2-4.1
		c1.6,0,3.3,0.5,5,1.5c1.7,1,3.1,2.5,4.1,4.4c1,1.9,1.7,4.1,1.9,6.4V107.7z M196.8,50.1c1-0.3,1.8-0.5,2.5-0.5
		c0.8,0,1.5,0.2,2.1,0.7s1,1.3,1.2,2.5c0.1,0.3,0.1,0.7,0.2,1.2L196.8,50.1z M298.4,130.2c-2-1.2-3-2.7-3-4.4c0-1.3,0.4-2.7,1.2-4.2
		c0.1-0.3,0.4-0.5,0.5-0.8l18.7,12.5c-0.8,0-1.6,0.1-2.5,0.1C306.9,133.4,301.9,132.3,298.4,130.2z M300.3,116.7
		c4.2,0.6,10.2,1,18,1.2c5.3,0.1,8.9,0.6,10.7,1.4c1.8,0.8,2.6,2,2.6,3.8c0,2.5-1.5,4.8-4.4,7c-1.6,1.2-3.9,2.1-6.5,2.6L299,118.3
		C299.4,117.7,299.8,117.2,300.3,116.7z M294,106.2c-1,1.6-1.5,3-1.5,4.3c0,1.1,0.4,2,1.1,2.9c0.7,0.8,2,1.8,3.8,2.9
		c-0.2,0.2-0.4,0.4-0.6,0.6l-22.1-14.7V72.8l17.1,11.8c0,0.1,0,0.2,0,0.3c0,3.1,0.8,5.9,2.3,8.4c1.6,2.5,3.8,4.5,6.7,5.9
		C297.3,102.3,295,104.6,294,106.2z M311.2,98.8c-2.8,0-5.1-1.1-6.9-3.4c-0.8-1-1.4-2.1-1.9-3.4l9.7,6.7
		C311.9,98.7,311.6,98.8,311.2,98.8z M317.7,95.8c-0.6,0.7-1.2,1.2-1.9,1.6l-14.6-10.1c-0.2-1.5-0.4-3-0.4-4.7
		c0-4.2,0.9-7.4,2.6-9.4c1.7-2,3.9-3.1,6.4-3.1c2.8,0,5,1.1,6.8,3.4c2.4,3.1,3.6,7.4,3.6,12.9C320.3,90.8,319.4,93.9,317.7,95.8z
		 M353.1,78.4c1.1-2.7,2.6-4.6,4.5-5.7c1.9-1.1,3.7-1.6,5.5-1.6c3.8,0,6.9,1.7,9.4,5c3.6,4.8,5.5,11.5,5.5,19.9
		c0,4.1-0.4,7.5-1.2,10.2l-25.4-17.4C351.5,84.6,352,81.1,353.1,78.4z M374.7,110.3c-2.2,2.8-5,4.2-8.3,4.2c-4.5,0-8.1-2.5-10.9-7.5
		c-2.2-4.1-3.5-8.8-3.9-14.2l23.9,16.4C375.3,109.5,375,109.9,374.7,110.3z"/>
	<path d="M31.1,127.2v0.3h0.4c0.3,0,0.6,0.1,0.8,0.2c0.2,0.1,0.3,0.2,0.4,0.4c0.1,0.2,0.1,0.6,0.1,1.2v8c0,0.7-0.1,1.2-0.2,1.4
		c-0.2,0.3-0.6,0.4-1.1,0.4h-0.4v0.3h5.3v-0.3H36c-0.3,0-0.6-0.1-0.8-0.2c-0.2-0.1-0.3-0.2-0.4-0.4c-0.1-0.2-0.1-0.6-0.1-1.2v-3.9
		h2.3c0.4,0,0.7,0.1,0.9,0.2c0.2,0.1,0.4,0.3,0.5,0.5c0.1,0.2,0.2,0.6,0.2,1.1h0.3V131h-0.3c-0.1,0.7-0.2,1.1-0.5,1.4
		c-0.2,0.2-0.6,0.3-1.1,0.3h-2.3v-4.9h2.7c0.6,0,1.1,0.1,1.4,0.2c0.3,0.1,0.6,0.3,0.8,0.6c0.2,0.3,0.4,0.7,0.6,1.3h0.3l-0.1-2.7
		H31.1z"/>
	<path d="M46.5,130.9c-0.7,0-1.4,0.2-2,0.5c-0.6,0.4-1.1,0.9-1.5,1.7c-0.4,0.8-0.6,1.5-0.6,2.3c0,1.1,0.3,2,0.9,2.9
		c0.7,1,1.8,1.5,3,1.5c0.8,0,1.5-0.2,2.1-0.6c0.6-0.4,1.1-1,1.5-1.7c0.4-0.8,0.5-1.5,0.5-2.3c0-1.1-0.3-2-1-2.8
		C48.8,131.4,47.8,130.9,46.5,130.9z M48.3,138.5c-0.4,0.5-0.9,0.7-1.5,0.7c-0.8,0-1.4-0.4-1.9-1.3c-0.5-0.9-0.7-1.9-0.7-3.2
		c0-0.8,0.1-1.4,0.3-1.9s0.5-0.8,0.8-1c0.3-0.2,0.7-0.3,1-0.3c0.7,0,1.2,0.3,1.7,0.9c0.6,0.9,1,2,1,3.5
		C48.8,137.1,48.7,138,48.3,138.5z"/>
	<path d="M57,130.9c-0.7,0-1.5,0.6-2.2,1.9v-1.9h-0.4l-2.5,1l0.1,0.3c0.2-0.1,0.5-0.1,0.6-0.1c0.2,0,0.3,0,0.4,0.1
		c0.1,0.1,0.2,0.2,0.2,0.4c0,0.2,0.1,0.8,0.1,1.7v3.3c0,0.5,0,0.8,0,0.9c-0.1,0.2-0.2,0.4-0.3,0.5c-0.2,0.1-0.5,0.2-1,0.2v0.3h4.3
		v-0.3c-0.4,0-0.7-0.1-0.9-0.2c-0.2-0.1-0.3-0.2-0.4-0.4c-0.1-0.2-0.2-0.6-0.2-1.1v-4c0.3-0.6,0.6-1,0.9-1.2
		c0.1-0.1,0.2-0.2,0.4-0.2c0.1,0,0.3,0.1,0.6,0.3c0.3,0.2,0.5,0.3,0.7,0.3c0.2,0,0.4-0.1,0.6-0.2c0.2-0.2,0.2-0.4,0.2-0.6
		c0-0.3-0.1-0.5-0.3-0.7C57.6,131,57.3,130.9,57,130.9z"/>
	<path d="M66.8,138.8c-0.1-0.2-0.1-0.5-0.1-1.1v-3.6c0-0.8-0.1-1.3-0.2-1.7c-0.2-0.5-0.5-0.9-0.8-1.1c-0.3-0.2-0.7-0.3-1.2-0.3
		c-0.9,0-1.8,0.6-2.8,1.8v-1.8h-0.4l-2.5,1l0.1,0.3c0.2-0.1,0.4-0.1,0.6-0.1c0.2,0,0.3,0,0.4,0.1c0.1,0.1,0.2,0.2,0.2,0.4
		c0,0.2,0.1,0.8,0.1,1.8v3.1c0,0.6-0.1,1-0.2,1.2c-0.1,0.2-0.4,0.3-0.9,0.3h-0.2v0.3H63v-0.3c-0.5,0-0.8,0-0.9-0.1
		c-0.2-0.1-0.3-0.2-0.4-0.4c-0.1-0.1-0.1-0.5-0.1-1.1v-4.4c0.7-0.8,1.4-1.2,2.2-1.2c0.5,0,0.8,0.2,1,0.5c0.2,0.3,0.3,0.9,0.3,1.7
		v3.4c0,0.5,0,0.8,0,0.9c-0.1,0.2-0.2,0.4-0.3,0.5c-0.2,0.1-0.4,0.2-0.8,0.2h-0.2v0.3h4.2v-0.3c-0.4,0-0.7,0-0.8-0.1
		C66.9,139,66.8,138.9,66.8,138.8z"/>
	<path d="M72,128.1c0.2-0.2,0.3-0.4,0.3-0.7s-0.1-0.5-0.3-0.7c-0.2-0.2-0.4-0.3-0.7-0.3c-0.3,0-0.5,0.1-0.7,0.3
		c-0.2,0.2-0.3,0.4-0.3,0.7s0.1,0.5,0.3,0.7c0.2,0.2,0.4,0.3,0.7,0.3C71.6,128.4,71.8,128.3,72,128.1z"/>
	<path d="M72.2,138.7c-0.1-0.2-0.1-0.5-0.1-1v-6.7h-0.4l-2.5,1l0.1,0.3c0.2-0.1,0.5-0.1,0.6-0.1c0.2,0,0.3,0,0.4,0.1
		s0.2,0.2,0.2,0.4c0.1,0.3,0.1,0.9,0.1,1.8v3.2c0,0.5,0,0.9-0.1,1.1c-0.1,0.2-0.2,0.3-0.3,0.4s-0.4,0.1-0.8,0.1v0.3h4.1v-0.3
		c-0.4,0-0.7,0-0.8-0.1C72.4,139,72.3,138.9,72.2,138.7z"/>
	<path d="M78.8,138.5c-0.2,0.1-0.4,0.2-0.6,0.2c-0.2,0-0.4-0.1-0.6-0.3c-0.2-0.2-0.2-0.6-0.2-1.1v-5.4h2v-0.6h-2v-2.8h-0.3
		c-0.3,0.6-0.4,1-0.6,1.3c-0.3,0.4-0.6,0.8-0.9,1.1c-0.4,0.3-0.7,0.5-1,0.7v0.3h1.3v5.6c0,0.6,0.1,1.1,0.2,1.3
		c0.1,0.3,0.3,0.5,0.6,0.7c0.3,0.2,0.5,0.2,0.8,0.2c0.4,0,0.8-0.1,1.2-0.5c0.4-0.3,0.7-0.8,0.9-1.4h-0.4
		C79.2,138.2,79,138.3,78.8,138.5z"/>
	<path d="M88.8,138.6c-0.1,0-0.3,0-0.4-0.1c-0.1-0.1-0.2-0.2-0.2-0.5c0-0.2-0.1-0.8-0.1-1.8v-5.1h-2.9v0.3c0.5,0,0.9,0.1,1.1,0.3
		c0.2,0.2,0.3,0.5,0.3,1v4.8c-0.5,0.5-0.9,0.8-1.2,0.9c-0.3,0.2-0.6,0.2-0.9,0.2c-0.4,0-0.7-0.1-1-0.4s-0.4-0.8-0.4-1.5v-5.6h-2.9
		v0.3c0.4,0,0.7,0,0.9,0.1c0.2,0.1,0.3,0.2,0.4,0.4c0.1,0.2,0.1,0.4,0.1,0.8v3.7c0,0.8,0.1,1.4,0.2,1.8c0.1,0.4,0.4,0.8,0.7,1
		c0.3,0.3,0.8,0.4,1.2,0.4c0.4,0,0.8-0.1,1.2-0.3c0.4-0.2,0.9-0.7,1.6-1.5v1.8H87l2.5-1l-0.1-0.3C89.2,138.6,89,138.6,88.8,138.6z"
		/>
	<path d="M95.3,130.9c-0.7,0-1.5,0.6-2.2,1.9v-1.9h-0.4l-2.5,1l0.1,0.3c0.2-0.1,0.5-0.1,0.6-0.1c0.2,0,0.3,0,0.4,0.1
		c0.1,0.1,0.2,0.2,0.2,0.4c0,0.2,0.1,0.8,0.1,1.7v3.3c0,0.5,0,0.8,0,0.9c-0.1,0.2-0.2,0.4-0.3,0.5c-0.2,0.1-0.5,0.2-1,0.2v0.3h4.3
		v-0.3c-0.4,0-0.7-0.1-0.9-0.2c-0.2-0.1-0.3-0.2-0.4-0.4c-0.1-0.2-0.2-0.6-0.2-1.1v-4c0.3-0.6,0.6-1,0.9-1.2
		c0.1-0.1,0.2-0.2,0.4-0.2c0.1,0,0.3,0.1,0.6,0.3c0.3,0.2,0.5,0.3,0.7,0.3c0.2,0,0.4-0.1,0.6-0.2c0.2-0.2,0.2-0.4,0.2-0.6
		c0-0.3-0.1-0.5-0.3-0.7C96,131,95.7,130.9,95.3,130.9z"/>
	<path d="M104.3,138.6c-0.1,0-0.2,0-0.2-0.1c-0.1-0.1-0.1-0.2-0.1-0.4c0-0.2,0-0.7,0-1.5v-2.9c0-0.8-0.1-1.4-0.2-1.6
		c-0.2-0.4-0.4-0.7-0.8-0.9c-0.5-0.3-1.1-0.4-1.8-0.4c-1,0-1.7,0.2-2.3,0.7c-0.5,0.4-0.8,0.9-0.8,1.4c0,0.3,0.1,0.5,0.2,0.7
		c0.1,0.2,0.3,0.2,0.6,0.2c0.2,0,0.4-0.1,0.6-0.2c0.1-0.2,0.2-0.4,0.2-0.7l0-0.5c0-0.3,0.1-0.5,0.3-0.7c0.2-0.2,0.5-0.3,0.9-0.3
		c0.5,0,0.9,0.2,1.2,0.5c0.3,0.3,0.4,0.9,0.4,1.7v0.3c-1.4,0.5-2.5,1-3.1,1.3c-0.6,0.4-1.1,0.8-1.3,1.2c-0.2,0.3-0.3,0.7-0.3,1.1
		c0,0.6,0.2,1.2,0.6,1.6c0.4,0.4,0.9,0.6,1.4,0.6c0.4,0,0.7-0.1,1.1-0.2c0.2-0.1,0.8-0.5,1.6-1.2c0,0.5,0.1,0.9,0.3,1.1
		c0.2,0.2,0.4,0.3,0.7,0.3c0.6,0,1.3-0.5,2-1.4v-0.5c-0.4,0.4-0.6,0.6-0.7,0.7C104.5,138.6,104.4,138.6,104.3,138.6z M102.3,137.8
		c-0.8,0.6-1.4,0.9-1.8,0.9c-0.3,0-0.6-0.1-0.9-0.4c-0.3-0.3-0.4-0.7-0.4-1.1c0-0.3,0.1-0.7,0.3-1c0.2-0.3,0.6-0.6,1-0.8
		c0.3-0.2,0.9-0.4,1.8-0.8V137.8z"/>
	<path d="M118.1,131.9c-0.6-0.6-1.4-0.9-2.3-0.9c-1.1,0-2,0.4-2.8,1.2c-0.7,0.8-1.1,1.9-1.1,3.4c0,1.3,0.4,2.4,1.1,3.2
		c0.7,0.8,1.6,1.2,2.6,1.2c0.9,0,1.7-0.3,2.3-1c0.6-0.7,1-1.4,1.1-2.3l-0.3-0.2c-0.3,0.7-0.6,1.3-1,1.6c-0.4,0.3-0.9,0.5-1.4,0.5
		c-0.8,0-1.5-0.4-2.2-1.1c-0.6-0.7-0.9-1.7-0.9-2.9h5.8C119,133.3,118.7,132.5,118.1,131.9z M113.2,133.8c0.1-0.7,0.3-1.2,0.7-1.6
		c0.4-0.4,0.9-0.6,1.4-0.6c0.3,0,0.6,0.1,1,0.3c0.3,0.2,0.5,0.5,0.7,0.8c0.1,0.2,0.2,0.6,0.2,1.1H113.2z"/>
	<path d="M130.9,130.9c-0.5,0-0.9,0.1-1.4,0.4c-0.4,0.3-0.9,0.8-1.3,1.6v-2h-0.3l-2.6,1l0.1,0.3c0.2-0.1,0.4-0.1,0.6-0.1
		c0.2,0,0.3,0,0.4,0.1c0.1,0.1,0.2,0.2,0.2,0.3c0,0.1,0.1,0.5,0.1,1v7.9c0,0.6,0,1-0.1,1.1c-0.1,0.1-0.2,0.3-0.3,0.3
		c-0.2,0.1-0.5,0.2-0.9,0.2h-0.2v0.3h4.4v-0.3c-0.5,0-0.8,0-1-0.1c-0.2-0.1-0.3-0.2-0.4-0.4c-0.1-0.2-0.1-0.5-0.1-1.1v-2.6
		c0.3,0.3,0.6,0.5,0.8,0.5c0.3,0.1,0.7,0.2,1.2,0.2c1,0,1.9-0.4,2.6-1.2c0.8-0.9,1.2-2.1,1.2-3.6c0-1.3-0.3-2.3-1-3.2
		C132.5,131.3,131.8,130.9,130.9,130.9z M131.7,138.6c-0.4,0.5-0.9,0.7-1.5,0.7c-0.5,0-0.9-0.1-1.3-0.4c-0.3-0.3-0.5-0.6-0.6-0.9
		c-0.1-0.2-0.1-0.7-0.1-1.3v-3.1c0.5-0.5,0.9-0.9,1.1-1c0.3-0.1,0.6-0.2,0.9-0.2c0.5,0,1,0.2,1.4,0.7c0.6,0.7,0.8,1.7,0.8,3
		C132.5,137.1,132.2,138,131.7,138.6z"/>
	<path d="M140,130.9c-0.7,0-1.4,0.2-2,0.5c-0.6,0.4-1.1,0.9-1.5,1.7c-0.4,0.8-0.6,1.5-0.6,2.3c0,1.1,0.3,2,0.9,2.9
		c0.7,1,1.8,1.5,3,1.5c0.8,0,1.5-0.2,2.1-0.6c0.6-0.4,1.1-1,1.5-1.7c0.4-0.8,0.5-1.5,0.5-2.3c0-1.1-0.3-2-1-2.8
		C142.3,131.4,141.3,130.9,140,130.9z M141.8,138.5c-0.4,0.5-0.9,0.7-1.5,0.7c-0.8,0-1.4-0.4-1.9-1.3c-0.5-0.9-0.7-1.9-0.7-3.2
		c0-0.8,0.1-1.4,0.3-1.9c0.2-0.5,0.5-0.8,0.8-1c0.3-0.2,0.7-0.3,1-0.3c0.7,0,1.2,0.3,1.7,0.9c0.6,0.9,1,2,1,3.5
		C142.3,137.1,142.2,138,141.8,138.5z"/>
	<path d="M150.1,134.9l-1.3-0.7c-0.6-0.3-1-0.5-1.2-0.8c-0.2-0.2-0.3-0.5-0.3-0.9c0-0.3,0.1-0.5,0.4-0.8c0.3-0.2,0.6-0.3,1-0.3
		c0.6,0,1,0.2,1.4,0.5c0.4,0.3,0.7,0.9,0.9,1.8h0.3v-2.9H151c-0.1,0.1-0.1,0.2-0.2,0.3c-0.1,0-0.1,0.1-0.2,0.1c-0.1,0-0.3,0-0.6-0.1
		c-0.5-0.1-0.9-0.2-1.2-0.2c-0.8,0-1.4,0.2-1.8,0.7c-0.5,0.5-0.7,1-0.7,1.7c0,0.5,0.1,1,0.4,1.3c0.3,0.4,0.9,0.8,1.7,1.2
		c0.9,0.4,1.5,0.8,1.8,1.1c0.3,0.3,0.4,0.6,0.4,1.1c0,0.3-0.1,0.6-0.4,0.9c-0.3,0.2-0.6,0.4-1,0.4c-0.6,0-1.1-0.2-1.6-0.7
		s-0.8-1.1-1-1.9h-0.3v3h0.3c0.1-0.2,0.2-0.2,0.3-0.2c0.1,0,0.3,0,0.5,0.1c0.7,0.2,1.2,0.3,1.8,0.3c0.7,0,1.4-0.2,1.9-0.7
		c0.6-0.5,0.9-1.1,0.9-1.8C151.9,136.3,151.3,135.5,150.1,134.9z"/>
	<path d="M160.5,138.6c-0.1,0-0.2,0-0.2-0.1c-0.1-0.1-0.1-0.2-0.1-0.4c0-0.2,0-0.7,0-1.5v-2.9c0-0.8-0.1-1.4-0.2-1.6
		c-0.2-0.4-0.4-0.7-0.8-0.9c-0.5-0.3-1.1-0.4-1.8-0.4c-1,0-1.7,0.2-2.3,0.7c-0.5,0.4-0.8,0.9-0.8,1.4c0,0.3,0.1,0.5,0.2,0.7
		c0.1,0.2,0.3,0.2,0.6,0.2c0.2,0,0.4-0.1,0.6-0.2s0.2-0.4,0.2-0.7l0-0.5c0-0.3,0.1-0.5,0.3-0.7c0.2-0.2,0.5-0.3,0.9-0.3
		c0.5,0,0.9,0.2,1.2,0.5c0.3,0.3,0.4,0.9,0.4,1.7v0.3c-1.4,0.5-2.5,1-3.1,1.3c-0.6,0.4-1.1,0.8-1.3,1.2c-0.2,0.3-0.3,0.7-0.3,1.1
		c0,0.6,0.2,1.2,0.6,1.6c0.4,0.4,0.9,0.6,1.4,0.6c0.4,0,0.7-0.1,1.1-0.2c0.2-0.1,0.8-0.5,1.6-1.2c0,0.5,0.1,0.9,0.3,1.1
		c0.2,0.2,0.4,0.3,0.7,0.3c0.6,0,1.3-0.5,2-1.4v-0.5c-0.4,0.4-0.6,0.6-0.7,0.7C160.6,138.6,160.6,138.6,160.5,138.6z M158.5,137.8
		c-0.8,0.6-1.4,0.9-1.8,0.9c-0.3,0-0.6-0.1-0.9-0.4c-0.3-0.3-0.4-0.7-0.4-1.1c0-0.3,0.1-0.7,0.3-1c0.2-0.3,0.6-0.6,1-0.8
		c0.3-0.2,0.9-0.4,1.8-0.8V137.8z"/>
	<path d="M171.8,138.5c-0.2,0.1-0.4,0.2-0.6,0.2c-0.2,0-0.4-0.1-0.6-0.3c-0.2-0.2-0.2-0.6-0.2-1.1v-5.4h2v-0.6h-2v-2.8h-0.3
		c-0.3,0.6-0.4,1-0.6,1.3c-0.3,0.4-0.6,0.8-0.9,1.1c-0.4,0.3-0.7,0.5-1,0.7v0.3h1.3v5.6c0,0.6,0.1,1.1,0.2,1.3
		c0.1,0.3,0.3,0.5,0.6,0.7c0.3,0.2,0.5,0.2,0.8,0.2c0.4,0,0.8-0.1,1.2-0.5c0.4-0.3,0.7-0.8,0.9-1.4h-0.4
		C172.1,138.2,172,138.3,171.8,138.5z"/>
	<path d="M180,131.9c-0.6-0.6-1.4-0.9-2.3-0.9c-1.1,0-2,0.4-2.8,1.2c-0.7,0.8-1.1,1.9-1.1,3.4c0,1.3,0.4,2.4,1.1,3.2
		c0.7,0.8,1.6,1.2,2.6,1.2c0.9,0,1.7-0.3,2.3-1c0.6-0.7,1-1.4,1.1-2.3l-0.3-0.2c-0.3,0.7-0.6,1.3-1,1.6c-0.4,0.3-0.9,0.5-1.4,0.5
		c-0.8,0-1.5-0.4-2.2-1.1s-0.9-1.7-0.9-2.9h5.8C180.9,133.3,180.6,132.5,180,131.9z M175.1,133.8c0.1-0.7,0.3-1.2,0.7-1.6
		c0.4-0.4,0.9-0.6,1.4-0.6c0.3,0,0.6,0.1,1,0.3c0.3,0.2,0.5,0.5,0.7,0.8c0.1,0.2,0.2,0.6,0.2,1.1H175.1z"/>
	<path d="M186.5,138.5c-0.2,0.1-0.4,0.2-0.6,0.2c-0.2,0-0.4-0.1-0.6-0.3c-0.2-0.2-0.2-0.6-0.2-1.1v-5.4h2v-0.6h-2v-2.8h-0.3
		c-0.3,0.6-0.4,1-0.6,1.3c-0.3,0.4-0.6,0.8-0.9,1.1c-0.4,0.3-0.7,0.5-1,0.7v0.3h1.3v5.6c0,0.6,0.1,1.1,0.2,1.3
		c0.1,0.3,0.3,0.5,0.6,0.7c0.3,0.2,0.5,0.2,0.8,0.2c0.4,0,0.8-0.1,1.2-0.5c0.4-0.3,0.7-0.8,0.9-1.4h-0.4
		C186.8,138.2,186.7,138.3,186.5,138.5z"/>
	<path d="M192.3,138.5c-0.2,0.1-0.4,0.2-0.6,0.2c-0.2,0-0.4-0.1-0.6-0.3c-0.2-0.2-0.2-0.6-0.2-1.1v-5.4h2v-0.6h-2v-2.8h-0.3
		c-0.3,0.6-0.4,1-0.6,1.3c-0.3,0.4-0.6,0.8-0.9,1.1c-0.4,0.3-0.7,0.5-1,0.7v0.3h1.3v5.6c0,0.6,0.1,1.1,0.2,1.3
		c0.1,0.3,0.3,0.5,0.6,0.7c0.3,0.2,0.5,0.2,0.8,0.2c0.4,0,0.8-0.1,1.2-0.5c0.4-0.3,0.7-0.8,0.9-1.4h-0.4
		C192.6,138.2,192.5,138.3,192.3,138.5z"/>
	<path d="M197.3,138.7c-0.1-0.2-0.1-0.5-0.1-1v-6.7h-0.4l-2.5,1l0.1,0.3c0.2-0.1,0.5-0.1,0.6-0.1c0.2,0,0.3,0,0.4,0.1
		s0.2,0.2,0.2,0.4c0.1,0.3,0.1,0.9,0.1,1.8v3.2c0,0.5,0,0.9-0.1,1.1c-0.1,0.2-0.2,0.3-0.3,0.4c-0.1,0.1-0.4,0.1-0.8,0.1v0.3h4.1
		v-0.3c-0.4,0-0.7,0-0.8-0.1C197.4,139,197.3,138.9,197.3,138.7z"/>
	<path d="M197,128.1c0.2-0.2,0.3-0.4,0.3-0.7s-0.1-0.5-0.3-0.7c-0.2-0.2-0.4-0.3-0.7-0.3c-0.3,0-0.5,0.1-0.7,0.3
		c-0.2,0.2-0.3,0.4-0.3,0.7s0.1,0.5,0.3,0.7c0.2,0.2,0.4,0.3,0.7,0.3S196.9,128.3,197,128.1z"/>
	<path d="M207,128.1c0.2-0.2,0.3-0.4,0.3-0.7s-0.1-0.5-0.3-0.7c-0.2-0.2-0.4-0.3-0.7-0.3c-0.3,0-0.5,0.1-0.7,0.3
		c-0.2,0.2-0.3,0.4-0.3,0.7s0.1,0.5,0.3,0.7c0.2,0.2,0.4,0.3,0.7,0.3C206.6,128.4,206.8,128.3,207,128.1z"/>
	<path d="M207.2,138.7c-0.1-0.2-0.1-0.5-0.1-1v-6.7h-0.4l-2.5,1l0.1,0.3c0.2-0.1,0.5-0.1,0.6-0.1c0.2,0,0.3,0,0.4,0.1
		s0.2,0.2,0.2,0.4c0.1,0.3,0.1,0.9,0.1,1.8v3.2c0,0.5,0,0.9-0.1,1.1c-0.1,0.2-0.2,0.3-0.3,0.4c-0.1,0.1-0.4,0.1-0.8,0.1v0.3h4.1
		v-0.3c-0.4,0-0.7,0-0.8-0.1C207.4,139,207.3,138.9,207.2,138.7z"/>
	<path d="M217.5,138.8c-0.1-0.2-0.1-0.5-0.1-1.1v-3.6c0-0.8-0.1-1.3-0.2-1.7c-0.2-0.5-0.5-0.9-0.8-1.1c-0.3-0.2-0.7-0.3-1.2-0.3
		c-0.9,0-1.8,0.6-2.8,1.8v-1.8H212l-2.5,1l0.1,0.3c0.2-0.1,0.4-0.1,0.6-0.1c0.2,0,0.3,0,0.4,0.1c0.1,0.1,0.2,0.2,0.2,0.4
		c0,0.2,0.1,0.8,0.1,1.8v3.1c0,0.6-0.1,1-0.2,1.2c-0.1,0.2-0.4,0.3-0.9,0.3h-0.2v0.3h4.2v-0.3c-0.5,0-0.8,0-0.9-0.1
		c-0.2-0.1-0.3-0.2-0.4-0.4c-0.1-0.1-0.1-0.5-0.1-1.1v-4.4c0.7-0.8,1.4-1.2,2.2-1.2c0.5,0,0.8,0.2,1,0.5s0.3,0.9,0.3,1.7v3.4
		c0,0.5,0,0.8,0,0.9c-0.1,0.2-0.2,0.4-0.3,0.5c-0.2,0.1-0.4,0.2-0.8,0.2h-0.2v0.3h4.2v-0.3c-0.4,0-0.7,0-0.8-0.1
		C217.7,139,217.6,138.9,217.5,138.8z"/>
	<path d="M227.8,138.7c-0.1-0.2-0.1-0.5-0.1-1v-11.1h-0.4l-2.5,1l0.2,0.3c0.2-0.1,0.4-0.1,0.6-0.1c0.1,0,0.3,0,0.4,0.1
		c0.1,0.1,0.2,0.2,0.2,0.4c0,0.2,0.1,0.8,0.1,1.7v7.6c0,0.5,0,0.9-0.1,1.1c-0.1,0.2-0.2,0.3-0.3,0.4c-0.1,0.1-0.4,0.1-0.8,0.1v0.3
		h4.1v-0.3c-0.4,0-0.7,0-0.9-0.1C228,139,227.9,138.9,227.8,138.7z"/>
	<path d="M236.9,131.9c-0.6-0.6-1.4-0.9-2.3-0.9c-1.1,0-2,0.4-2.8,1.2c-0.7,0.8-1.1,1.9-1.1,3.4c0,1.3,0.4,2.4,1.1,3.2
		c0.7,0.8,1.6,1.2,2.6,1.2c0.9,0,1.7-0.3,2.3-1c0.6-0.7,1-1.4,1.1-2.3l-0.3-0.2c-0.3,0.7-0.6,1.3-1,1.6c-0.4,0.3-0.9,0.5-1.4,0.5
		c-0.8,0-1.5-0.4-2.2-1.1s-0.9-1.7-0.9-2.9h5.8C237.9,133.3,237.6,132.5,236.9,131.9z M232.1,133.8c0.1-0.7,0.3-1.2,0.7-1.6
		c0.4-0.4,0.9-0.6,1.4-0.6c0.3,0,0.6,0.1,1,0.3c0.3,0.2,0.5,0.5,0.7,0.8c0.1,0.2,0.2,0.6,0.2,1.1H232.1z"/>
	<path d="M247.9,131.6c0,0-0.2,0-0.5,0h-1.8c-0.6-0.4-1.3-0.6-2.1-0.6c-1,0-1.8,0.3-2.4,0.9s-0.9,1.3-0.9,2.1c0,0.5,0.1,1,0.4,1.5
		c0.3,0.5,0.7,0.8,1.2,1.1c-0.6,0.5-1,0.9-1.2,1.2c-0.2,0.3-0.3,0.5-0.3,0.8c0,0.2,0.1,0.4,0.2,0.5c0.1,0.1,0.4,0.3,0.7,0.5
		c-0.6,0.6-0.9,0.9-0.9,1c-0.3,0.4-0.5,0.7-0.6,0.9c-0.1,0.1-0.1,0.3-0.1,0.4c0,0.3,0.2,0.6,0.7,1c0.8,0.5,1.8,0.8,3,0.8
		c1.5,0,2.8-0.4,3.7-1.3c0.6-0.6,1-1.3,1-1.9c0-0.5-0.2-0.9-0.5-1.3c-0.3-0.3-0.8-0.6-1.4-0.6c-0.4-0.1-1.2-0.1-2.4-0.1
		c-0.7,0-1.1,0-1.3-0.1c-0.3,0-0.5-0.1-0.6-0.2c-0.1-0.1-0.1-0.2-0.1-0.3c0-0.1,0-0.3,0.1-0.4c0.1-0.2,0.3-0.4,0.5-0.6
		c0.4,0.1,0.9,0.2,1.3,0.2c1,0,1.8-0.3,2.4-0.8c0.6-0.6,0.9-1.2,0.9-2c0-0.7-0.2-1.2-0.5-1.7h1.1c0.3,0,0.4,0,0.5,0
		c0,0,0.1,0,0.1-0.1c0-0.1,0-0.2,0-0.3C248,131.8,248,131.7,247.9,131.6C247.9,131.6,247.9,131.6,247.9,131.6z M241.7,139.6
		c0.7,0.1,1.8,0.2,3.2,0.2c0.9,0,1.6,0.1,1.9,0.2c0.3,0.1,0.5,0.4,0.5,0.7c0,0.4-0.3,0.9-0.8,1.2c-0.5,0.4-1.3,0.6-2.4,0.6
		c-1.2,0-2-0.2-2.6-0.6c-0.4-0.2-0.5-0.5-0.5-0.8c0-0.2,0.1-0.5,0.2-0.7S241.4,139.9,241.7,139.6z M244.8,135.9
		c-0.3,0.3-0.7,0.5-1.1,0.5c-0.5,0-0.9-0.2-1.2-0.6c-0.4-0.5-0.6-1.3-0.6-2.2c0-0.7,0.2-1.3,0.5-1.7c0.3-0.4,0.7-0.5,1.1-0.5
		c0.5,0,0.9,0.2,1.2,0.6c0.4,0.5,0.6,1.3,0.6,2.3C245.2,135,245.1,135.6,244.8,135.9z"/>
	<path d="M257.1,138.8c-0.1-0.2-0.1-0.5-0.1-1.1v-3.6c0-0.8-0.1-1.3-0.2-1.7c-0.2-0.5-0.5-0.9-0.8-1.1c-0.3-0.2-0.7-0.3-1.2-0.3
		c-0.9,0-1.8,0.6-2.8,1.8v-1.8h-0.4l-2.5,1l0.1,0.3c0.2-0.1,0.4-0.1,0.6-0.1c0.2,0,0.3,0,0.4,0.1c0.1,0.1,0.2,0.2,0.2,0.4
		c0,0.2,0.1,0.8,0.1,1.8v3.1c0,0.6-0.1,1-0.2,1.2c-0.1,0.2-0.4,0.3-0.9,0.3h-0.2v0.3h4.2v-0.3c-0.5,0-0.8,0-0.9-0.1
		c-0.2-0.1-0.3-0.2-0.4-0.4c-0.1-0.1-0.1-0.5-0.1-1.1v-4.4c0.7-0.8,1.4-1.2,2.2-1.2c0.5,0,0.8,0.2,1,0.5s0.3,0.9,0.3,1.7v3.4
		c0,0.5,0,0.8,0,0.9c-0.1,0.2-0.2,0.4-0.3,0.5c-0.2,0.1-0.4,0.2-0.8,0.2h-0.2v0.3h4.2v-0.3c-0.4,0-0.7,0-0.8-0.1
		C257.3,139,257.2,138.9,257.1,138.8z"/>
	<path d="M263.6,130.9c-0.7,0-1.4,0.2-2,0.5c-0.6,0.4-1.1,0.9-1.5,1.7c-0.4,0.8-0.6,1.5-0.6,2.3c0,1.1,0.3,2,0.9,2.9
		c0.7,1,1.8,1.5,3,1.5c0.8,0,1.5-0.2,2.1-0.6c0.6-0.4,1.1-1,1.5-1.7c0.4-0.8,0.5-1.5,0.5-2.3c0-1.1-0.3-2-1-2.8
		C265.9,131.4,264.9,130.9,263.6,130.9z M265.4,138.5c-0.4,0.5-0.9,0.7-1.5,0.7c-0.8,0-1.4-0.4-1.9-1.3c-0.5-0.9-0.7-1.9-0.7-3.2
		c0-0.8,0.1-1.4,0.3-1.9c0.2-0.5,0.5-0.8,0.8-1c0.3-0.2,0.7-0.3,1-0.3c0.7,0,1.2,0.3,1.7,0.9c0.6,0.9,1,2,1,3.5
		C265.9,137.1,265.7,138,265.4,138.5z"/>
	<rect x="364.3" y="-22.1" transform="matrix(0.5826 -0.8128 0.8128 0.5826 124.019 312.073)" width="3.1" height="114.9"/>
</g>
</svg>
