<?xml version="1.0" encoding="utf-8"?>
<!-- Generator: Adobe Illustrator 27.3.1, SVG Export Plug-In . SVG Version: 6.00 Build 0)  -->
<svg version="1.1" id="Layer_1" xmlns="http://www.w3.org/2000/svg" xmlns:xlink="http://www.w3.org/1999/xlink" x="0px" y="0px"
	 width="681.3px" height="151.6px" viewBox="0 0 681.3 151.6" style="enable-background:new 0 0 681.3 151.6;" xml:space="preserve"
	>
<path d="M32.7,33.1l3.5,25.3l11.5-19.1l-4.9,21.1l12.3-11.8l-6.4,15.6L59,56.4c-4.8,13-8.9,20.3-26.3,26.2l0,0l0,0
	C15.4,76.7,11.2,69.4,6.4,56.4l10.3,7.7l-6.4-15.6l12.3,11.8l-4.9-21.1l11.5,19.1L32.7,33.1L32.7,33.1z M14.5,24.6
	c5.3,0,8.5-2.9,8.5-7.6V5.8h-4.4V17c0,2.7-1.4,4.2-4.1,4.2c-2.6,0-4.1-1.5-4.1-4.2V5.8H6.2v11.3C6.2,21.8,9.3,24.6,14.5,24.6
	 M31,8.9h1.8c2.1,0,3.1,0.7,3.1,2.1c0,1.4-1.2,2.2-3.3,2.2H31V8.9z M31,16.2h1.8c1.7,0,3.8,0.5,3.8,2.6c0,2.1-2,2.5-3.7,2.5H31V16.2
	z M32.8,24.3c5.1,0,7.9-1.9,7.9-5.5c0-2.1-1.1-3.6-3.4-4.4c1.7-0.8,2.5-2.1,2.5-3.7c0-3.2-2.5-4.9-7-4.9h-6.2v18.5H32.8 M52.9,24.6
	c2.2,0,4.4-0.6,6.1-1.6l0.1-0.1l-0.6-3.5l-0.3,0.2c-1.7,1-3.4,1.5-5.1,1.5c-3.5,0-5.7-2.3-5.7-6.1c0-3.8,2.1-6.1,5.7-6.1
	c1.7,0,3.2,0.5,4.8,1.6l0.3,0.2l0.7-3.8l-0.1-0.1c-1.6-0.9-3.5-1.3-5.7-1.3c-6,0-10,3.9-10,9.6C43.1,20.9,47,24.6,52.9,24.6 M65.4,0
	v48.3c0,20.3-11.1,35-32.7,40.8C11.1,83.4,0,68.7,0,48.3V0H65.4z M62.9,48V2.5H2.5V48c0,19.2,9.8,32.7,30.2,38.5
	C53.1,80.8,62.9,67.3,62.9,48z M32.7,30.9c4.6,0,5.2,1.8,8.8,1.8c3.7,0,4.3-1.8,8.8-1.8c4.6,0,5.2,1.8,8.8,1.8v-4.2
	c-3.7,0-4.3-1.8-8.8-1.8c-4.6,0-5.2,1.8-8.8,1.8c-3.7,0-4.3-1.8-8.8-1.8c-4.6,0-5.2,1.8-8.8,1.8c-3.7,0-4.3-1.8-8.8-1.8
	c-4.6,0-5.2,1.8-8.8,1.8v4.2c3.7,0,4.3-1.8,8.8-1.8c4.6,0,5.2,1.8,8.8,1.8C27.5,32.7,28.1,30.9,32.7,30.9z M35.6,38.5
	c2.2,0.5,3.2,1.5,6,1.5c3.7,0,4.3-1.8,8.8-1.8c4.6,0,5.2,1.8,8.8,1.8v-4.2c-3.7,0-4.3-1.8-8.8-1.8c-4.6,0-5.2,1.8-8.8,1.8
	c-2.9,0-3.9-1.2-6.6-1.6L35.6,38.5z M23.8,40.1c2.7,0,3.8-1,6-1.5l0.6-4.3c-2.6,0.5-3.6,1.6-6.6,1.6c-3.7,0-4.3-1.8-8.8-1.8
	c-4.6,0-5.2,1.8-8.8,1.8v4.2c3.7,0,4.3-1.8,8.8-1.8C19.6,38.2,20.2,40.1,23.8,40.1z M36.6,46.2c1.2,0.4,2.2,0.9,3.7,1.1l2.5-4.3
	c-0.4,0.1-0.8,0.1-1.3,0.1c-2.5,0-3.6-0.8-5.5-1.4L36.6,46.2z M48.3,45.7c0.6-0.1,1.3-0.2,2.1-0.2c4.6,0,5.2,1.8,8.8,1.8v-4.2
	c-3.7,0-4.3-1.8-8.8-1.8c-0.4,0-0.7,0-1.1,0L48.3,45.7z M17.1,45.7l-1-4.3c-0.3,0-0.7,0-1.1,0c-4.6,0-5.2,1.8-8.8,1.8v4.2
	c3.7,0,4.3-1.8,8.8-1.8C15.8,45.6,16.5,45.7,17.1,45.7z M25.1,47.3c1.5-0.2,2.4-0.7,3.7-1.1l0.6-4.4c-1.9,0.5-3,1.4-5.5,1.4
	c-0.5,0-0.9,0-1.3-0.1L25.1,47.3z M104.9,24.3V10.8h5.3L109.7,8H96.7v2.9h5v13.5H104.9L104.9,24.3z M129.6,24.3V8h-3.2v6.4h-7V8
	h-3.2v16.3h3.2v-7h7v7H129.6L129.6,24.3z M149.3,24.3v-2.8h-7.3v-4.3h6.1l-0.5-2.8h-5.7v-3.6h7.1V8h-10.3v16.3H149.3L149.3,24.3z
	 M173.9,24.6c4.3,0,6.8-2.5,6.8-6.8V8h-3.2v9.9c0,2.6-1.2,4-3.6,4c-2.3,0-3.5-1.4-3.5-4.1V8h-3.2v10
	C167.2,22.1,169.7,24.6,173.9,24.6L173.9,24.6z M202.7,24.3V8h-2.9v11l-7.4-11h-3.1v16.3h2.9V12.9l7.8,11.5H202.7L202.7,24.3z
	 M215,24.3V8h-3.2v16.3H215L215,24.3z M230.5,24.6L237,8h-3.2l-4.6,12.4l-4.7-12.8l-3.2,0.7l6.3,16.2H230.5L230.5,24.6z M253.5,24.3
	v-2.8h-7.3v-4.3h6.1l-0.5-2.8h-5.7v-3.6h7.1V8H243v16.3H253.5L253.5,24.3z M270.9,24.5l3.3-0.7l-4.5-6.1c2.1-0.8,3.3-2.4,3.3-4.6
	c0-3.2-2.3-5.1-6.2-5.1h-5.1v16.3h3.2v-6.2h1.5L270.9,24.5L270.9,24.5z M264.7,15.6v-4.8h1.9c1.4,0,3.1,0.4,3.1,2.3
	c0,1.6-1.1,2.5-3.1,2.5H264.7L264.7,15.6z M285.8,24.5c3.6,0,6-2,6-5c0-2.7-1.7-3.8-4.9-5c-2.5-0.9-3.3-1.3-3.3-2.4
	c0-1,1.1-1.7,2.5-1.7c1.3,0,2.7,0.4,4.2,1.2l0.2,0.1l0.5-3l-0.1-0.1c-1.4-0.6-3.1-1-4.7-1c-3.3,0-5.5,2-5.5,4.8
	c0,2.6,1.7,3.7,5.2,4.9c2.3,0.8,3.1,1.3,3.1,2.5c0,1.2-1.2,2-3,2c-1.5,0-3.5-0.6-5.1-1.4l-0.2-0.1l-0.5,2.9l0.1,0
	C282.1,24.1,284,24.5,285.8,24.5L285.8,24.5z M302.9,24.3V8h-3.2v16.3H302.9L302.9,24.3z M317.3,24.3V10.8h5.3L322.2,8h-13.1v2.9h5
	v13.5H317.3L317.3,24.3z M333.8,24.3V18l6.1-10h-3.5l-4.1,7.1L328,7.7l-3.2,0.7l5.8,9.6v6.3H333.8L333.8,24.3z M360.3,24.6
	c3.9,0,7.8-2.9,7.8-8.5c0-5.6-3.9-8.5-7.8-8.5c-3.9,0-7.9,2.9-7.9,8.5C352.4,21.7,356.4,24.6,360.3,24.6L360.3,24.6z M360.3,10.4
	c2.7,0,4.6,2.4,4.6,5.7c0,3.4-1.9,5.7-4.6,5.7c-2.7,0-4.6-2.4-4.6-5.8C355.6,12.7,357.5,10.4,360.3,10.4L360.3,10.4z M378.6,24.3
	v-6.8h5.8l-0.5-2.8h-5.4v-3.9h6.9V8h-10v16.3H378.6L378.6,24.3z M408.2,24.3c4,0,6.2-1.7,6.2-4.9c0-1.8-0.9-3.1-2.8-3.8
	c1.4-0.7,2-1.9,2-3.4c0-2.7-2.1-4.2-5.5-4.2h-5.3v16.3H408.2L408.2,24.3z M405.8,21.7v-4.6h2.4c2.1,0,3.1,0.8,3.1,2.4
	c0,1.5-1,2.2-3.2,2.2H405.8L405.8,21.7z M405.8,14.5v-3.8h2.2c2.4,0,2.6,1,2.6,1.8c0,1.3-0.9,2-2.7,2H405.8L405.8,14.5z M431.4,24.5
	l3.3-0.7l-4.5-6.1c2.1-0.8,3.2-2.4,3.2-4.6c0-3.2-2.3-5.1-6.2-5.1h-5.1v16.3h3.2v-6.2h1.5L431.4,24.5L431.4,24.5z M425.3,15.6v-4.8
	h1.9c1.4,0,3.1,0.4,3.1,2.3c0,1.6-1.1,2.5-3.1,2.5H425.3L425.3,15.6z M444.9,24.3V8h-3.2v16.3H444.9L444.9,24.3z M459.3,24.3V10.8
	h5.3L464.2,8h-13.1v2.9h5v13.5H459.3L459.3,24.3z M473.6,24.3V8h-3.2v16.3H473.6L473.6,24.3z M486.8,24.5c3.6,0,6-2,6-5
	c0-2.7-1.7-3.8-4.9-5c-2.5-0.9-3.3-1.3-3.3-2.4c0-1,1.1-1.7,2.5-1.7c1.3,0,2.7,0.4,4.3,1.2l0.2,0.1l0.5-3l-0.1-0.1
	c-1.4-0.6-3.1-1-4.7-1c-3.3,0-5.5,2-5.5,4.8c0,2.6,1.7,3.7,5.2,4.9c2.3,0.8,3.1,1.3,3.1,2.5c0,1.2-1.2,2-3,2c-1.5,0-3.5-0.6-5.1-1.4
	l-0.2-0.1l-0.5,2.9l0.1,0C483.1,24.1,485.1,24.5,486.8,24.5L486.8,24.5z M513.2,24.3V8H510v6.4h-7V8h-3.2v16.3h3.2v-7h7v7H513.2
	L513.2,24.3z M537.8,24.6c1.8,0,3.5-0.5,5-1.5l0.1-0.1l-0.4-2.8l-0.2,0.1c-1.4,0.9-2.8,1.5-4.2,1.5c-2.9,0-4.8-2.2-4.8-5.8
	c0-3.6,1.8-5.8,4.7-5.8c1.4,0,2.7,0.5,4,1.4l0.2,0.2l0.5-3l-0.1-0.1c-1.3-0.9-2.8-1.3-4.7-1.3c-4.7,0-7.9,3.4-7.9,8.5
	C529.9,21.2,533.1,24.6,537.8,24.6L537.8,24.6z M556.5,24.6c3.9,0,7.8-2.9,7.8-8.5c0-5.6-3.9-8.5-7.8-8.5c-3.9,0-7.9,2.9-7.9,8.5
	C548.7,21.7,552.6,24.6,556.5,24.6L556.5,24.6z M556.5,10.4c2.7,0,4.6,2.4,4.6,5.7c0,3.4-1.9,5.7-4.6,5.7c-2.7,0-4.6-2.4-4.6-5.8
	C551.9,12.7,553.8,10.4,556.5,10.4L556.5,10.4z M581,24.3l-0.5-2.8h-6V8h-3.2v16.3H581L581,24.3z M593.3,24.6c4.3,0,6.8-2.5,6.8-6.8
	V8h-3.2v9.9c0,2.6-1.2,4-3.6,4c-2.3,0-3.5-1.4-3.5-4.1V8h-3.2v10C586.7,22.1,589.2,24.6,593.3,24.6L593.3,24.6z M619.1,24.4
	l4.4-12.4l0.9,12.3h3.2L626.3,8h-4.2l-4.3,12.5L613.5,8h-4.3l-1.3,16.3h2.9l0.9-12.3l4.4,12.4H619.1L619.1,24.4z M641.5,24.3
	c4,0,6.2-1.7,6.2-4.9c0-1.8-0.9-3.1-2.8-3.8c1.4-0.7,2-1.9,2-3.4c0-2.7-2.1-4.2-5.5-4.2h-5.3v16.3H641.5L641.5,24.3z M639.2,21.7
	v-4.6h2.4c2.1,0,3.1,0.8,3.1,2.4c0,1.5-1,2.2-3.2,2.2H639.2L639.2,21.7z M639.2,14.5v-3.8h2.2c2.4,0,2.6,1,2.6,1.8
	c0,1.3-0.9,2-2.7,2H639.2L639.2,14.5z M658.9,24.3V8h-3.2v16.3H658.9L658.9,24.3z M678.2,24.6l3.1-0.7l-6.4-16.1h-3.4l-6.4,16.5h3.1
	l1.5-4h6.9L678.2,24.6L678.2,24.6z M670.8,17.5l2.4-6.4c0.9,2.4,2.1,5.6,2.4,6.4H670.8L670.8,17.5z M117.7,79.4c0-5-2.4-7.3-9.1-10
	c-4.5-1.9-5.5-2.9-5.5-4.9c0-2,1.4-3.5,4.4-3.5c2.5,0,5.3,1,7.6,2.5l0.9-5.6c-2.3-1.2-4.9-2-8.5-2c-6,0-10.4,3.3-10.4,9
	c0,5,2.5,7.1,8.8,9.6c4.7,2,5.8,3,5.8,5.4c0,2.6-2,3.9-4.8,3.9c-3.2,0-6.6-1.3-9.3-2.9l-0.9,5.7c2.9,1.4,6.2,2.2,10.2,2.2
	C113,89,117.7,85.7,117.7,79.4z M140.9,86.9l-0.7-4.8c-2.1,1.6-4,2.2-5.9,2.2c-3.3,0-5.9-2.2-5.9-6.9c0-4.5,2.3-6.9,5.7-6.9
	c2.2,0,4,0.7,5.9,2.1l0.8-5.1c-1.6-1-4-1.9-6.9-1.9c-6.1,0-11.1,4-11.1,11.9c0,7.4,4.4,11.6,10.7,11.6
	C136.4,89,138.7,88.3,140.9,86.9z M166,88.6V72.3c0-4.2-2.2-6.8-6.5-6.8c-3,0-5.3,1.6-7.2,3.3v-14l-5.6,0.9v32.9h5.6V73.3
	c1.6-1.7,3.4-2.9,5.2-2.9c2.1,0,2.9,1.4,2.9,3.3v14.8H166z M193,77.3c0-7.4-4.5-11.8-10.7-11.8c-6.1,0-10.6,4.4-10.6,11.8
	c0,7.4,4.4,11.8,10.6,11.8C188.5,89.1,193,84.7,193,77.3z M187.6,77.3c0,4.2-1.8,7.2-5.2,7.2c-3.3,0-5.1-3-5.1-7.2
	c0-4.2,1.8-7.2,5.1-7.2C185.7,70.1,187.6,73.2,187.6,77.3z M219.1,77.3c0-7.4-4.5-11.8-10.7-11.8c-6.1,0-10.6,4.4-10.6,11.8
	c0,7.4,4.4,11.8,10.6,11.8C214.5,89.1,219.1,84.7,219.1,77.3z M213.6,77.3c0,4.2-1.8,7.2-5.2,7.2c-3.3,0-5.1-3-5.1-7.2
	c0-4.2,1.8-7.2,5.1-7.2C211.7,70.1,213.6,73.2,213.6,77.3z M230.6,88.6V54.8l-5.6,0.9v32.9H230.6z M270.9,77.3
	c0-7.4-4.5-11.8-10.7-11.8c-6.1,0-10.6,4.4-10.6,11.8c0,7.4,4.4,11.8,10.6,11.8C266.4,89.1,270.9,84.7,270.9,77.3z M265.4,77.3
	c0,4.2-1.8,7.2-5.2,7.2c-3.3,0-5.1-3-5.1-7.2c0-4.2,1.8-7.2,5.1-7.2C263.6,70.1,265.4,73.2,265.4,77.3z M288.7,59.9l-0.7-4.6
	c-0.7-0.1-1.5-0.1-2.3-0.1c-4.6,0-7.8,1.8-7.8,6.8V66h-3.3v4.6h3.3v18h5.6v-18h5l-0.7-4.6h-4.3v-3.5c0-2,1-2.8,3-2.8
	C287.3,59.7,288.2,59.8,288.7,59.9z M304.2,88.6h6.2l2.8-8.2h12.2l3.1,8.5l6.2-1.1l-11.8-31.7h-6.6L304.2,88.6z M319.4,62.9
	l4.4,12.5h-8.8L319.4,62.9z M353.5,71.1l-0.9-5.6c-3.5,0.2-5.8,2.4-7.3,5l-0.7-4.5h-4.8v22.6h5.6v-13
	C347.1,73.2,350,71.3,353.5,71.1z M374.3,86.9l-0.7-4.8c-2.1,1.6-4,2.2-5.9,2.2c-3.3,0-5.9-2.2-5.9-6.9c0-4.5,2.3-6.9,5.7-6.9
	c2.2,0,4,0.7,5.9,2.1l0.8-5.1c-1.6-1-4-1.9-6.9-1.9c-6.1,0-11.1,4-11.1,11.9c0,7.4,4.4,11.6,10.7,11.6
	C369.8,89,372.1,88.3,374.3,86.9z M399.4,88.6V72.3c0-4.2-2.2-6.8-6.5-6.8c-3,0-5.3,1.6-7.2,3.3v-14l-5.6,0.9v32.9h5.6V73.3
	c1.6-1.7,3.4-2.9,5.2-2.9c2.1,0,2.9,1.4,2.9,3.3v14.8H399.4z M412.5,59c0-1.9-1.5-3.3-3.3-3.3c-1.9,0-3.4,1.4-3.4,3.3
	c0,1.9,1.5,3.2,3.4,3.2C411,62.2,412.5,60.9,412.5,59z M412,88.6V66h-5.6v22.6H412z M431.1,88.6l-0.7-4.7c-0.5,0.1-1.1,0.2-1.8,0.2
	c-2.2,0-3-1-3-2.8V70.6h5.3l-0.7-4.6h-4.6v-8l-5.5,0.8V66H417v4.6h3.2v11.6c0,5.2,3,6.8,7.4,6.8C429.2,89,430.3,88.8,431.1,88.6z
	 M455.1,86.3l-0.7-4.4c-2.5,1.7-4.9,2.8-7.8,2.8c-3.5,0-5.9-1.9-6.1-6.3h14.6c0-0.3,0-0.9,0-1.4c0-6.4-3-11.5-9.8-11.5
	c-5.9,0-10.3,4.4-10.3,11.8c0,8.1,4.7,11.8,11.1,11.8C449.8,89.1,452.7,88,455.1,86.3z M445.2,69.4c2.7,0,4.1,2,4.5,5.5h-9
	C441.1,71.2,443,69.4,445.2,69.4z M478.2,86.9l-0.7-4.8c-2.1,1.6-4,2.2-5.9,2.2c-3.3,0-5.9-2.2-5.9-6.9c0-4.5,2.3-6.9,5.7-6.9
	c2.2,0,4,0.7,5.9,2.1l0.8-5.1c-1.6-1-4-1.9-6.9-1.9c-6.1,0-11.1,4-11.1,11.9c0,7.4,4.4,11.6,10.7,11.6
	C473.7,89,476.1,88.3,478.2,86.9z M495.9,88.6l-0.7-4.7c-0.5,0.1-1.1,0.2-1.8,0.2c-2.2,0-3-1-3-2.8V70.6h5.3L495,66h-4.6v-8
	l-5.5,0.8V66h-3.2v4.6h3.2v11.6c0,5.2,3,6.8,7.4,6.8C494,89,495,88.8,495.9,88.6z M520.4,88.6V66h-5.6v15.3
	c-1.6,1.7-3.4,2.8-5.2,2.8c-2,0-2.9-1.3-2.9-3.3V66h-5.6v16.3c0,4.3,2.2,6.8,6.5,6.8c3,0,5.4-1.6,7.5-3.7l0.5,3.2H520.4z M541,71.1
	l-0.9-5.6c-3.5,0.2-5.8,2.4-7.3,5l-0.7-4.5h-4.8v22.6h5.6v-13C534.6,73.2,537.5,71.3,541,71.1z M563.6,86.3l-0.7-4.4
	c-2.5,1.7-4.9,2.8-7.8,2.8c-3.5,0-5.9-1.9-6.1-6.3h14.6c0-0.3,0-0.9,0-1.4c0-6.4-3-11.5-9.8-11.5c-5.9,0-10.3,4.4-10.3,11.8
	c0,8.1,4.7,11.8,11.1,11.8C558.3,89.1,561.2,88,563.6,86.3z M553.7,69.4c2.7,0,4.1,2,4.5,5.5h-9C549.6,71.2,551.5,69.4,553.7,69.4z
	 M118.8,123.2v-4.5h-8.5v-8.8h-4.7v8.8h-8.5v4.5h8.5v8.8h4.7v-8.8H118.8z M152.2,136.8l-0.8-5.5h-10.8v-26.8h-6.2v32.3H152.2z
	 M175.7,136.8v-15.5c0-5.4-2.9-7.6-8.8-7.6c-3.6,0-6.4,0.8-9,1.8l0.7,4.5c2.4-1.1,4.9-1.8,7.5-1.8c2.5,0,3.9,0.9,3.9,3.4v0.7
	c-9.1,0.9-13.6,3.3-13.6,8.8c0,3.9,2.6,6.3,6.4,6.3c3.4,0,5.7-1.5,7.5-3.4l0.5,3H175.7z M170.1,130.6c-1.5,1.5-3.4,2.4-5.3,2.4
	c-1.7,0-2.8-1-2.8-2.6c0-2.2,1.5-4.1,8.1-4.9V130.6z M201.9,136.8v-16.3c0-4.2-2.2-6.8-6.5-6.8c-3,0-5.4,1.6-7.5,3.7l-0.5-3.2h-4.8
	v22.6h5.6v-15.3c1.6-1.7,3.4-2.9,5.2-2.9c2.1,0,2.9,1.4,2.9,3.3v14.8H201.9z M228.5,136.8V103l-5.6,0.9v10.9
	c-1.4-0.5-3.1-0.8-5.2-0.8c-5.2,0-9.9,3.7-9.9,12.2c0,7.6,3.8,11.1,8.5,11.1c3.1,0,5.3-1.7,6.9-3.6l0.5,3.1H228.5z M222.9,129.2
	c-1.5,1.9-3.1,3.1-5.2,3.1c-2.5,0-4.4-2.1-4.4-6.5c0-5,2.2-7.4,5.1-7.4c1.9,0,3,0.3,4.4,1V129.2z M252.4,130.2
	c0-4.3-2.3-5.9-8.1-7.4c-3.4-0.9-4.2-1.6-4.2-2.8c0-1.2,1-2.1,3.1-2.1c2.2,0,4.9,0.8,7.2,2.1l0.7-4.7c-2.2-1-5-1.6-7.9-1.6
	c-5.2,0-8.3,2.8-8.3,6.7c0,4.1,2.3,5.7,7.8,7.1c3.6,0.9,4.6,1.5,4.6,3.1c0,1.5-1.3,2.4-3.7,2.4c-2.8,0-5.8-1.1-8.2-2.7l-0.7,4.7
	c2.2,1.2,5.5,2.2,8.8,2.2C249.2,137.3,252.4,134.6,252.4,130.2z M275.1,135.1l-0.7-4.8c-2.1,1.6-4,2.2-5.9,2.2
	c-3.3,0-5.9-2.2-5.9-6.9c0-4.5,2.3-6.9,5.7-6.9c2.2,0,4,0.7,5.9,2.1l0.8-5.1c-1.6-1-4-1.9-6.9-1.9c-6.1,0-11.1,4-11.1,11.9
	c0,7.4,4.4,11.6,10.7,11.6C270.6,137.2,273,136.5,275.1,135.1z M298.8,136.8v-15.5c0-5.4-2.9-7.6-8.8-7.6c-3.6,0-6.4,0.8-9,1.8
	l0.7,4.5c2.4-1.1,4.9-1.8,7.5-1.8c2.5,0,3.9,0.9,3.9,3.4v0.7c-9.1,0.9-13.6,3.3-13.6,8.8c0,3.9,2.6,6.3,6.4,6.3
	c3.4,0,5.7-1.5,7.5-3.4l0.5,3H298.8z M293.2,130.6c-1.5,1.5-3.4,2.4-5.3,2.4c-1.7,0-2.8-1-2.8-2.6c0-2.2,1.5-4.1,8.1-4.9V130.6z
	 M326.4,124.9c0-7.6-3.8-11.1-8.5-11.1c-3.1,0-5.3,1.7-6.9,3.6l-0.5-3.1h-4.8v31.3l5.6-0.8v-8.5c1.4,0.5,3.1,0.9,5.2,0.9
	C321.8,137.1,326.4,133.3,326.4,124.9z M320.8,125.2c0,5-2.2,7.4-5.1,7.4c-1.9,0-3-0.3-4.4-1v-9.7c1.5-1.9,3.1-3.2,5.1-3.2
	C318.9,118.7,320.8,120.8,320.8,125.2z M351.4,134.5l-0.7-4.4c-2.5,1.7-4.9,2.8-7.8,2.8c-3.5,0-5.9-1.9-6.1-6.3h14.6
	c0-0.3,0-0.9,0-1.4c0-6.4-3-11.5-9.8-11.5c-5.9,0-10.3,4.4-10.3,11.8c0,8.1,4.7,11.8,11.1,11.8C346,137.3,348.9,136.2,351.4,134.5z
	 M341.4,117.6c2.7,0,4.1,2,4.5,5.5h-9C337.3,119.4,339.2,117.6,341.4,117.6z M368.3,136.8h6.2l2.8-8.2h12.2l3.1,8.5l6.2-1.1
	L387,104.4h-6.6L368.3,136.8z M383.5,111.1l4.4,12.5H379L383.5,111.1z M417.7,119.3l-0.9-5.6c-3.5,0.2-5.8,2.4-7.3,5l-0.7-4.5H404
	v22.6h5.6v-13C411.2,121.4,414.1,119.5,417.7,119.3z M438.4,135.1l-0.7-4.8c-2.1,1.6-4,2.2-5.9,2.2c-3.3,0-5.9-2.2-5.9-6.9
	c0-4.5,2.3-6.9,5.7-6.9c2.2,0,4,0.7,5.9,2.1l0.8-5.1c-1.6-1-4-1.9-6.9-1.9c-6.1,0-11.1,4-11.1,11.9c0,7.4,4.4,11.6,10.7,11.6
	C433.9,137.2,436.2,136.5,438.4,135.1z M463.5,136.8v-16.3c0-4.2-2.2-6.8-6.5-6.8c-3,0-5.3,1.6-7.2,3.3v-14l-5.6,0.9v32.9h5.6v-15.3
	c1.6-1.7,3.4-2.9,5.2-2.9c2.1,0,2.9,1.4,2.9,3.3v14.8H463.5z M476.7,107.2c0-1.9-1.5-3.3-3.3-3.3c-1.9,0-3.4,1.4-3.4,3.3
	c0,1.9,1.5,3.2,3.4,3.2C475.2,110.4,476.7,109.1,476.7,107.2z M476.1,136.8v-22.6h-5.6v22.6H476.1z M495.3,136.8l-0.7-4.7
	c-0.5,0.1-1.1,0.2-1.8,0.2c-2.2,0-3-1-3-2.8v-10.7h5.3l-0.7-4.6h-4.6v-8l-5.5,0.8v7.2h-3.2v4.6h3.2v11.6c0,5.2,3,6.8,7.4,6.8
	C493.3,137.2,494.4,137,495.3,136.8z M519.3,134.5l-0.7-4.4c-2.5,1.7-4.9,2.8-7.8,2.8c-3.5,0-5.9-1.9-6.1-6.3h14.6
	c0-0.3,0-0.9,0-1.4c0-6.4-3-11.5-9.8-11.5c-5.9,0-10.3,4.4-10.3,11.8c0,8.1,4.7,11.8,11.1,11.8C513.9,137.3,516.8,136.2,519.3,134.5
	z M509.3,117.6c2.7,0,4.1,2,4.5,5.5h-9C505.2,119.4,507.1,117.6,509.3,117.6z M542.3,135.1l-0.7-4.8c-2.1,1.6-4,2.2-5.9,2.2
	c-3.3,0-5.9-2.2-5.9-6.9c0-4.5,2.3-6.9,5.7-6.9c2.2,0,4,0.7,5.9,2.1l0.8-5.1c-1.6-1-4-1.9-6.9-1.9c-6.1,0-11.1,4-11.1,11.9
	c0,7.4,4.4,11.6,10.7,11.6C537.8,137.2,540.2,136.5,542.3,135.1z M560,136.8l-0.7-4.7c-0.5,0.1-1.1,0.2-1.8,0.2c-2.2,0-3-1-3-2.8
	v-10.7h5.3l-0.7-4.6h-4.6v-8L549,107v7.2h-3.2v4.6h3.2v11.6c0,5.2,3,6.8,7.4,6.8C558.1,137.2,559.1,137,560,136.8z M584.5,136.8
	v-22.6h-5.6v15.3c-1.6,1.7-3.4,2.8-5.2,2.8c-2,0-2.9-1.3-2.9-3.3v-14.8h-5.6v16.3c0,4.3,2.2,6.8,6.5,6.8c3,0,5.4-1.6,7.5-3.7
	l0.5,3.2H584.5z M605.1,119.3l-0.9-5.6c-3.5,0.2-5.8,2.4-7.3,5l-0.7-4.5h-4.8v22.6h5.6v-13C598.7,121.4,601.6,119.5,605.1,119.3z
	 M627.8,134.5l-0.7-4.4c-2.5,1.7-4.9,2.8-7.8,2.8c-3.5,0-5.9-1.9-6.1-6.3h14.6c0-0.3,0-0.9,0-1.4c0-6.4-3-11.5-9.8-11.5
	c-5.9,0-10.3,4.4-10.3,11.8c0,8.1,4.7,11.8,11.1,11.8C622.4,137.3,625.3,136.2,627.8,134.5z M617.8,117.6c2.7,0,4.1,2,4.5,5.5h-9
	C613.7,119.4,615.6,117.6,617.8,117.6z"/>
</svg>
