<?xml version="1.0" encoding="utf-8"?>
<!-- Generator: Adobe Illustrator 27.3.1, SVG Export Plug-In . SVG Version: 6.00 Build 0)  -->
<svg version="1.1" id="Layer_1" xmlns="http://www.w3.org/2000/svg" xmlns:xlink="http://www.w3.org/1999/xlink" x="0px" y="0px"
	 width="681.3px" height="635.1px" viewBox="0 0 681.3 635.1" style="enable-background:new 0 0 681.3 635.1;" xml:space="preserve"
	>
<path d="M411.9,414.6c-3.4,0-4.1-4.9-4.1-10.8s0.6-10.9,4.1-10.9c3.5,0,4.1,5,4.1,11C416,409.7,415.4,414.6,411.9,414.6z M234,351.2
	c2.7,0,4.5-2.2,4.5-5.1c0-2.9-1.2-4.8-4.6-7.6c-3.3,2.6-4.5,4.6-4.5,7.5C229.4,348.7,231.3,351.2,234,351.2z M397.7,456.4
	c-2.9,0-4.8,4-4.7,9.8l8.9-1.1C401.8,459.6,400.6,456.4,397.7,456.4z M496.5,565.2c0,2.6,1.3,4.1,3.7,4.1c0.9,0,1.7-0.2,2.2-0.4
	v-9.3C498.4,560.2,496.5,561.5,496.5,565.2z M234.3,331c3.1-2.6,4.1-4.2,4.1-6.7c0-2.5-1.8-4.5-4.1-4.5c-2.4,0-4,2-4,4.6
	C230.3,326.7,231.2,328.3,234.3,331z M279.9,551.4c-2.3,0-3.8,3.1-3.7,7.7l7-0.9C283.1,553.8,282.2,551.4,279.9,551.4z M266.1,452.2
	h-0.1c0,0-0.5,2.8-1.1,5.4l-2.9,12h7.8l-2.7-12C266.5,455.2,266.1,452.2,266.1,452.2z M350,565.2c0,2.6,1.3,4.1,3.7,4.1
	c0.9,0,1.7-0.2,2.2-0.4v-9.3C351.9,560.2,350,561.5,350,565.2z M330.2,551.3c-0.8,0-1.3,0.1-1.8,0.3v17.2c0.4,0.1,1,0.2,1.5,0.2
	c3.7,0,4.6-4.7,4.6-8.8C334.5,555.7,333.6,551.3,330.2,551.3z M270.5,392.7c-2.9,0-4.8,4-4.7,9.8l8.9-1.1
	C274.6,395.9,273.4,392.7,270.5,392.7z M342,410.4c0,3.3,1.6,5.2,4.7,5.2c1.1,0,2.2-0.3,2.8-0.5v-11.8
	C344.5,403.9,342,405.6,342,410.4z M333.9,350.9c3.5,0,4.1-4.9,4.1-10.8c0-6-0.6-11-4.1-11c-3.5,0-4.1,5-4.1,10.9
	S330.5,350.9,333.9,350.9z M404.8,551.5c-2.7,0-3.2,3.9-3.2,8.6c0,4.7,0.5,8.5,3.2,8.5c2.8,0,3.2-3.8,3.2-8.4
	C408.1,555.4,407.6,551.5,404.8,551.5z M465.1,410.4c0,3.3,1.6,5.2,4.7,5.2c1.1,0,2.2-0.3,2.8-0.5v-11.8
	C467.6,403.9,465.1,405.6,465.1,410.4z M202.8,467.5c0,7,1.6,11.2,5.6,11.2c0.7,0,1.6,0,2.2-0.4v-21.8c-0.5-0.1-1.2-0.2-1.9-0.2
	C204.1,456.3,202.8,461.3,202.8,467.5z M503.9,474.1c0,3.3,1.6,5.2,4.7,5.2c1.1,0,2.2-0.3,2.8-0.5V467
	C506.4,467.7,503.9,469.4,503.9,474.1z M593.2,565.2c0,2.6,1.3,4.1,3.7,4.1c0.9,0,1.7-0.2,2.2-0.4v-9.3
	C595.1,560.2,593.2,561.5,593.2,565.2z M225.4,565.2c0,2.6,1.3,4.1,3.7,4.1c0.9,0,1.7-0.2,2.2-0.4v-9.3
	C227.3,560.2,225.4,561.5,225.4,565.2z M512.7,392.7c-2.9,0-4.8,4-4.7,9.8l8.9-1.1C516.8,395.9,515.6,392.7,512.7,392.7z
	 M415.5,346.7c0,3.3,1.6,5.2,4.7,5.2c1.1,0,2.2-0.3,2.8-0.5v-11.8C418,340.2,415.5,341.9,415.5,346.7z M682.1,103.4v529.8H154.9
	V103.4H682.1z M500.6,403.9c0,10.7,4.6,17,13.2,17c4.4,0,7.6-1,9.6-2.4l-1.8-5.5c-1.3,0.8-3.5,1.7-6.9,1.7c-3.9,0-5.9-2.4-6.4-7.1
	l16.1-2c0.6-11.5-3.4-18.6-11.6-18.6C505.1,387,500.6,394.1,500.6,403.9z M511.5,461.2v1.1c-8.7,1.2-14.9,3.8-14.9,12.1
	c0,6.5,3.9,10.2,11.8,10.2c5.1,0,8.4-0.9,10.7-2.4v-19.5c0-9-4.6-12-10.7-12c-4.9,0-8.2,1.4-10.1,2.4l1.6,5.2
	c1.8-0.9,4.2-1.7,6.9-1.7C509.6,456.6,511.5,458.1,511.5,461.2z M486.8,420.3h7.9v-47.6h-7.9V420.3z M472.7,397.5v1.1
	c-8.7,1.2-14.9,3.8-14.9,12.1c0,6.5,3.9,10.2,11.8,10.2c5.1,0,8.4-0.9,10.7-2.4V399c0-9-4.6-12-10.7-12c-4.9,0-8.2,1.4-10.1,2.4
	l1.6,5.2c1.8-0.9,4.2-1.7,6.9-1.7C470.8,392.9,472.7,394.4,472.7,397.5z M440.8,387c-5,0-8.7,1-11.3,2.4v30.9h7.8v-26.9
	c0.8-0.4,1.6-0.6,3.3-0.6c2.8,0,3.9,1.6,3.9,4.4v23.1h7.9v-23.1C452.5,390.3,448.8,387,440.8,387z M423,333.7v1.1
	c-8.7,1.2-14.9,3.8-14.9,12.1c0,6.5,3.9,10.2,11.8,10.2c5.1,0,8.4-0.9,10.7-2.4v-19.5c0-9-4.6-12-10.7-12c-4.9,0-8.2,1.4-10.1,2.4
	l1.6,5.2c1.8-0.9,4.2-1.7,6.9-1.7C421.2,329.2,423,330.7,423,333.7z M393.4,471.3l16.1-2c0.6-11.5-3.4-18.6-11.6-18.6
	c-7.8,0-12.2,7-12.2,16.9c0,10.7,4.6,17,13.2,17c4.4,0,7.6-1,9.6-2.4l-1.8-5.5c-1.3,0.8-3.5,1.7-6.9,1.7
	C396,478.4,393.9,476,393.4,471.3z M394.1,420.3v-32.7h-7.9v32.7H394.1z M411.9,420.9c8.1,0,11.9-7.3,11.9-17
	c0-9.7-3.9-16.9-11.9-16.9c-8,0-11.9,7.2-11.9,16.9C399.9,413.7,403.8,420.9,411.9,420.9z M392.3,356.6h7.8v-26.9
	c1.5-0.7,3.6-0.8,5.4,0.1l1.5-6.4c-7.5-0.4-11.7,0.6-14.7,2.4V356.6z M390.1,373.8c-2.3,0-4.2,1.9-4.2,4.2c0,2.3,1.9,4.2,4.2,4.2
	c2.4,0,4.3-1.9,4.3-4.2C394.4,375.7,392.4,373.8,390.1,373.8z M360.2,347.8c0,1.8-1.3,3-3.4,3c-2.1,0-4.1-1-5-1.8l-1.9,5.8
	c1.9,1.6,4.4,2.4,8.1,2.4c6.1,0,10.5-4.1,10.5-9.7c0-4.8-2.4-7.2-5.8-9.7c-2.9-2.1-4.4-3.4-4.4-5.5c0-1.6,1.2-3.1,3.2-3.1
	c2,0,3.5,0.9,4.3,1.6l1.9-5c-1.9-1.5-4.5-2.4-8-2.4c-5.5,0-9.2,3.9-9.2,9.5c0,4.3,2.7,7.2,5.8,9.5
	C359.2,344.5,360.2,345.5,360.2,347.8z M372,414.4l9.1-26.8h-18.6v5.9h8.8l-9.5,26.8h19.4v-5.9H372z M346.4,387
	c-4.9,0-8.2,1.4-10.1,2.4l1.6,5.2c1.8-0.9,4.2-1.7,6.9-1.7c2.9,0,4.7,1.5,4.7,4.6v1.1c-8.7,1.2-14.9,3.8-14.9,12.1
	c0,6.5,3.9,10.2,11.8,10.2c5.1,0,8.4-0.9,10.7-2.4V399C357.1,390.1,352.5,387,346.4,387z M339.1,461v23h7.9v-23
	c0-6.4-3.4-10.2-9.4-10.2c-2.2,0-4.1,0.5-5.8,1.5v-15.9h-7.8V484h7.8v-26.7c1.1-0.6,2.1-0.8,3.4-0.8
	C337.7,456.5,339.1,458.1,339.1,461z M321.9,340.3c0,9.7,3.9,17,11.9,17c8.1,0,11.9-7.3,11.9-17c0-9.7-3.9-16.9-11.9-16.9
	C325.9,323.3,321.9,330.5,321.9,340.3z M280.3,356.6h7.3l1.6-23.8c0.1-2.1,0.1-4.6,0.1-4.6h0.1c0,0,0.5,2.5,1,4.7l6.2,23.7h3.9
	l6.1-23.7c0.5-2.2,1.1-4.7,1.1-4.7h0.1c0,0,0,2.5,0.1,4.7l1.6,23.7h7.8l-3.7-41.7h-7.6l-6.3,23.3c-0.6,2.2-1,4.6-1,4.6h-0.1
	c0,0-0.4-2.4-1-4.6l-6.1-23.2h-7.7L280.3,356.6z M288,389.4v30.9h7.8v-26.9c1.5-0.7,3.6-0.8,5.4,0.1l1.5-6.4
	C295.2,386.7,291,387.7,288,389.4z M258.4,403.9c0,10.7,4.6,17,13.2,17c4.4,0,7.6-1,9.6-2.4l-1.8-5.5c-1.3,0.8-3.5,1.7-6.9,1.7
	c-3.9,0-5.9-2.4-6.4-7.1l16.1-2c0.6-11.5-3.4-18.6-11.6-18.6C262.9,387,258.4,394.1,258.4,403.9z M270.3,442.3h-7.5L251.3,484h7.2
	l2.2-8.9H271l2.2,8.9h8.5L270.3,442.3z M250.8,352.1c0,2.7,2.2,5,5,5c2.7,0,5-2.2,5-5c0-2.7-2.2-5-5-5
	C253,347.1,250.8,349.3,250.8,352.1z M229.5,334.8c-4.2,3.2-6.8,6.4-6.8,11.3c0,6.9,5,11,11.5,11c6.4,0,11.6-4.3,11.6-11
	c0-5.1-2.8-8.3-7.2-11.8c4.1-3.3,6.1-5.5,6.1-10c0-6.3-5-10.1-10.6-10.1c-5.6,0-10.5,3.9-10.5,10.1
	C223.7,328.9,225.6,331.5,229.5,334.8z M195.9,321.2l0.8,4.8c3.5-0.2,6.7-0.8,8.3-1.6v32.2h7.9v-41.7h-5.8
	C206.1,317.3,201.9,320.4,195.9,321.2z M196.4,378.6v41.7h8.3v-41.7H196.4z M217.6,550.3c0-6.1-3-10.5-10.7-10.5
	c-3.5,0-6.5,0.8-8.4,1.9v31.4h6.5v-12.5l0.7,0C214.2,561.1,217.6,556.4,217.6,550.3z M218.5,436.4h-7.9v15.2
	c-0.8-0.3-1.9-0.6-3.8-0.6c-6.9,0-11.8,6.4-11.8,16.9c0,10.9,4.8,16.7,13.2,16.7c4.9,0,7.9-0.9,10.3-2.4V436.4z M219.4,393.4
	c0.9-0.4,1.6-0.6,3.3-0.6c2.8,0,3.9,1.6,3.9,4.4v23.1h7.9v-23.1c0-6.9-3.7-10.2-11.7-10.2c-5,0-8.7,1-11.3,2.4v30.9h7.8V393.4z
	 M233.3,441.7c0-2.4-1.9-4.2-4.3-4.2c-2.3,0-4.2,1.9-4.2,4.2c0,2.3,1.9,4.2,4.2,4.2C231.4,446,233.3,444.1,233.3,441.7z
	 M225.1,451.3V484h7.9v-32.7H225.1z M237.2,556.3c0-7.1-3.6-9.4-8.4-9.4c-3.9,0-6.4,1.1-7.9,1.9l1.3,4.1c1.4-0.7,3.3-1.3,5.4-1.3
	c2.2,0,3.7,1.1,3.7,3.6v0.9c-6.9,0.9-11.7,3-11.7,9.5c0,5.1,3.1,8.1,9.2,8.1c4,0,6.6-0.7,8.4-1.9V556.3z M239.7,393.5h2.9v17.8
	c0,5.8,2.9,9.4,8.2,9.4c1.8,0,3.5-0.5,3.9-0.8v-5.6c-0.4,0.1-0.9,0.3-1.6,0.3c-1.6,0-2.7-1-2.7-4.1v-17h4.3v-5.9h-4.3V378l-7.9,2.5
	v7.1h-2.9V393.5z M253.9,546.9c-5.9-0.3-9.2,0.5-11.5,1.9v24.3h6.1v-21.2c1.2-0.6,2.8-0.6,4.2,0.1L253.9,546.9z M267.6,547.4h-3.4
	v-7.5l-6.2,2v5.6h-2.3v4.6h2.3v14c0,4.5,2.3,7.4,6.5,7.4c1.4,0,2.7-0.4,3.1-0.7v-4.4c-0.3,0.1-0.7,0.2-1.3,0.2
	c-1.3,0-2.1-0.8-2.1-3.2V552h3.4V547.4z M280,546.9c-6.1,0-9.6,5.5-9.6,13.2c0,8.4,3.6,13.4,10.4,13.4c3.4,0,6-0.8,7.6-1.9l-1.4-4.3
	c-1,0.6-2.8,1.3-5.4,1.3c-3.1,0-4.7-1.9-5.1-5.6l12.6-1.6C289.7,552.4,286.5,546.9,280,546.9z M293,457.1c1.5-0.7,3.6-0.8,5.4,0.1
	l1.5-6.4c-7.5-0.4-11.7,0.6-14.7,2.4V484h7.8V457.1z M307.2,571.6l-1.3-4.2c-0.6,0.6-1.4,1-2.7,1c-2.5,0-4-3.1-4-8.3
	c0-5.1,1.3-8.3,4.1-8.3c1.3,0,2.1,0.5,2.6,1l1.2-3.9c-1-1-2.6-1.9-5.3-1.9c-4.9,0-8.9,4.5-8.9,13.2c0,8.8,3.6,13.4,8.9,13.4
	C304.8,573.5,306.3,572.7,307.2,571.6z M317,547.4h-6.2v25.7h6.2V547.4z M317.3,539.8c0-1.9-1.5-3.3-3.4-3.3c-1.8,0-3.3,1.5-3.3,3.3
	c0,1.8,1.5,3.3,3.3,3.3C315.7,543.2,317.3,541.6,317.3,539.8z M319.6,482.2l-1.6-5.3c-0.7,0.7-1.8,1.2-3.5,1.2
	c-3.2,0-5.1-4-5.1-10.6c0-6.4,1.7-10.6,5.2-10.6c1.6,0,2.7,0.6,3.3,1.2l1.6-4.9c-1.2-1.3-3.3-2.4-6.8-2.4c-6.2,0-11.3,5.8-11.3,16.9
	c0,11.2,4.6,17,11.3,17C316.5,484.6,318.4,483.5,319.6,482.2z M321.5,397.2v23.1h7.9v-23.1c0-6.9-3.7-10.2-11.7-10.2
	c-5,0-8.7,1-11.3,2.4v30.9h7.8v-26.9c0.9-0.4,1.6-0.6,3.3-0.6C320.3,392.8,321.5,394.4,321.5,397.2z M340.7,560.1
	c0-8.8-4-13.2-10.6-13.2c-3.4,0-6.1,0.8-7.9,1.9v34.5h6.2v-10.4c0.6,0.2,1.4,0.5,3,0.5C336.9,573.4,340.7,568.3,340.7,560.1z
	 M361.8,556.3c0-7.1-3.6-9.4-8.4-9.4c-3.9,0-6.4,1.1-7.9,1.9l1.3,4.1c1.4-0.7,3.3-1.3,5.4-1.3c2.2,0,3.7,1.1,3.7,3.6v0.9
	c-6.9,0.9-11.7,3-11.7,9.5c0,5.1,3.1,8.1,9.2,8.1c4,0,6.6-0.7,8.4-1.9V556.3z M361.6,484v-32.7h-7.9V484H361.6z M361.9,441.7
	c0-2.4-1.9-4.2-4.3-4.2c-2.3,0-4.2,1.9-4.2,4.2c0,2.3,1.9,4.2,4.2,4.2C359.9,446,361.9,444.1,361.9,441.7z M380.7,568.4h-7.2l7.2-21
	H366v4.6h6.9l-7.5,21.1h15.3V568.4z M382,451.3h-4.3v-9.6l-7.9,2.5v7.1h-2.9v5.9h2.9v17.8c0,5.8,2.9,9.4,8.2,9.4
	c1.8,0,3.5-0.5,3.9-0.8V478c-0.4,0.1-0.9,0.3-1.6,0.3c-1.6,0-2.7-1-2.7-4.1v-17h4.3V451.3z M383.5,357c1.8,0,3.5-0.5,3.9-0.8v-5.6
	c-0.4,0.1-0.9,0.3-1.6,0.3c-1.6,0-2.7-1-2.7-4.1v-17h4.3v-5.9h-4.3v-9.6l-7.9,2.5v7.1h-2.9v5.9h2.9v17.8
	C375.2,353.4,378.1,357,383.5,357z M390.9,547.4h-6.2v25.7h6.2V547.4z M391.1,539.8c0-1.9-1.5-3.3-3.4-3.3c-1.8,0-3.3,1.5-3.3,3.3
	c0,1.8,1.5,3.3,3.3,3.3C389.6,543.2,391.1,541.6,391.1,539.8z M414.2,560.2c0-7.6-3-13.3-9.4-13.3c-6.3,0-9.4,5.7-9.4,13.3
	c0,7.6,3.1,13.3,9.4,13.3C411.2,573.5,414.2,567.8,414.2,560.2z M416.3,457.2v17.8c0,5.8,2.9,9.4,8.2,9.4c1.8,0,3.5-0.5,3.9-0.8V478
	c-0.4,0.1-0.9,0.3-1.6,0.3c-1.6,0-2.7-1-2.7-4.1v-17h4.3v-5.9h-4.3v-9.6l-7.9,2.5v7.1h-2.9v5.9H416.3z M436.8,554.9
	c0-5.4-2.9-8-9.2-8c-3.9,0-6.8,0.8-8.9,1.9v24.3h6.1v-21.2c0.7-0.3,1.3-0.5,2.6-0.5c2.2,0,3.1,1.2,3.1,3.5v18.2h6.2V554.9z
	 M442.6,484.5c1.8,0,3.5-0.5,3.9-0.8V478c-0.4,0.1-0.9,0.3-1.6,0.3c-1.6,0-2.7-1-2.7-4.1v-17h4.3v-5.9h-4.3v-9.6l-7.9,2.5v7.1h-2.9
	v5.9h2.9v17.8C434.4,480.8,437.3,484.5,442.6,484.5z M448.2,547.4H442v25.7h6.2V547.4z M448.4,539.8c0-1.9-1.5-3.3-3.4-3.3
	c-1.8,0-3.3,1.5-3.3,3.3c0,1.8,1.5,3.3,3.3,3.3C446.9,543.2,448.4,541.6,448.4,539.8z M462.9,484.6c5.2,0,9-1,11.3-2.5v-30.8h-7.9
	v26.3c-0.9,0.5-1.9,0.8-3.2,0.8c-2.6,0-3.8-1.6-3.8-4.2v-22.9h-7.9v22C451.5,481.5,455.7,484.6,462.9,484.6z M486.2,540.3h-5.5V557
	c0,1.5,0.1,3.2,0.1,3.2h-0.1c0,0-0.7-1.7-1.4-3.2l-8.3-16.8h-5.8v32.8h5.5v-19c0-1.5-0.1-3-0.1-3h0.1c0,0,0.5,1.5,1.3,3l9.3,19h5
	V540.3z M488.6,457.1c1.5-0.7,3.6-0.8,5.4,0.1l1.5-6.4c-7.5-0.4-11.7,0.6-14.7,2.4V484h7.8V457.1z M508.3,556.3
	c0-7.1-3.6-9.4-8.4-9.4c-3.9,0-6.4,1.1-7.9,1.9l1.3,4.1c1.4-0.7,3.3-1.3,5.4-1.3c2.2,0,3.7,1.1,3.7,3.6v0.9
	c-6.9,0.9-11.7,3-11.7,9.5c0,5.1,3.1,8.1,9.2,8.1c4,0,6.6-0.7,8.4-1.9V556.3z M527.2,568.4H520l7.2-21h-14.6v4.6h6.9l-7.5,21.1h15.3
	V568.4z M537.4,547.4h-6.2v25.7h6.2V547.4z M537.6,539.8c0-1.9-1.5-3.3-3.4-3.3c-1.8,0-3.3,1.5-3.3,3.3c0,1.8,1.5,3.3,3.3,3.3
	C536.1,543.2,537.6,541.6,537.6,539.8z M560.7,560.2c0-7.6-3-13.3-9.4-13.3c-6.3,0-9.4,5.7-9.4,13.3c0,7.6,3.1,13.3,9.4,13.3
	C557.7,573.5,560.7,567.8,560.7,560.2z M583.3,554.9c0-5.4-2.9-8-9.2-8c-3.9,0-6.8,0.8-8.9,1.9v24.3h6.1v-21.2
	c0.7-0.3,1.3-0.5,2.6-0.5c2.2,0,3.1,1.2,3.1,3.5v18.2h6.2V554.9z M605,556.3c0-7.1-3.6-9.4-8.4-9.4c-3.9,0-6.4,1.1-7.9,1.9l1.3,4.1
	c1.4-0.7,3.3-1.3,5.4-1.3c2.2,0,3.7,1.1,3.7,3.6v0.9c-6.9,0.9-11.7,3-11.7,9.5c0,5.1,3.1,8.1,9.2,8.1c4,0,6.6-0.7,8.4-1.9V556.3z
	 M616.5,535.6h-6.2v37.4h6.2V535.6z M628,547.4h-6.2v25.7h6.2V547.4z M628.3,539.8c0-1.9-1.5-3.3-3.4-3.3c-1.8,0-3.3,1.5-3.3,3.3
	c0,1.8,1.5,3.3,3.3,3.3C626.7,543.2,628.3,541.6,628.3,539.8z M206.8,544.3c-0.7,0-1.3,0.1-1.8,0.3V556l0.7,0
	c4.3,0.3,5.4-2.6,5.4-5.8C211.2,547,210.3,544.3,206.8,544.3z M551.3,551.5c-2.7,0-3.2,3.9-3.2,8.6c0,4.7,0.5,8.5,3.2,8.5
	c2.8,0,3.2-3.8,3.2-8.4C554.6,555.4,554.1,551.5,551.3,551.5z M82.7,390.7c0.5,4.1,1.9,6.1,5.8,6.1c2.7,0,4.3-1.3,4.3-3.9
	c0-0.9-0.2-1.8-0.4-2.3H82.7z M81.2,351.3l0.9,7.2c-4.7,0-8-1.5-8-3.9S76.7,351.3,81.2,351.3z M92,314.2c0.3,0.5,0.3,1.2,0.3,1.8
	c0,3.3-3.5,4.5-9.1,4.5c-5,0-9.1-1-9.1-4.7c0-0.6,0.1-1.1,0.2-1.6H92z M81.2,467.2l0.9,7.2c-4.7,0.1-8-1.5-8-3.9
	C74.1,468.2,76.7,467.2,81.2,467.2z M77.1,512.1v1h-10c-0.2-0.6-0.3-1.5-0.3-2.4c0-2.8,1.5-4.3,4.9-4.3
	C75.8,506.4,77.1,508.2,77.1,512.1z M81.2,238.6l0.9,7.2c-4.7,0-8-1.5-8-3.9C74.1,239.6,76.7,238.6,81.2,238.6z M92.3,543.9
	c0.2,0.5,0.4,1.4,0.4,2.3c0,2.5-1.5,3.9-4.3,3.9c-3.9,0-5.2-2-5.8-6.1H92.3z M92.4,510.7c0,1-0.1,1.7-0.4,2.4H81v-1
	c0-4.6,1.8-6.3,5.9-6.3C90.4,505.8,92.4,507.4,92.4,510.7z M81.2,186.2l0.9,7.2c-4.7,0-8-1.5-8-3.9
	C74.1,187.2,76.7,186.2,81.2,186.2z M92.3,129c0.2,0.5,0.4,1.4,0.4,2.3c0,2.5-1.5,3.9-4.3,3.9c-3.9,0-5.2-2-5.8-6.1H92.3z
	 M6.5,103.4v529.8h109.9V103.4H6.5z M74.7,218.8h21.9v6.4H71.5c-1.2-2.1-2-5.1-2-9.2c0-6.5,2.7-9.5,8.3-9.5h18.8v6.5H77.8
	c-2.3,0-3.6,0.9-3.6,3.2C74.2,217.5,74.3,218.1,74.7,218.8z M62.2,146.8c1.9,0,3.5,1.6,3.5,3.5c0,1.9-1.6,3.4-3.5,3.4
	c-1.9,0-3.5-1.5-3.5-3.4C58.7,148.4,60.3,146.8,62.2,146.8z M62.6,276.1v-6.9l20.5-3.8c2-0.3,4.2-0.6,4.2-0.6v-0.1
	c0,0-2.3-0.2-4.2-0.6l-20.5-4v-6.3l34,8.2v6L62.6,276.1z M96.6,294.5v6.4H70v-6.4H96.6z M62.2,294.2c1.9,0,3.5,1.6,3.5,3.5
	c0,1.9-1.6,3.4-3.5,3.4c-1.9,0-3.5-1.5-3.5-3.4C58.7,295.8,60.3,294.2,62.2,294.2z M58.7,489.9c0-1.9,1.5-3.5,3.5-3.5
	c1.9,0,3.5,1.6,3.5,3.5c0,1.9-1.6,3.4-3.5,3.4C60.3,493.3,58.7,491.7,58.7,489.9z M74.7,421h21.9v6.4H71.5c-1.2-2.1-2-5.1-2-9.2
	c0-6.5,2.7-9.5,8.3-9.5h18.8v6.5H77.8c-2.3,0-3.6,0.9-3.6,3.2C74.2,419.6,74.3,420.3,74.7,421z M74.7,447.4h21.9v6.4H71.5
	c-1.2-2.1-2-5.1-2-9.2c0-6.5,2.7-9.5,8.3-9.5h18.8v6.5H77.8c-2.3,0-3.6,0.9-3.6,3.2C74.2,446.1,74.3,446.7,74.7,447.4z M59.2,376.8
	v-6.2h37.4v6.2H59.2z M96.6,572.5H63.8V566h27.7v-7h5V572.5z M88.8,556c-6.8,0-8.9-5-9.9-12.2H78c-2.5,0-3.7,1.5-3.7,3.8
	c0,2.2,0.6,4.2,1.4,5.6l-4.2,1.3c-0.8-1.5-2-4.2-2-8.2c0-5,2.5-8.7,9.8-8.7h15.9c1.2,1.9,2,4.6,2,8.7C97.1,552.8,94,556,88.8,556z
	 M95.1,519.6h-31c-1.2-1.8-2-4.8-2-8.7c0-7,3.6-11,9-11c4.6,0,6.7,3,7.5,5.2h0.1c0.8-2.6,3.2-6.1,8.5-6.1c7.3,0,9.9,5.5,9.9,11.6
	C97.1,514.6,96.4,517.6,95.1,519.6z M70,493v-6.4h26.6v6.4H70z M83.2,480.4c-8,0-13.7-3.7-13.7-10c0-6.7,5.7-10,15.1-9.5l1.6,13.1
	c3.9-0.4,5.8-2.1,5.8-5.2c0-2.7-0.7-4.5-1.4-5.6l4.5-1.4c1.2,1.7,2,4.3,2,7.9C97.1,476.6,91.9,480.4,83.2,480.4z M88.8,402.9
	c-6.8,0-8.9-5-9.9-12.2H78c-2.5,0-3.7,1.5-3.7,3.8c0,2.2,0.6,4.2,1.4,5.6l-4.2,1.3c-0.8-1.5-2-4.2-2-8.2c0-5,2.5-8.7,9.8-8.7h15.9
	c1.2,1.9,2,4.6,2,8.7C97.1,399.7,94,402.9,88.8,402.9z M83.2,364.5c-8,0-13.7-3.7-13.7-10c0-6.7,5.7-10,15.1-9.5l1.6,13.1
	c3.9-0.4,5.8-2.1,5.8-5.2c0-2.7-0.7-4.5-1.4-5.6l4.5-1.4c1.2,1.7,2,4.3,2,7.9C97.1,360.7,91.9,364.5,83.2,364.5z M83.5,326.9
	c-8.5,0-13.8-3.9-13.8-9.6c0-1.6,0.2-2.5,0.5-3.1H57.8v-6.4h37.3c1.2,2,2,4.4,2,8.4C97.1,323,92.3,326.9,83.5,326.9z M83.2,251.8
	c-8,0-13.7-3.7-13.7-10c0-6.7,5.7-10,15.1-9.5l1.6,13.1c3.9-0.4,5.8-2.1,5.8-5.2c0-2.7-0.7-4.5-1.4-5.6l4.5-1.4c1.2,1.7,2,4.3,2,7.9
	C97.1,248,91.9,251.8,83.2,251.8z M83.2,199.4c-8,0-13.7-3.7-13.7-10c0-6.7,5.7-10,15.1-9.5l1.6,13.1c3.9-0.4,5.8-2.1,5.8-5.2
	c0-2.7-0.7-4.5-1.4-5.6l4.5-1.4c1.2,1.7,2,4.3,2,7.9C97.1,195.7,91.9,199.4,83.2,199.4z M70,153.5V147h26.6v6.4H70z M96.6,160v15.8
	l-21.8-7.8v7.2H70v-15.2l21.8,7.4V160H96.6z M88.8,141.2c-6.8,0-8.9-5-9.9-12.2H78c-2.5,0-3.7,1.5-3.7,3.8c0,2.2,0.6,4.2,1.4,5.6
	l-4.2,1.3c-0.8-1.5-2-4.2-2-8.2c0-5,2.5-8.7,9.8-8.7h15.9c1.2,1.9,2,4.6,2,8.7C97.1,138,94,141.2,88.8,141.2z M150.8,80.2
	c0,0,2.7-0.5,5.7,0.3c2.9,0.8,5.5,1.9,5,3.7c-0.4,1.6-3.8,1-5.4,0.4C152.1,83,150.8,80.2,150.8,80.2L150.8,80.2z M2.7,30.9
	c0.5,6.4,6.3,8.2,7.4,14.3c0.9,5.3-0.4,9,1,15.8c1.7,8.6,5.3,11.6,5.3,16.1c0,5.3-6,10.8-8.3,12.6c-2.5,2-8.4,4-6.8,7.7
	c1.6,3.7,8.9,1.4,11.5-0.3c1.5-1,6-5.3,6.7-6.1c0.7-0.7,9.4-9.9,12.8-11.4c4-1.8,11.8-2.9,18.3-4.6c5.7-1.5,15.7-4.2,24.3-6.3
	c7.7-1.9,13.8-2.7,17.2,1.8c4.6,6-0.2,12.3-6,16.8c-2.2,1.7-11.8,4.7-8.1,9.5c1.6,2.1,6.2,1.9,9.5-0.7c3.9-3,8.3-6.4,9.2-7.2
	c1.8-1.4,3.6-3.1,5.7-3.9c1.2-0.4,3.6-0.8,4.4,0.8c2.1,4.6-4.2,5.7-2,10.9c0.8,1.9,3.6,2.5,6.3,2.4c3.4-0.2,7.3-1.4,9.1-3.8
	c2.6-3.6-0.7-10-1.5-12.8c-0.8-2.8-0.6-9.1-2.1-12.2c-1.2-2.8-3.4-5.9-3.9-7.4c-0.4-1.4-0.8-4.6,0.7-6c3.3-2.9,9,1.7,11.7,3.8
	c1.7,1.3,15.4,13.1,18.6,15.2c3,2,4.6,2.9,5.5,3.3c0.5,0.2,0.7,0.2,0.7,0.2s0.2-0.2-0.8-1c-1.9-1.6-5.2-4.5-8.4-7.7
	c-0.9-0.9-8.4-10.2-10.9-12.7c-7.2-7.3-10.9-10.7-15.5-13c-4.7-2.3-14.4-5.6-21.1-5.3c-4.3,0.2-9,1.6-13,2.1
	c-2.9,0.3-6.1-1.1-6.4-3.2c-0.9-5.9,3.2-7.9,8.5-10.4c4.3-2,8.4-3.8,11.2-6.2c3.9-3.4,5.7-7.8,6.8-11.4c1.4-4.4,0.9-7.8-1.8-9.6
	c-5-3.2-7.7,2.9-18.4,5.9C73.4,8.7,63,8.1,57.3,9c-6,0.9-11.2,3.7-12.8,7.9c-1.7,4.6,1.2,7.3,2.6,10.8c1.1,2.8,1.2,6.6-1.1,7.9
	c-2.8,1.7-6.6-0.8-12-7.4C28.9,22.1,24.9,15,17.5,15C10.3,15,2.4,26.7,2.7,30.9L2.7,30.9z"/>
</svg>
