<?xml version="1.0" encoding="utf-8"?>
<!-- Generator: Adobe Illustrator 27.3.1, SVG Export Plug-In . SVG Version: 6.00 Build 0)  -->
<svg version="1.1" id="Layer_1" xmlns="http://www.w3.org/2000/svg" xmlns:xlink="http://www.w3.org/1999/xlink" x="0px" y="0px"
	 width="681.3px" height="94px" viewBox="0 0 681.3 94" style="enable-background:new 0 0 681.3 94;" xml:space="preserve">
<path d="M94.9,29.4h9l7.9,25.8l8.6-25.9h7.2l8.5,25.9l7.9-25.8h8.8l-13,38.4h-7.3l-8.6-24.9l-8.6,24.9h-7.3L94.9,29.4z M164.7,51.8
	l5.1-12.4l5.1,12.4H164.7z M149.6,67.7h8.5l3.5-8.6h16.1l3.5,8.6h8.8l-16.3-38.4H166L149.6,67.7z M199.2,67.7h8.4V37.4h11.6v-7.7
	h-31.6v7.7h11.6V67.7z M225.5,67.7h29v-7.5h-20.7v-8h18v-7.5h-18v-7.7h20.4v-7.4h-28.7V67.7z M271.9,48.1V37.2h8.3
	c4.1,0,6.6,1.9,6.6,5.4v0.1c0,3.2-2.3,5.4-6.4,5.4H271.9z M263.5,67.7h8.4V55.5h6.6l8.2,12.2h9.8l-9.3-13.6
	c4.8-1.8,8.2-5.7,8.2-11.8v-0.1c0-3.6-1.1-6.6-3.3-8.7c-2.5-2.5-6.3-3.9-11.1-3.9h-17.4V67.7z M304.6,67.7h26.2v-7.6H313V29.6h-8.4
	V67.7z M363.8,48.8c0,6.5-4.7,11.9-11.4,11.9c-6.8,0-11.5-5.4-11.5-12v-0.1c0-6.5,4.7-11.9,11.4-11.9c6.7,0,11.5,5.5,11.5,12V48.8
	 M332.1,48.8c0,10.8,8.4,19.6,20.2,19.6s20.3-8.9,20.3-19.7v-0.1c0-10.8-8.4-19.6-20.2-19.6c-11.8,0-20.3,8.9-20.3,19.7V48.8
	 M406.7,48.8c0,6.5-4.7,11.9-11.4,11.9c-6.7,0-11.5-5.4-11.5-12v-0.1c0-6.5,4.7-11.9,11.4-11.9c6.8,0,11.5,5.5,11.5,12V48.8
	 M375,48.8c0,10.8,8.4,19.6,20.2,19.6c11.8,0,20.3-8.9,20.3-19.7v-0.1c0-10.8-8.4-19.6-20.2-19.6c-11.8,0-20.3,8.9-20.3,19.7V48.8
	 M123.8,18.2c4.7,0,7.7-2.6,7.7-7.9V0.3h-3.9v10.1c0,2.8-1.4,4.2-3.8,4.2c-2.4,0-3.8-1.5-3.8-4.3V0.3h-3.9v10
	C116.2,15.5,119,18.2,123.8,18.2z M141.7,17.9h3.8V6.7l8.5,11.2h3.3V0.3h-3.8v10.8l-8.2-10.8h-3.6V17.9z M168.3,17.9h3.9V0.3h-3.9
	V17.9z M188.7,18h3.4l7.1-17.7h-4.2l-4.6,12.4l-4.6-12.4h-4.3L188.7,18z M208.6,17.9h13.4v-3.4h-9.5v-3.7h8.3V7.3h-8.3V3.8h9.4V0.3
	h-13.2V17.9z M232,17.9h3.9v-5.6h3l3.8,5.6h4.5l-4.3-6.3c2.2-0.8,3.8-2.6,3.8-5.4V6.1c0-1.7-0.5-3-1.5-4c-1.2-1.2-2.9-1.8-5.1-1.8
	h-8V17.9z M235.8,8.9v-5h3.8c1.9,0,3,0.9,3,2.5v0c0,1.5-1.1,2.5-3,2.5H235.8z M262.9,18.1c3.8,0,6.4-2,6.4-5.4v-0.1
	c0-3.1-2-4.3-5.6-5.3c-3-0.8-3.8-1.2-3.8-2.3V5c0-0.9,0.8-1.5,2.3-1.5c1.5,0,3,0.7,4.6,1.7l2-2.9c-1.8-1.4-4-2.2-6.5-2.2
	c-3.6,0-6.1,2.1-6.1,5.3v0c0,3.5,2.3,4.5,5.8,5.4c2.9,0.8,3.5,1.3,3.5,2.2v0.1c0,1-1,1.7-2.5,1.7c-2,0-3.7-0.8-5.2-2.1l-2.3,2.7
	C257.6,17.2,260.3,18.1,262.9,18.1z M279.5,17.9h3.9V0.3h-3.9V17.9z M298.4,17.9h3.9v-14h5.3V0.3h-14.5v3.6h5.3V17.9z M322.1,17.9
	h3.9v-7l6.7-10.6h-4.4l-4.3,7l-4.2-7h-4.5l6.7,10.6V17.9z M364,18.2c5.4,0,9.4-4.1,9.4-9.1V9.1c0-5-3.9-9-9.3-9
	c-5.4,0-9.4,4.1-9.4,9.1v0C354.7,14.1,358.6,18.2,364,18.2z M364.1,14.6c-3.1,0-5.3-2.5-5.3-5.5V9.1c0-3,2.2-5.5,5.3-5.5
	c3.1,0,5.3,2.5,5.3,5.5v0C369.3,12.2,367.2,14.6,364.1,14.6z M381.7,17.9h3.9v-6.8h8.4V7.6h-8.4V3.8h9.5V0.3h-13.4V17.9z M7.7,5.6
	C7.8,5.6,7.8,5.6,7.7,5.6C7.7,5.5,7.7,5.5,7.7,5.6z M57,34.6C57.1,34.7,57,34.6,57,34.6L57,34.6z M46.6,84.8
	C46.6,84.8,46.5,84.8,46.6,84.8c-0.1,0.1-0.1,0.1-0.1,0.1L46.6,84.8z M64.2,6.4C64.2,6.4,64.2,6.4,64.2,6.4
	C64.2,6.5,64.3,6.4,64.2,6.4z M22.1,6.9c0.1,0,0.1-0.1,0.1-0.1c-0.8-1.2-1.8-1-2.2,0C19.8,7.4,21.4,7.2,22.1,6.9z M0.5,0.3l0,0.8
	c0,1.8,0.1,3.6,0.1,5.4c0.5,23.3,0.9,45.3,14.7,66.4c5.7,8.7,14.4,16,25.2,21l0.3,0.1l0.3-0.2c10.8-5,19.5-12.3,25.2-21
	C80.2,51.7,80.6,29.7,81.1,6.5c0-1.8,0.1-3.6,0.1-5.4l0-0.8H0.5z M67.7,19.1c-0.7-0.5-1.6-0.8-2.4-0.8c-2.9-0.1-3.6,1.7-3.7,1.5
	c-0.8-0.8-3.1-1.5-2.9-1.3c-1.4-1.2,2.6-4.6,4-5.3c2.1-1.1,4.2-1.9,5.1-4.5c0.2-0.5,0.6,0.8,0.6,0.8C69.5,12.7,67.3,15.9,67.7,19.1z
	 M58.8,6.8c0.7-1,1.9-0.5,2.5-0.9c2-1.5,2.5-0.4,4.6,0.2c0.6,0.2,1.5-0.2,2.1-0.5c0.1-0.1,0.1,0.9,0.1,1.1c-0.2,0.7-0.9,0.6-1.2,1.2
	c-0.4,0.9-0.4,2.1-1.3,2.5l0.1-0.1c-0.3,0.3-0.8,0.3-1.2,0.5c-0.2,0.2-0.4,0.3-0.6,0.4c-0.1,0.1-0.4,0.2-0.5,0.2
	c-0.3,0.1-0.2,0-0.5,0.1c-0.2,0-0.3,0-0.4,0c-0.2,0-0.7,0-0.9,0c-0.4,0-0.5,0-0.9,0c-0.2,0-0.5-0.1-0.7-0.2c-0.1,0-0.3-0.1-0.5-0.1
	c0-0.2,0-0.3,0.2-0.5c0.2-0.1,0.2,0,0.5,0c0,0,0.4,0,0.4,0c0.1,0,0.1,0,0.2,0c0.1,0,0.2,0,0.3-0.1c0.1-0.1,0.3-0.1,0.4-0.2
	c0,0,0.1-0.1,0.1-0.1c0.1-0.1,0.2-0.1,0.3-0.2c0.2-0.3,0.4-0.6,0.4-0.9c0-0.3,0-0.6,0-0.8c0,0,0-0.1,0-0.1c0-0.2-0.1-0.4-0.2-0.6
	c-0.6-1.2-2.1,0-3.2-0.1C58.7,7.4,58.7,7,58.8,6.8z M57.1,8.6c1.3-0.1,2.6-1.1,4,0.6c-0.3-0.1-0.6-0.2-0.7,0
	c-1.6,1.3-3.5,0.8-4.5-0.7C56.3,8.3,56.8,8.6,57.1,8.6z M49.8,8.7c0,0,0.1-0.1,0.1-0.1c0.1-0.2,0.2-0.4,0.4-0.5
	C50.4,8,50.5,8,50.7,7.9c0.2,0,0.4-0.1,0.6,0.1c0.2,0.1,0.4,0.3,0.7,0.4c0,0,0.2,0,0.2,0c-0.1-1.3,0.6-1.4,0.2-2.2
	c0.4,0.1,1,0.1,1.2,0.4c0.2,0.2,0.8,0.6,0.7,1.1c-0.6,3.6,3.5,4.3,5.5,6.3c-0.5,0.5-1,1.1-1.5,1.9c-1-0.8-2.1-1.7-3.5-1.6
	c0-0.5,0.5-0.5,0.5-0.7c-0.4-0.8-1.3-2.1-2.3-2.2c-0.4,0-0.9,1.3-1.6,1.1c-0.4-0.1-1-0.2-1.1,0c-0.1,0.2-0.1-1.8,0.7-2.1
	c0.2-0.1,0.5,0,0.7,0c0.2-0.1,0.4-0.3,0.2-0.4l-0.1,0c-0.4,0-0.6,0-1-0.2c-0.2-0.1-0.3-0.1-0.5-0.3c-0.1-0.1-0.1-0.3-0.2-0.5
	C50.1,9,49.7,9,49.6,9C49.6,8.9,49.7,8.8,49.8,8.7z M50.1,17.7c0.1,0.1,0.5,0,0.3-0.2l-0.3-0.5c-0.2-0.1-0.2-0.4-0.4-0.5
	c0,0-0.1-0.1-0.1-0.1c-0.1-0.1-0.1-0.2-0.1-0.2c-0.1-0.4-0.1-0.9,0.3-1.2c0,0,0,0,0-0.1c0,0,0.1-0.1,0.1-0.1c0,0,0.1,0,0.1-0.1
	c0,0,0,0,0,0c0.1-0.1,0.1-0.3-0.1-0.3c0.1,0,0.2,0,0.4,0c0,0,0.1,0,0.1,0c0.5,0.1,1.1,0.3,1.2,0.7l0.2,0.2c0.5,1.1,0.3,3.9,3,4.6
	c1.4,0.3,2.8,0.8,4.3,0.8c-0.3,1.4-0.3,3.2,0.8,4.2c-1.6-0.9-2.7-0.7-4.1-2c-0.6-0.6-2.1-1.4-2.8-1.3c-0.3,0,0.4-0.9-0.2-1.1
	c-0.4-0.1-1.6-0.1-1.8,0.2c-0.9,1.4-1.9,1.4-2.2,1.7c0.4-0.3-1.5-1.9,0.8-2.7c0.2-0.1,0.3-0.6,0-0.7c-0.5-0.2-0.9,0.1-1.3,0.4
	c-0.5,0.3-0.6-0.8-1.5-0.4C46.7,16.4,48.8,16.2,50.1,17.7z M62,34.3c-1.7-0.7-3.3,0-4.8,0.7C57,34.7,57,34.6,57,34.6
	c0,0,0-0.1-0.1-0.1h0c0,0-1.1-0.8-2.2,0c-0.1,0.1,0,0.5,0,0.5c-1.4-0.5-1.2-1.5-0.4-2c0.1,0-0.5-0.4-0.7-0.3c-0.2,0.1,0.1,0.5,0,0.4
	c-0.8-0.2-1.4-0.7-1.2-1.3c0.3-1,1.6-0.8,1.6-1c0.1-1.6-1.7,0.8-0.5-1.4c0.4-0.8,2.2-0.6,2.4,0.3c0.3,1.4,0.9,2.6,2.2,3.1
	c0.8,0.3,1.8-0.3,2-1.1c0.3-1.4-0.4-3.5,1.2-4c1.3-0.5,2.9,1.2,2.6,2C63.7,30,61.2,30.9,62,34.3z M29.5,26c1.9,0.9,3.9-2,3.6-4
	c-0.2-1.5-2.3-2-3.1-1.1c-0.1-0.7,0.1-1.5,0.7-1.8c0.6-0.3,2.3,0,1.9-0.5c-1.4-2.3-2.3-4.5-1-7.5c1.3-3,3.8-5.6,7.6-4.9
	c2,0.3,5,2.1,7.2,1.8C46.1,9.1,45,9.6,44,10.1c-1.8,1-3.2,0.1-4.6,0.3c0.5,0.4,1,1.4,1,2.1c-1.4-1.4-4.8-2.6-6.4-0.4
	c-1.1,1.5-2.1,3.5-0.9,5.1c0-0.6,0.4-1,0.6-1.5c0.2-0.3,1.6-0.6,1.3-1.4c0.3,0.1,0.8,0.5,0.9,0.9c0.3,1.5-1.6,1.8-1.3,2.7
	c0.8,2.1,0.1,2.3-0.2,3.5c-0.5,2.6-1.4,6-5.1,5.6c-0.3,1.9-1.6,3.4-4.1,2.8c-0.6-0.2-0.3,0.7,0,1.1c0.5,0.9,1.6,1.5,2.3,2.3
	c-2,0.9-4.1,2-5.6,3.6c-0.7,0.7-0.9,1.9-1.8,2.4c0.2-0.8-0.6-1-1-0.8c-0.9,0.6-1,2.3-2.4,1.5c-0.1,0-0.4,0.2-0.3,0.4
	c0,0-0.1-0.1-0.1-0.2c-0.1-0.1-0.1-0.1-0.2-0.2c-0.1-0.1-0.1-0.3-0.1-0.4c0-0.2,0-0.4,0.1-0.6c0.1-0.2,0.3-0.4,0.5-0.6
	c0.1-0.1,0.3-0.3,0-0.4l-0.3-0.1l-0.3,0c0,0-0.4,0-0.5,0.4c0-0.1-0.3-0.5-0.3-0.5c-0.6-0.4-0.3-0.7,0-1.1c0-0.1,0.1-0.1,0.1-0.2
	c0,0,0,0,0,0c0.4-0.7,1.5-0.1,1.7-1c0-0.1-0.2-0.3-0.4-0.3c-0.1,0-0.3,0.2-0.4,0.4c0-0.3,0-0.7,0.1-1c0.2-0.6,1.2-0.7,1.5-0.4
	c1.7,1.8,3.5,0.7,5.2-0.3c0.9-0.6,0.5-1.4-0.3-1.5c-1.8-0.2-4-1.3-4.1-3c-0.1-2.4,2.6-3.9,4.8-2.6c0.1-0.7-0.4-1.2-1-1.4
	c-1.4-0.7-5.1-1.6-3.7-3c1.5-1.5,4.8-0.2,6.5-1.7C26.3,22.9,27.5,25.1,29.5,26z M27.5,13.1c0,2.2-2.3,4.6-0.5,6.7
	c-0.8,0-1.7-0.3-2.2-0.7c-0.3-0.2-0.2,1.1-0.2,1.3c0,0.2-1.4-1.4-2-1c-1.5,1.1-2.2,1.6-4.5,1.6c-0.6,0-1,0.5-1.1,1.1
	c-0.5-1.1-0.1-3.5,0.2-4.5c0.8-2.9,3.7-3.8,6.1-5.2c1.7-1,2.4-3,2.3-4.9C26.9,9,27.6,11.2,27.5,13.1z M17.7,6.4
	c1.1-0.3,2.2-0.8,3.3-1.2c0.9-0.4,1.8,0.5,2.7,0.4c0.6,0,1-0.4,1.4-0.8c0,0.3,0.5,0.8,0.3,1.2c-0.2,0.4-0.8,0.7-0.9,1.1
	C24.3,8,25,8.8,24.5,9.7c-1.5,2.5-4.6,1.6-6.8,2.2c0.2-0.3,0-0.7-0.2-0.8c1,0.1,2.2-0.1,2.5-0.8C20.3,9.4,20.4,8.7,20,8
	c-0.7-1.2-2.1-0.7-3.2-0.2C16.6,7,17.3,6.5,17.7,6.4z M19,10.1c-1.1-0.4-4.3,1.3-5.7-0.8C15,9.7,17.6,7.5,19,10.1z M7,7.4
	C6.9,7.1,6.5,7.3,6.4,7.2C6.2,7,6,6.9,5.9,6.6C5.8,6.4,5.9,6.2,5.8,6c0,0,0-0.1-0.1-0.1c0,0,0,0,0,0c0,0,0,0,0,0
	c0.3,0,0.5-0.2,0.8-0.4c0,0,0.1-0.1,0.1-0.1c0.2,0,0.5,0,0.7,0c0.2,0,0.3,0.1,0.3,0.1c0.1,0,0.4,0.3,0.4,0.5c0,0.1,0,0.3,0.1,0.3
	C8.3,6.6,8.3,6.9,8.4,7c0.1,0.1,0,0.1,0.1,0.1c0,0.1,0.3,0.1,0.4,0.1c0,0,0.1,0.1,0.1,0.1c0.1,0.1,0,0.1,0.2,0.1
	c0.1,0,0.1-0.1,0.1-0.2c0-0.3-0.2-0.8,0.1-1.1C9.4,6.1,9.4,6,9.5,6c0.1,0,0.1-0.1,0.2-0.2c0.1-0.1,0.1-0.3,0.2-0.4
	c0,0.1,0.2,0.1,0.2,0.2c0.1,0.1,0.3,0.2,0.4,0.2c0.1,0,0.1,0.1,0.1,0.1C10.9,6,11.1,7,11.1,7c-0.9,3.8,2.7,6.8,6.7,7.6
	c0,0-0.4,0.3-0.3,0.3c-0.3,0.4-0.3,0.4-0.5,0.8c-0.2,0.4-0.4,0.7-0.5,1.1c0,0.1-0.2,0-0.2,0c-0.1,0-0.1-0.1-0.2-0.1
	c-0.4,0-0.4-0.1-0.7,0c-0.2,0-0.3,0-0.5,0.1c0,0-0.2,0-0.3,0c-0.1,0-0.2,0-0.3,0c-0.1-0.2,0-0.4-0.1-0.7c-0.1-0.1-0.3-0.2-0.4-0.3
	c-0.1-0.1-0.3-0.2-0.4-0.2c-0.1-0.1-0.2-0.1-0.4-0.2c-0.1,0-0.5-0.1-0.7-0.2c-0.3-0.2-0.4-0.3-0.6-0.6c-0.3-0.4-0.4-0.9-0.7-1.4
	c-0.3-0.4-0.7-0.7-1.2-0.8c-1.1-0.2,0.1-0.2-0.3-1c-0.7-1.3-1.7-1.5-3-1.7c-0.3,0-0.4-1.1-1-0.8c0.4-1,1-0.6,1.6-1.1
	C7.3,7.5,7,7.4,7,7.4z M6.7,21.1c0,0.3-0.6-0.9-0.5-1.1c0.5-0.9,0.6-1.1,0.5-1.2c-0.1-0.3-1.1-0.7-1.2-0.4c-0.3,0.6-1.3-1.8,1.5-1.7
	c-0.8-0.5-0.7-0.6-0.5-1.1c0-0.1-0.3-0.4-0.5-0.2c-0.1-0.2,0.1-0.5,0.3-0.5c0.5-0.1,0.9-0.1,1.4,0.2c1.2,0.6,1,2.2,2.1,2.7
	c1.9,0.9,4.1,1.5,6.1,0.5c-0.4,1.4,0,2.6-0.1,2.7c-0.6,0.5-2.5-0.1-3.8-0.6c-0.8-0.3-1.5,0.9-2.5,0.8c0-0.1,0.2-0.4,0.1-0.6
	c-0.1-0.5-0.3-0.6-1-0.5c-0.5,0.1-0.3,0.5-1,0.8C7.4,20.8,6.8,20.6,6.7,21.1z M7.1,29.6c0-0.1,0-0.1-0.1-0.2c0-0.1,0-0.2,0-0.2
	c0-0.2,0-0.4,0.1-0.6c0-0.1,0.1-0.2,0.2-0.3c0.1-0.1,0.1-0.1,0.2-0.2c0.2-0.2,0.3-0.3,0.5-0.3c0.3-0.1,0.6-0.1,0.9,0.1
	C9.1,28,9.3,28,9.6,28c0.1,0,0.4-0.3,0.2-0.4c-0.8-0.2-0.8-0.4-1-1.2c-0.1-0.2-0.3,0-0.4,0.1c0-1.5,1.8-1.6,2.5-1
	c1.1,0.9,0.3,2.6,1.6,3.1c0.7,0.2,1.4,0.4,2.1,0.1c1.3-0.5,0-1.8,0.4-2.9c0.8-2.2,2.7-2.3,4.9-0.2c-2,0.7-2.9,3.3-1.8,5
	c-1.8-0.7-4,0.5-5.2,1.3c1.1-1.1-0.5-2.1-0.9-1.9l-0.5,0.3c-0.2,0.3-0.3,0.6-0.5,0.9c-0.2,0.2-0.3,0.2-0.5,0.2
	c-0.3,0.1-0.5,0.1-0.7-0.1c0,0-0.2,0-0.2,0.1c-0.1,0.2,0,0.3,0,0.3c0,0-0.2-0.2-0.2-0.2c-0.2-0.1-0.4-0.2-0.5-0.4
	c-0.1-0.2-0.2-0.6-0.1-0.8c0.1-0.2,0.3-0.3,0.5-0.5c0.1-0.1,0-0.4-0.2-0.4l0.1,0c-0.2-0.1-0.5,0-0.7,0.1c-0.1,0.1-0.3,0-0.4,0.1
	C8,29.9,8,30,8,30.1c0,0.1,0,0.2,0.1,0.2c-0.3,0-0.6-0.2-0.8-0.4C7.2,29.8,7.1,29.7,7.1,29.6z M25.6,69.1c0,0-0.8-0.5-0.9-0.8
	c-0.2-0.4,0-0.9,0.4-1.2c0.1-0.1,0-0.2-0.1-0.3c-1,0.8-1.5,0-2,0.4c0-0.5-0.1-1.5,0.1-1.9c0.8-1.3,3,0.1,2.6-0.8
	c-0.1-0.2-0.3-0.2-0.5-0.3c-0.1-0.1-0.2-0.3-0.2-0.4c-0.1-0.2-0.3-0.3-0.5-0.2c0-0.1,0-0.2,0.1-0.2c-0.2,0,0.8-0.9,1.2-1
	c0.8-0.1,1.7,0.6,1.9,1.3c0.2,0.6,0.1,1.4,0.7,1.7c2.3,1.1,5,1.2,7.5,0.7c-0.2,1.3,0.2,3.2,1.2,3.9c-1.6-0.5-3.9-0.9-5.2-1.9
	c-1-0.7-2.7,0.3-3.7,0.6c0.1-0.7,0-1.4-0.6-1.6c-0.7-0.3-0.8,0.5-0.9,1C26.6,69.1,25.7,68.6,25.6,69.1z M32.6,59.7
	c-0.3-0.3-0.1-0.1-0.3-0.4c0,0-0.2-0.2-0.2-0.2c0,0-0.1-0.2-0.1-0.3c0-0.1-0.1-0.3,0-0.4c0-0.2,0.1-0.3,0.1-0.5
	c0-0.1,0.1-0.1,0.1-0.2c0.1-0.2,0.2-0.1,0.3-0.3c0.1,0,0-0.2,0-0.3c0,0,0.2,0.1,0.3,0.1c0.1,0,0.2,0.1,0.3,0.1
	c0.1,0,0.2,0.1,0.3,0.2l0,0c0,0.1,0.1,0.1,0.2,0.1c0.1,0.1,0.3,0.2,0.4,0.3c0,0.1,0.1,0.1,0.1,0.2c0,0,0.1,0.1,0.1,0.1
	c0.1,0.4,0.2,0.7,0.2,1.1c0,0.1-0.1,0.2-0.1,0.4c0.3,1,1.6,1.5,2.6,1.5c-0.7,0.5-0.8,1.9-1.3,2c-0.3,0.1-1.8,0.4-2.4,0.7
	c0.2-1-0.1-2.1-1.2-1.6c-0.4,0.2-0.5,0.5-0.9,0.8c-0.5,0.4-1.2-0.4-1.7,0.1c-0.5-0.7-0.4-1.8,0.1-2.2c0.4-0.3,1.6,0.2,1.5-0.2
	c0-0.7-1.5-0.1-1.7-1.1c0-0.2-0.3-0.3-0.5-0.2c0.1-1,1-1.5,1.7-1.2c0.9,0.4,1,1.5,2,1.8C32.6,60,32.8,59.8,32.6,59.7z M46.2,66.2
	c0.1,0.4,0.8,1.5,0.4,1.4c-0.4-0.2-1.2-0.9-1.6-0.6c-0.5,0.4-0.5,1.1-0.8,1c-1-0.6-2-1.5-2.5-2.7c-0.2-0.4-0.1-1.4-0.2-1.2
	c-0.8,0.8-2.3,1-3.5,1.2c0.3-0.2,0.5-1.2,0.5-1.4c-0.9-0.5-2.2,1.1-2.2,0.9c0-0.5,0.1-0.7,0.1-0.8c0.7-2,1.9-4,4.2-4.6
	c2.3-0.6,4.8-1.8,5.3-4.3c0.7,0.4,0.9,1.4,0.9,1.9C46.9,60.2,45.5,62.9,46.2,66.2z M44.9,54.4c-0.3,0.9-0.3,1.9-1.2,2.3
	c-1.8,1-4,2.1-6.1,2.3c0-0.3-0.2-0.7,0.2-0.7c0.7,0,1.3-0.6,1.4-1c0.2-0.6,0-2-0.6-2.3c-0.6-0.3-1.2,0.2-1.7,0.4
	c-0.2-0.6,0.7-1.7,2.3-1.6c0,0,0.8-0.9,0.7-0.8c1-0.7,2.1-0.3,3.5,0c0.9,0.2,1.9,0.2,2.5-0.6C46.3,53.7,45.1,53.8,44.9,54.4z
	 M37.3,55.9c0.2,0,1.2,0.6,1.4,0.9c-1.7,0.3-3.7,1.7-4.8-0.6C35.2,56.8,35.6,56.1,37.3,55.9z M32.9,78.2c-0.2,0-0.6-0.3-1.1,0.3l0,0
	c-0.2-0.1-0.4-0.3-0.6-0.2c-0.6,0.1-0.8,0.6-1.2,1c-0.1,0.1-0.2,0.2-0.3,0.3c-0.1,0-0.1,0.1-0.2,0.1c-0.2,0-0.3,0-0.5,0.1
	c-0.1,0-0.1,0.1-0.2,0.1c0,0.1,0,0.3,0,0.3c-0.3-0.1-0.7-0.9-0.7-1.1c0.4-1.4,0.3-1.9-1.1-1.6c-0.1,0-0.4,0.2-0.3,0.4
	c-0.3-0.6-0.3-1.5,0.1-2.1c0.5-0.7,1.8,0.3,1.9-0.3c0.1-0.7-0.8-0.8-1.1-0.5c-0.2,0.1-0.2-1.6,1.2-1.7c0.5,0,1.2,0.2,1.2,0.5
	c0.2,2.8,3.6,2.5,5.4,2c0.2,0,0.4-0.2,0.3-0.3c-0.8-0.9-1.8-1.8-1.2-2.9c1.1-2.2,3.2-1.2,4.9-0.1c0.1,0.1,1.4,0.3,1.4,0.3
	c-1.9,0.4-2.4,3.5-1.1,4.9c-2.4-0.5-4.3,0.9-6.3,1.9C33.4,78.9,33.4,78.2,32.9,78.2z M57.4,70.9c-2.4,0.2-2.9,3-4.2,4.7
	c-1.5,2.2-4.4,2.1-6.5,0.9c-0.1,0-0.3,0.1-0.3,0.3c0.2,2,2.1,2.9,3.6,3.8c-1.4,1.2-2.3,2.9-3.6,4.2c0,0,0,0,0.1-0.1l-0.1,0.1
	c0,0,0,0,0,0c-0.2,0.2-0.3,0.3-0.5,0.5c-0.2,0.2-0.5,0.2-0.8,0.2c0,0.2-0.2,0.4-0.3,0.5c-0.1,0.1-0.1,0.1-0.2,0.1
	c-0.1,0-0.2,0-0.3,0.1c-0.3,0.1-0.6-0.3-1-0.3c0.4,0,0.4-0.5,0.3-0.7c-0.6-0.8-1.8,0.3-2.1,0.9c-0.2,0.4,0.1,1-0.5,1.2
	c-0.3,0.1-0.8-0.1-1.2,0c-0.2,0.1-0.4,0.3-0.4,0.5c-0.9-1.2,0.1-2.3,1.3-3.1c0.2-0.1,0-0.4-0.2-0.4c-0.5-0.1-0.8,0.2-1.1,0.4
	c-0.6,0.3-1-0.7-1.6-0.4c-0.2-0.4,0.2-0.7,0.3-0.9c0.5-0.7,1.4-1,2.3-0.8c0.4,0.1,0.9,0.9,0.9,0.3c0-0.4-1-0.5-0.9-1.3
	c0-0.1,0-0.3-0.4-0.3c0.8-1,2.9-0.4,2.7,0.5c-0.3,1.1,1.3,2.5,2,1.9c0.8-0.6,1.6-2.1,1.3-2.5c-1.9-2.2-6-2.3-6.5-5.8
	c-0.1-0.7,0.5-1.7,0.9-1.9c0.5-0.3,0.9-0.5,1.6-0.5c0.7,0,0.9,0.4,1.8,0.4c-1.2-1.5-2.7-2.1-4.6-2.9c-2.8-1-2.6-4-2.3-4.4
	c0.3-0.3,1.6-0.1,2.3-0.1c0.5,0,0.7-0.4,1.2-0.6c1.2,1.4,2.1,3.1,3.7,3.9c0.5,0.2,0.3-0.9,1.1-1.1c1,2.1,0,4.6,1.4,6.7
	c1,1.4,2.5,2,4.2,1.5c1.9-0.6,4.1-4.1,2-5.2c-1-0.5-1.8,0.6-2.5,1.3c0-2.1,0.4-2.3,0.9-3c0.3-0.4,1.7-0.1,1.9-0.6
	c0.1-0.3,0.5-0.4-1.1-1.2c0.5,0.2,2,0,2.4,0.5c1.5-2.8,1.2-7-2.3-8.1c-0.1,0-0.8,0.4-0.5,0.7c1,1,2.8,2,1.7,3.6
	c-0.1,0.1-0.7-0.1-0.7,0.2c0,1.3-0.8,2.5-1.8,3.3c0.4-2.1-0.5-3.8-1.9-5.4c-0.6-0.7-0.4-1.7-0.2-2.4c0.2-0.8,1.2-1.4,2-1.5
	c4-0.1,6.1,5,5.1,8.7c0.7-0.1,1-0.9,1.6-1.1c0.5-0.1,1.1,0.3,1.5,0.4C57.5,67.6,56.6,69.3,57.4,70.9z M67.7,67.7L41,46.5L14.1,67.8
	c-0.8-1.4-1.5-2.8-2.2-4.2l29.1-23l28.9,23C69.2,64.9,68.5,66.3,67.7,67.7z M72.6,57.4L41,32.3L9.2,57.4c-0.6-1.5-1.1-3.1-1.6-4.6
	L41,26.3l33.2,26.4C73.7,54.3,73.2,55.8,72.6,57.4z M75.3,9.4c-1,2-1.8,3.9-2.2,6c0,0.1,0.1,0.7,0.4,0.4c0.6-0.5,0.8-1.5,1.5-2.1
	c-0.9,2.4-0.4,4.7-0.2,7.1c0,0.4-1.1,1.8-1.1,2.5c0.3,2.9,2.6,6.2-0.1,8.6c-0.6,0.5-1.5,0.7-2.3,0.7c-0.7,0-0.5,1-0.4,1.6
	c0.1,1.4,2.7,1.9,2.7,2.6c0,2.4-1.4,3.5-1.5,5.7c0,0.7-0.8,1.6-0.7,1.9c0-0.3-0.2-0.4-0.2-0.7c0,0.1-0.1-0.2-0.2-0.3
	c0-0.1-0.2-0.2-0.2-0.2c-0.7-0.1-1,0-1.3,0.6c0,0.1-0.2,0-0.3,0.4c0,0-0.2,0.1-0.2,0.2c0,0,0,0,0,0c-0.1,0-0.1,0,0,0
	c-0.1,0.1-0.3,0.1-0.4,0.2c-0.2,0.1-0.2,0.1-0.5,0c-0.1,0-0.2,0-0.2,0c-0.1,0-0.2-0.1-0.3-0.1c0,0-0.2,0-0.2,0c-0.2,0,0,0.2-0.1,0.2
	c0,0-0.1-0.1-0.1-0.1c0,0-0.1,0-0.1-0.1C67,44.1,67,44,67,43.8c0-0.1,0-0.3,0-0.4c0.1-0.3,0.2-0.4,0.4-0.7c0,0,0.3-0.2,0.2-0.2
	c-1.1,0.1-1.6-0.4-1.7,0.1c-0.1,0.3-1-2.4,1.9-1.8c-0.9-0.5-1.2-1.2-1.6-0.8c-0.2,0.2,0.2-1.8,1.6-1.5c1,0.3,0.7,1.9,1.3,2.3
	c1.3,0.7,1.8-2.2,1.8-2.3c0.2-1.3-1.3-2.4-2.6-2.6c-0.5-0.1-2.6,0.5-3.9,0c-1.5-0.6-1.7-2.6-1.2-4.1c0.5-1.4,1.8-1.8,3.1-1.9
	c-1.2-2.7-3.4-4-5.7-5.9c-0.8-0.7-1-2.5-0.4-3.6c0.1-0.2,1.2,0.6,1.4,1.1c1.2-1.7,2.5-2.9,5.4-1.7c0.1,0-0.2,1.2-0.1,1.7
	c0.2,3.1,1.2,5.9,3.4,8.1c0.4,0.4,0.1,1.5,0.8,1.7c1.2,0.4,2.1-0.4,2.6-1.4c0.2-0.5,0.2-4-0.9-4.7c-0.9-0.6-1.8,0.7-1.9,1.7
	c-0.2-0.7-1-1.6-0.8-2.4c0.4-1.5,1.5-1.5,2.4-0.9c-0.3-2.5-1.2-5-0.6-7.6c0.5-2.2,1-4,1.3-6.3c0.1-0.7-0.6-1.6-1.9-1.3
	c-0.4,0.1-0.7,0.6-0.7,1c0,1.5,0,3-0.4,4.4c-0.1-0.4,0-0.8-0.1-1.2c-0.4-1.4-0.9-3.5-0.7-5.2c0.2-1.9,2.1-3.7,4.1-3.1
	C75.9,5,76.5,7,75.3,9.4z M64.2,6.4C64.2,6.4,64.2,6.4,64.2,6.4C64.2,6.4,64.2,6.4,64.2,6.4 M42.5,53.9c-0.4,0.2-1.4,0.8-1.8,0.7
	c-0.1,0-0.2-0.1-0.3-0.2c-0.1-0.1-0.1-0.3-0.1-0.5c0-0.1,0.1-0.2,0.2-0.3c0.1-0.1,0.2-0.1,0.4-0.1c0.1,0,0.1-0.1,0.2-0.1
	c0.1,0,0.1,0,0.2,0c0.2,0,0.4,0.2,0.6,0.2c0.3,0,0.6,0.1,0.9,0.1c0,0,0,0,0,0C42.7,53.8,42.6,53.9,42.5,53.9z M69,44.1
	C68.9,44.1,68.9,44.1,69,44.1C68.9,44.1,68.9,44.1,69,44.1z M64.2,6.4c-0.9-0.4-2.1-1-2.5,0.2C61.5,7.5,63.5,6.9,64.2,6.4
	C64.2,6.5,64.3,6.4,64.2,6.4 M443.2,75.5h3.9V-0.3h-3.9V75.5z M480.2,32.2c3.8,0,6.5-2,6.5-5.5v-0.1c0-3.1-2-4.3-5.6-5.3
	c-3-0.8-3.8-1.2-3.8-2.3v-0.1c0-0.9,0.8-1.5,2.3-1.5c1.5,0,3,0.7,4.6,1.7l2-2.9c-1.8-1.4-4-2.2-6.5-2.2c-3.6,0-6.2,2.1-6.2,5.3v0.1
	c0,3.5,2.3,4.5,5.8,5.4c2.9,0.8,3.5,1.3,3.5,2.2v0.1c0,1-1,1.7-2.5,1.7c-2,0-3.7-0.8-5.3-2.1l-2.3,2.7
	C474.8,31.3,477.5,32.2,480.2,32.2z M497.2,32.3c3.4,0,5.4-1.2,7.2-3.1l-2.5-2.5c-1.4,1.3-2.6,2.1-4.6,2.1c-3,0-5.1-2.5-5.1-5.5
	v-0.1c0-3,2.1-5.5,5.1-5.5c1.8,0,3.1,0.8,4.5,2l2.5-2.8c-1.6-1.6-3.6-2.7-6.9-2.7c-5.4,0-9.2,4.1-9.2,9.1v0.1
	C488.2,28.3,492.1,32.3,497.2,32.3z M507,31.9h3.9v-7.1h7.1v7.1h3.9V14.4H518v7h-7.1v-7H507V31.9z M534.2,32.3
	c5.4,0,9.4-4.1,9.4-9.1v-0.1c0-5-3.9-9-9.3-9c-5.4,0-9.4,4.1-9.4,9.1v0.1C524.8,28.2,528.7,32.3,534.2,32.3z M534.2,28.7
	c-3.1,0-5.3-2.5-5.3-5.5v-0.1c0-3,2.2-5.5,5.3-5.5s5.3,2.5,5.3,5.5v0.1C539.5,26.2,537.3,28.7,534.2,28.7z M554.5,32.3
	c5.4,0,9.4-4.1,9.4-9.1v-0.1c0-5-3.9-9-9.3-9c-5.4,0-9.4,4.1-9.4,9.1v0.1C545.2,28.2,549.1,32.3,554.5,32.3z M554.6,28.7
	c-3.1,0-5.3-2.5-5.3-5.5v-0.1c0-3,2.2-5.5,5.3-5.5s5.3,2.5,5.3,5.5v0.1C559.8,26.2,557.7,28.7,554.6,28.7z M566.8,31.9h12.6v-3.5
	h-8.8V14.4h-3.9V31.9z M598.5,32.3c5.4,0,9.4-4.1,9.4-9.1v-0.1c0-5-3.9-9-9.3-9c-5.4,0-9.4,4.1-9.4,9.1v0.1
	C589.1,28.2,593,32.3,598.5,32.3z M598.5,28.7c-3.1,0-5.3-2.5-5.3-5.5v-0.1c0-3,2.2-5.5,5.3-5.5s5.3,2.5,5.3,5.5v0.1
	C603.8,26.2,601.6,28.7,598.5,28.7z M611.3,31.9h3.9v-6.8h8.4v-3.5h-8.4v-3.7h9.5v-3.5h-13.4V31.9z M472.4,61h3.9L478,57h7.4L487,61
	h4l-7.5-17.7h-3.6L472.4,61z M479.3,53.6l2.3-5.7l2.3,5.7H479.3z M493.8,61h3.9v-5.6h3l3.8,5.6h4.5l-4.3-6.3
	c2.2-0.8,3.8-2.6,3.8-5.5v-0.1c0-1.7-0.5-3-1.5-4c-1.2-1.2-2.9-1.8-5.1-1.8h-8V61z M497.6,51.9v-5.1h3.8c1.9,0,3,0.9,3,2.5v0.1
	c0,1.5-1.1,2.5-3,2.5H497.6z M520.2,61.3c3.4,0,5.4-1.2,7.2-3.1l-2.5-2.5c-1.4,1.3-2.6,2.1-4.6,2.1c-3,0-5.1-2.5-5.1-5.5v-0.1
	c0-3,2.1-5.5,5.1-5.5c1.8,0,3.1,0.8,4.5,2l2.5-2.8c-1.6-1.6-3.6-2.7-6.9-2.7c-5.4,0-9.2,4.1-9.2,9.1v0.1
	C511.2,57.3,515,61.3,520.2,61.3z M530.5,61h3.9v-7.1h7.1V61h3.9V43.4h-3.9v7h-7.1v-7h-3.9V61z M550.2,61h3.9V43.4h-3.9V61z
	 M562.6,61h3.9v-14h5.4v-3.6h-14.6v3.6h5.4V61z M574.8,61h13.4v-3.4h-9.5v-3.7h8.3v-3.4h-8.3v-3.6h9.4v-3.4h-13.3V61z M599.9,61.3
	c3.4,0,5.4-1.2,7.2-3.1l-2.5-2.5c-1.4,1.3-2.6,2.1-4.6,2.1c-3,0-5.1-2.5-5.1-5.5v-0.1c0-3,2.1-5.5,5.1-5.5c1.8,0,3.1,0.8,4.5,2
	l2.5-2.8c-1.6-1.6-3.6-2.7-6.9-2.7c-5.4,0-9.2,4.1-9.2,9.1v0.1C590.9,57.3,594.7,61.3,599.9,61.3z M614.3,61h3.9v-14h5.4v-3.6h-14.6
	v3.6h5.4V61z M633.8,61.2c4.7,0,7.7-2.6,7.7-7.9v-9.9h-3.9v10.1c0,2.8-1.4,4.2-3.8,4.2c-2.4,0-3.8-1.5-3.8-4.3v-10h-3.9v10.1
	C626.2,58.6,629.1,61.2,633.8,61.2z M645.5,61h3.9v-5.6h3l3.8,5.6h4.5l-4.3-6.3c2.2-0.8,3.8-2.6,3.8-5.5v-0.1c0-1.7-0.5-3-1.5-4
	c-1.2-1.2-2.9-1.8-5.1-1.8h-8V61z M649.3,51.9v-5.1h3.8c1.9,0,3,0.9,3,2.5v0.1c0,1.5-1.1,2.5-3,2.5H649.3z M663.6,61H677v-3.4h-9.5
	v-3.7h8.3v-3.4h-8.3v-3.6h9.4v-3.4h-13.3V61z"/>
</svg>
