<?xml version="1.0" encoding="utf-8"?>
<!-- Generator: Adobe Illustrator 27.3.1, SVG Export Plug-In . SVG Version: 6.00 Build 0)  -->
<svg version="1.1" id="Layer_1" xmlns="http://www.w3.org/2000/svg" xmlns:xlink="http://www.w3.org/1999/xlink" x="0px" y="0px"
	 width="1017.7px" height="800.7px" viewBox="0 0 1017.7 800.7" style="enable-background:new 0 0 1017.7 800.7;"
	 xml:space="preserve">
<style type="text/css">
	.st0{fill:none;stroke:#000000;stroke-width:0.196;stroke-linecap:round;stroke-linejoin:round;}
	.st1{fill:none;stroke:#EF3E23;stroke-width:0.49;stroke-linecap:round;stroke-linejoin:round;}
	.st2{font-family:'AAHA-WEB';}
	.st3{font-size:11.76px;}
	.st4{font-size:11.8188px;}
	.st5{letter-spacing:23;}
</style>
<line class="st0" x1="255.3" y1="474.6" x2="253.1" y2="473"/>
<line class="st0" x1="273" y1="434.6" x2="249" y2="412.3"/>
<line class="st0" x1="247" y1="412.3" x2="246.6" y2="411.9"/>
<line class="st0" x1="246.6" y1="410.7" x2="246.6" y2="411.9"/>
<line class="st0" x1="271.2" y1="436.5" x2="247" y2="414.3"/>
<line class="st0" x1="247" y1="412.3" x2="247" y2="414.3"/>
<line class="st0" x1="271.2" y1="436.5" x2="273" y2="436.4"/>
<line class="st0" x1="247" y1="414.3" x2="249" y2="414.2"/>
<line class="st0" x1="273" y1="436.4" x2="273" y2="434.6"/>
<line class="st0" x1="273" y1="436.4" x2="249" y2="414.2"/>
<line class="st0" x1="249" y1="414.2" x2="249" y2="412.3"/>
<line class="st0" x1="270.5" y1="432" x2="249.3" y2="412.3"/>
<line class="st0" x1="270.5" y1="432.3" x2="270.5" y2="432"/>
<line class="st0" x1="273.2" y1="505.3" x2="272.4" y2="503.2"/>
<line class="st0" x1="272.2" y1="505.7" x2="268.4" y2="503.2"/>
<line class="st0" x1="272.2" y1="505.7" x2="273.2" y2="505.3"/>
<line class="st0" x1="267.5" y1="502.6" x2="272.6" y2="502.5"/>
<line class="st0" x1="268.4" y1="503.2" x2="273.5" y2="503.2"/>
<line class="st0" x1="266.7" y1="502.5" x2="254.2" y2="471.7"/>
<line class="st0" x1="272.4" y1="505.8" x2="272.2" y2="505.7"/>
<line class="st0" x1="266.7" y1="502.5" x2="266.9" y2="502.6"/>
<line class="st0" x1="272.6" y1="502.5" x2="273.7" y2="502.5"/>
<line class="st0" x1="268.4" y1="503.2" x2="267.5" y2="502.6"/>
<line class="st0" x1="272.6" y1="502.5" x2="273.5" y2="503.2"/>
<line class="st0" x1="272.2" y1="505.7" x2="272.2" y2="505.7"/>
<line class="st0" x1="273.2" y1="505.3" x2="270.1" y2="503.2"/>
<line class="st0" x1="266.9" y1="502.6" x2="267.5" y2="502.6"/>
<line class="st0" x1="253.3" y1="472.6" x2="255" y2="473.8"/>
<line class="st0" x1="250" y1="469.2" x2="252.5" y2="471"/>
<line class="st0" x1="252.5" y1="472.1" x2="249" y2="469.6"/>
<line class="st0" x1="252.4" y1="472.4" x2="248.9" y2="469.9"/>
<line class="st0" x1="270.3" y1="467.1" x2="270.3" y2="467.4"/>
<line class="st0" x1="269.1" y1="467.2" x2="269.2" y2="467.5"/>
<line class="st0" x1="270.3" y1="467.4" x2="269.2" y2="467.5"/>
<line class="st0" x1="270.3" y1="467.1" x2="270.3" y2="467"/>
<line class="st0" x1="249" y1="469.6" x2="249" y2="469.3"/>
<line class="st0" x1="249" y1="469.6" x2="248.9" y2="469.9"/>
<line class="st0" x1="252.5" y1="472.1" x2="252.4" y2="472.4"/>
<line class="st0" x1="252.5" y1="471.8" x2="253.1" y2="472.2"/>
<line class="st0" x1="253.1" y1="472.2" x2="253.2" y2="472.5"/>
<line class="st0" x1="253.3" y1="472.6" x2="253.1" y2="472.5"/>
<line class="st0" x1="252.5" y1="472.1" x2="255.1" y2="474"/>
<line class="st0" x1="254.2" y1="471.7" x2="252.5" y2="471.8"/>
<line class="st0" x1="247.3" y1="469.5" x2="247.4" y2="469.6"/>
<line class="st0" x1="253.2" y1="472.5" x2="254.5" y2="472.4"/>
<line class="st0" x1="248.9" y1="469.9" x2="247.4" y2="469.6"/>
<line class="st0" x1="251.3" y1="472.4" x2="247.4" y2="469.6"/>
<line class="st0" x1="251.3" y1="472.4" x2="252.4" y2="472.4"/>
<line class="st0" x1="252.4" y1="473.2" x2="251.3" y2="472.4"/>
<line class="st0" x1="252.6" y1="473.1" x2="252.6" y2="473.1"/>
<line class="st0" x1="245.3" y1="468.1" x2="245.3" y2="467.3"/>
<line class="st0" x1="254.5" y1="472.6" x2="253.3" y2="472.6"/>
<line class="st0" x1="255.3" y1="474.5" x2="252.4" y2="472.4"/>
<line class="st0" x1="254.4" y1="472.2" x2="253.1" y2="472.2"/>
<line class="st0" x1="269.1" y1="467.1" x2="269.1" y2="467.2"/>
<line class="st0" x1="268.5" y1="464.8" x2="268.5" y2="466.1"/>
<line class="st0" x1="269.5" y1="467.1" x2="268.5" y2="466.1"/>
<line class="st0" x1="252.5" y1="472.1" x2="252.5" y2="471"/>
<line class="st0" x1="268.5" y1="464.8" x2="245.3" y2="467.3"/>
<line class="st0" x1="247.4" y1="469.5" x2="245.6" y2="468.7"/>
<line class="st0" x1="268.5" y1="466.1" x2="245.5" y2="468.6"/>
<line class="st0" x1="269.5" y1="467.1" x2="247.4" y2="469.5"/>

<text transform="matrix(1 0 0 1 53.0627 646.0122)" class="st2 st3">CAMPAIGN CALENDAR</text>
<text transform="matrix(1 0 0 1 31.7727 460.041)" class="st2 st3">UNDER STAIR STORAGE</text>
<text transform="matrix(0.995 0 0 1 844.8892 205.9058)" class="st2 st4">BANNERS FOR FUGITIVES</text>
<text transform="matrix(1 0 0 1 844.8882 316.1504)" class="st2 st3">STOP THE SWEEPS HOARDING</text>
<text transform="matrix(1 0 0 1 51.9652 508.8853)" class="st2 st3">CAMPAIGN STORAGE</text>
<text transform="matrix(1 0 0 1 4.4839 547.4995)" class="st2 st3 st5">  </text>
<text transform="matrix(1 0 0 1 60.5839 547.4995)" class="st2 st3 st5">  </text>
<text transform="matrix(1 0 0 1 116.6838 547.4995)" class="st2 st3 st5"> </text>
<text transform="matrix(1 0 0 1 144.7839 547.4995)" class="st2 st3"> </text>
<text transform="matrix(1 0 0 1 150.1198 541.498)" class="st2 st3">FILM</text>
<text transform="matrix(1 0 0 1 4.4843 552.9414)" class="st2 st3">ATLAS OF HOUSING ALIENATION</text>
<text transform="matrix(1 0 0 1 844.8889 261.0889)" class="st2 st3">COMMUNAL WORK DESK</text>
<text transform="matrix(1 0 0 1 844.8882 371.2109)" class="st2 st3">CAMPAIGN MAP</text>
<text transform="matrix(1 0 0 1 845.8882 515.2148)" class="st2 st3">LAND BACK COURTYARD</text>
<text transform="matrix(1 0 0 1 842.8882 591.1602)" class="st2 st3">OPEN WOOD PIN-UP WALLS</text>
<text transform="matrix(1 0 0 1 852.6611 602.6016)" class="st2 st3">WITH NINE PROJCTS</text>
<text transform="matrix(1 0 0 1 845.8884 671.5483)" class="st2 st3">TWO LARGE WORKTABLES</text>
<text transform="matrix(1 0 0 1 843.8889 730.6084)" class="st2 st3">TEN DEMAND BANNERS</text>
<line class="st0" x1="248.8" y1="466.9" x2="246.6" y2="465.3"/>
<line class="st0" x1="266.1" y1="524.4" x2="267" y2="524.8"/>
<line class="st0" x1="266.1" y1="524.4" x2="265.3" y2="524.1"/>
<line class="st0" x1="265.3" y1="524.1" x2="266.5" y2="525.4"/>
<polyline class="st0" points="270,529.4 268.9,528 267.7,526.7 266.5,525.4 "/>
<line class="st0" x1="236.4" y1="474" x2="242.2" y2="471.4"/>
<polyline class="st0" points="236.7,470 238.2,469.9 239.7,469.9 241.1,469.9 242.6,469.9 244.1,469.9 245.6,469.8 "/>
<line class="st0" x1="265.3" y1="524.1" x2="265" y2="524.4"/>
<line class="st0" x1="264.8" y1="524.7" x2="264.4" y2="525"/>
<line class="st0" x1="236.6" y1="464.6" x2="244.3" y2="465.1"/>
<line class="st0" x1="236.6" y1="465.9" x2="235.7" y2="465.9"/>
<line class="st0" x1="265.1" y1="528.4" x2="243.5" y2="475.3"/>
<line class="st0" x1="252.2" y1="473.2" x2="249.3" y2="471.1"/>
<line class="st0" x1="249.3" y1="471.1" x2="249.7" y2="472.1"/>
<line class="st0" x1="269.2" y1="527.8" x2="266.5" y2="525.4"/>
<line class="st0" x1="264.3" y1="525" x2="264.4" y2="525"/>
<line class="st0" x1="265.1" y1="524.5" x2="242.9" y2="470.1"/>
<line class="st0" x1="265.1" y1="524.5" x2="264" y2="525"/>
<line class="st0" x1="241.8" y1="470.3" x2="264" y2="525"/>
<polyline class="st0" points="236.7,470 236.7,468.6 236.7,467.2 "/>
<line class="st0" x1="243.3" y1="470.9" x2="265" y2="524.3"/>
<line class="st0" x1="245.6" y1="474.8" x2="246.5" y2="474.8"/>
<line class="st0" x1="249.1" y1="466.6" x2="249.2" y2="466.9"/>
<line class="st0" x1="249.1" y1="466.6" x2="249.5" y2="466.9"/>
<line class="st0" x1="243.4" y1="474.7" x2="243.5" y2="475.2"/>
<line class="st0" x1="246.6" y1="465.3" x2="246.6" y2="465.3"/>
<line class="st0" x1="249.5" y1="473.2" x2="249.7" y2="472.1"/>
<line class="st0" x1="249.1" y1="466.6" x2="248.6" y2="466.8"/>
<line class="st0" x1="246.5" y1="471" x2="244.7" y2="466.7"/>
<polyline class="st0" points="244.7,466.7 245.2,468.3 245.6,469.8 "/>
<polyline class="st0" points="265.6,530.9 265.2,529 264.8,527 264.4,525 "/>
<line class="st0" x1="246.6" y1="465.3" x2="247.3" y2="467.1"/>
<line class="st0" x1="245.3" y1="474.2" x2="265.7" y2="524.3"/>
<line class="st0" x1="245.3" y1="474.2" x2="249.3" y2="474.3"/>
<line class="st0" x1="237.3" y1="474.6" x2="243.6" y2="474.7"/>
<line class="st0" x1="264.6" y1="525.8" x2="264.2" y2="525"/>
<line class="st0" x1="245.7" y1="475.1" x2="246.5" y2="474.8"/>
<line class="st0" x1="266.8" y1="524.7" x2="246.5" y2="474.8"/>
<line class="st0" x1="249.8" y1="473.9" x2="248.5" y2="470.5"/>
<line class="st0" x1="247.3" y1="467.1" x2="246.6" y2="465.3"/>
<line class="st0" x1="264.4" y1="525" x2="264.4" y2="525"/>
<line class="st0" x1="242.6" y1="469.9" x2="241.8" y2="470.3"/>
<line class="st0" x1="245.7" y1="467.3" x2="244.8" y2="465"/>
<polyline class="st0" points="270,529.4 271.2,530.7 272.4,532 "/>
<line class="st0" x1="250.3" y1="473.8" x2="249.7" y2="472.1"/>
<line class="st0" x1="272.4" y1="532" x2="273.6" y2="533.4"/>
<line class="st0" x1="239" y1="477.5" x2="247.5" y2="485.3"/>
<line class="st0" x1="243.5" y1="475.3" x2="243.5" y2="475.2"/>
<line class="st0" x1="236.7" y1="467.2" x2="238.2" y2="465.7"/>
<line class="st0" x1="236.7" y1="465.4" x2="236.6" y2="471.3"/>
<line class="st0" x1="236.7" y1="467.2" x2="236.7" y2="465.4"/>
<line class="st0" x1="236.7" y1="467.2" x2="236.7" y2="465.8"/>
<line class="st0" x1="236.5" y1="472.7" x2="236.7" y2="465.4"/>
<line class="st0" x1="264.4" y1="525.1" x2="264.2" y2="525"/>
<line class="st0" x1="264.2" y1="525" x2="264.2" y2="524.9"/>
<line class="st0" x1="264.9" y1="527.8" x2="243.5" y2="475.2"/>
<line class="st0" x1="243.3" y1="470.9" x2="245.6" y2="469.8"/>
<line class="st0" x1="271.6" y1="530.5" x2="272.4" y2="532"/>
<line class="st0" x1="267" y1="524.8" x2="267.8" y2="525.1"/>
<line class="st0" x1="269.2" y1="527.8" x2="270" y2="529.4"/>
<line class="st0" x1="269.2" y1="527.8" x2="267" y2="524.8"/>
<line class="st0" x1="266.1" y1="524.4" x2="266.5" y2="525.4"/>
<line class="st0" x1="236.7" y1="468.6" x2="238.2" y2="469.9"/>
<line class="st0" x1="239.2" y1="468.6" x2="236.7" y2="467.2"/>
<line class="st0" x1="246.6" y1="469.1" x2="247.5" y2="472.1"/>
<line class="st0" x1="271.2" y1="529.6" x2="271" y2="528.3"/>
<line class="st0" x1="264.2" y1="525" x2="264" y2="525"/>
<line class="st0" x1="271.2" y1="529.6" x2="267.8" y2="525.1"/>
<line class="st0" x1="271.2" y1="529.6" x2="267" y2="524.8"/>
<line class="st0" x1="271.2" y1="529.6" x2="269.2" y2="527.8"/>
<line class="st0" x1="236.6" y1="465.7" x2="235.7" y2="465.8"/>
<line class="st0" x1="235.7" y1="465.9" x2="235.9" y2="475.5"/>
<line class="st0" x1="236.6" y1="464.6" x2="245.7" y2="464.6"/>
<line class="st0" x1="243.5" y1="475.2" x2="235.9" y2="475.5"/>
<line class="st0" x1="235.9" y1="475.5" x2="235.9" y2="475.6"/>
<line class="st0" x1="253.2" y1="473.3" x2="252.9" y2="473.1"/>
<line class="st0" x1="249.5" y1="474" x2="252.9" y2="473.1"/>
<line class="st0" x1="246.5" y1="474.8" x2="248.5" y2="474.3"/>
<polyline class="st0" points="243.5,475.3 243.5,475.3 235.9,475.6 "/>
<line class="st0" x1="237.3" y1="474.6" x2="236.4" y2="474"/>
<line class="st0" x1="246.6" y1="465.3" x2="245.7" y2="464.6"/>
<polyline class="st0" points="265.6,530.9 266,532.9 266.3,534.9 266.7,536.8 "/>
<line class="st0" x1="244.7" y1="466.7" x2="244.3" y2="465.1"/>
<line class="st0" x1="244.8" y1="465" x2="244.3" y2="465.1"/>
<line class="st0" x1="247.5" y1="472.1" x2="246.3" y2="469"/>
<line class="st0" x1="246.5" y1="471" x2="245.6" y2="469.8"/>
<line class="st0" x1="246.5" y1="471" x2="247.5" y2="472.1"/>
<line class="st0" x1="245.3" y1="464.8" x2="244.8" y2="465"/>
<line class="st0" x1="245.3" y1="464.8" x2="246" y2="467.2"/>
<line class="st0" x1="245.3" y1="464.8" x2="245.7" y2="464.6"/>
<line class="st0" x1="248.4" y1="473.2" x2="247.5" y2="472.1"/>
<line class="st0" x1="248.4" y1="473.2" x2="249.3" y2="474.3"/>
<polyline class="st0" points="244.3,465.1 242.8,465.3 241.3,465.4 239.7,465.5 238.2,465.7 236.7,465.8 "/>
<polyline class="st0" points="236.6,464.6 236.6,465 236.7,465.4 236.7,465.8 "/>
<line class="st0" x1="240.8" y1="467.7" x2="238.2" y2="465.7"/>
<line class="st0" x1="240.8" y1="467.7" x2="245.2" y2="468.3"/>
<line class="st0" x1="242.8" y1="465.3" x2="240.8" y2="467.7"/>
<line class="st0" x1="244.7" y1="466.7" x2="240.8" y2="467.7"/>
<line class="st0" x1="244.7" y1="466.7" x2="242.8" y2="465.3"/>
<line class="st0" x1="239.2" y1="468.6" x2="240.8" y2="467.7"/>
<line class="st0" x1="241.7" y1="468.8" x2="244.1" y2="469.9"/>
<line class="st0" x1="241.7" y1="468.8" x2="245.2" y2="468.3"/>
<line class="st0" x1="241.1" y1="469.9" x2="239.2" y2="468.6"/>
<polyline class="st0" points="273.3,550 272.3,548.6 271.3,547.2 270.4,545.7 "/>
<line class="st0" x1="236.6" y1="471.3" x2="236.7" y2="470"/>
<line class="st0" x1="236.7" y1="467.2" x2="236.6" y2="471.3"/>
<line class="st0" x1="236.5" y1="472.7" x2="236.6" y2="471.3"/>
<line class="st0" x1="236.5" y1="472.7" x2="236.4" y2="474"/>
<line class="st0" x1="266.7" y1="536.8" x2="270.4" y2="545.7"/>
<line class="st0" x1="236.4" y1="474" x2="243.3" y2="474.1"/>
<line class="st0" x1="265.1" y1="524.5" x2="265" y2="524.6"/>
<line class="st0" x1="264.4" y1="525" x2="264.3" y2="525"/>
<line class="st0" x1="264.3" y1="524.9" x2="264.3" y2="525"/>
<polyline class="st0" points="236.4,474 236.5,472.1 236.5,470.2 236.5,468.4 236.6,466.5 236.6,464.6 "/>
<line class="st0" x1="249.7" y1="472.1" x2="251.5" y2="473.4"/>
<polyline class="st0" points="246.7,467.2 246.3,466.3 245.7,464.6 "/>
<line class="st0" x1="249.4" y1="471.1" x2="249.3" y2="471.1"/>
<polyline class="st0" points="249.3,474.3 248.7,472.7 248.1,471.1 247.7,469.8 "/>
<line class="st0" x1="264.3" y1="524.9" x2="264.3" y2="525"/>
<line class="st0" x1="235.7" y1="465.9" x2="235.7" y2="465.8"/>
<line class="st0" x1="534.2" y1="775.9" x2="534.7" y2="772.1"/>
<line class="st0" x1="526.8" y1="772.7" x2="527.4" y2="774.4"/>
<line class="st0" x1="528.9" y1="774" x2="527.4" y2="774.4"/>
<line class="st0" x1="532.5" y1="774.7" x2="526.4" y2="775.3"/>
<line class="st0" x1="526.4" y1="775.3" x2="528.9" y2="774"/>
<line class="st0" x1="528.9" y1="774" x2="531.5" y2="774.2"/>
<line class="st0" x1="528.9" y1="774" x2="530.5" y2="773.6"/>
<line class="st0" x1="534.5" y1="777.5" x2="534.5" y2="777.6"/>
<line class="st0" x1="534.4" y1="776.4" x2="534.5" y2="777.5"/>
<line class="st0" x1="534.4" y1="776.5" x2="534.5" y2="777.6"/>
<line class="st0" x1="534.4" y1="776.5" x2="534.4" y2="776.4"/>
<polyline class="st0" points="528,776.4 529.9,776 531.7,775.6 533.6,775.2 "/>
<polyline class="st0" points="524.3,777.2 525.3,776.3 526.4,775.3 527.4,774.4 "/>
<polyline class="st0" points="524.8,779.9 534.4,777.5 534.5,777.5 "/>
<line class="st0" x1="528" y1="776.4" x2="524.3" y2="777.2"/>
<line class="st0" x1="524.7" y1="780.1" x2="534.5" y2="777.6"/>
<line class="st0" x1="533.6" y1="775.2" x2="533.5" y2="775"/>
<line class="st0" x1="524.8" y1="779.9" x2="524.7" y2="780.1"/>
<polyline class="st0" points="530.5,773.6 531.5,774.2 532.5,774.7 533.6,775.2 "/>
<text transform="matrix(1 0 0 1 7.0941 694.1426)" class="st2 st3">MOVEABLE BENCHES</text>
<text transform="matrix(1 0 0 1 8.0669 752.6831)" class="st2 st3">BUILT-IN BENCHES</text>
<text transform="matrix(1 0 0 1 844.8882 436.269)" class="st2 st3">BUILT-IN DESK WITH LAPTOP</text>
<image style="overflow:visible;" width="1136" height="1580" xlink:href="/img/pavilion.png"  transform="matrix(0.48 0 0 0.48 235.2 22.14)">
</image>
<polyline class="st1" points="599.9,647.8 794.4,594.8 839.1,594.8 "/>
<polyline class="st1" points="297.8,560.6 202.9,543.2 180.9,543.2 "/>
<polyline class="st1" points="351.8,165.9 195.6,456 154.3,456 "/>
<polyline class="st1" points="583.2,314.5 797.4,311.7 839.1,311.7 "/>
<polyline class="st1" points="272.7,485.8 202.9,505.1 160.1,505.1 "/>
<polyline class="st1" points="343.4,637.5 202.9,690.2 113.6,690.2 "/>
<polyline class="st1" points="645.3,490.9 794.4,367.6 839.1,367.6 "/>
<polyline class="st1" points="533.7,544.6 794.4,511.2 839.1,511.2 "/>
<polyline class="st1" points="612.9,689.3 794.4,667 839.1,667 "/>
<polyline class="st1" points="532.6,754.5 793.3,726.8 838,726.8 "/>
<polyline class="st1" points="607.4,212.2 790.2,256.6 839.1,256.6 "/>
<polyline class="st1" points="713.4,157.4 790.2,201.7 839.1,201.7 "/>
<polyline class="st1" points="493.4,615 202.9,748.8 113.6,748.8 "/>
<polyline class="st1" points="398.8,569.9 202.9,642.1 169.6,642.1 "/>
<polyline class="st1" points="658.2,497.1 794.4,432.5 839.1,432.5 "/>
</svg>
