<?xml version="1.0" encoding="utf-8"?>
<!-- Generator: Adobe Illustrator 27.3.1, SVG Export Plug-In . SVG Version: 6.00 Build 0)  -->
<svg version="1.1" id="Layer_1" xmlns="http://www.w3.org/2000/svg" xmlns:xlink="http://www.w3.org/1999/xlink" x="0px" y="0px"
	 width="1017.7px" height="800.7px" viewBox="0 0 1017.7 800.7" style="enable-background:new 0 0 1017.7 800.7;"
	 xml:space="preserve">
<style type="text/css">
	.st0{fill:none;stroke:#000000;stroke-width:0.196;stroke-linecap:round;stroke-linejoin:round;}
	.st1{fill:none;stroke:#EF3E23;stroke-width:0.49;stroke-linecap:round;stroke-linejoin:round;}
	.st2{font-family:'AAHA-WEB';}
	.st3{font-size:11.76px;}
	.st4{letter-spacing:24;}
</style>
<image style="overflow:visible;" width="1136" height="1580" xlink:href="/img/pavilion.png"  transform="matrix(0.48 0 0 0.48 235.2 22.14)">
</image>
<line class="st0" x1="255.3" y1="474.6" x2="253.1" y2="473"/>
<line class="st0" x1="247" y1="412.3" x2="246.6" y2="411.9"/>
<line class="st0" x1="246.6" y1="410.7" x2="246.6" y2="411.9"/>
<line class="st0" x1="247" y1="412.3" x2="247" y2="414.3"/>
<line class="st0" x1="247" y1="414.3" x2="249" y2="414.2"/>
<line class="st0" x1="249" y1="414.2" x2="249" y2="412.3"/>
<line class="st0" x1="253.3" y1="472.6" x2="255" y2="473.8"/>
<line class="st0" x1="250" y1="469.2" x2="252.5" y2="471"/>
<line class="st0" x1="252.5" y1="472.1" x2="249" y2="469.6"/>
<line class="st0" x1="252.4" y1="472.4" x2="248.9" y2="469.9"/>
<line class="st0" x1="249" y1="469.6" x2="249" y2="469.3"/>
<line class="st0" x1="249" y1="469.6" x2="248.9" y2="469.9"/>
<line class="st0" x1="252.5" y1="472.1" x2="252.4" y2="472.4"/>
<line class="st0" x1="252.5" y1="471.8" x2="253.1" y2="472.2"/>
<line class="st0" x1="253.1" y1="472.2" x2="253.2" y2="472.5"/>
<line class="st0" x1="253.3" y1="472.6" x2="253.1" y2="472.5"/>
<line class="st0" x1="252.5" y1="472.1" x2="255.1" y2="474"/>
<line class="st0" x1="254.2" y1="471.7" x2="252.5" y2="471.8"/>
<line class="st0" x1="247.3" y1="469.5" x2="247.4" y2="469.6"/>
<line class="st0" x1="253.2" y1="472.5" x2="254.5" y2="472.4"/>
<line class="st0" x1="248.9" y1="469.9" x2="247.4" y2="469.6"/>
<line class="st0" x1="251.3" y1="472.4" x2="247.4" y2="469.6"/>
<line class="st0" x1="251.3" y1="472.4" x2="252.4" y2="472.4"/>
<line class="st0" x1="252.4" y1="473.2" x2="251.3" y2="472.4"/>
<line class="st0" x1="252.6" y1="473.1" x2="252.6" y2="473.1"/>
<line class="st0" x1="245.3" y1="468.1" x2="245.3" y2="467.3"/>
<line class="st0" x1="254.5" y1="472.6" x2="253.3" y2="472.6"/>
<line class="st0" x1="255.3" y1="474.5" x2="252.4" y2="472.4"/>
<line class="st0" x1="254.4" y1="472.2" x2="253.1" y2="472.2"/>
<line class="st0" x1="252.5" y1="472.1" x2="252.5" y2="471"/>
<line class="st0" x1="247.4" y1="469.5" x2="245.6" y2="468.7"/>

<polyline class="st1" points="599.9,647.8 794.4,594.8 839.1,594.8 "/>
<polyline class="st1" points="297.8,560.6 202.9,543.2 180.9,543.2 "/>
<polyline class="st1" points="351.8,165.9 195.6,456 154.3,456 "/>
<polyline class="st1" points="583.2,314.5 797.4,311.7 839.1,311.7 "/>
<polyline class="st1" points="272.7,485.8 202.9,505.1 160.1,505.1 "/>
<polyline class="st1" points="343.4,637.5 202.9,690.2 113.6,690.2 "/>
<polyline class="st1" points="645.3,490.9 794.4,367.6 839.1,367.6 "/>
<polyline class="st1" points="533.7,544.6 794.4,511.2 839.1,511.2 "/>
<polyline class="st1" points="612.9,689.3 794.4,667 839.1,667 "/>
<polyline class="st1" points="532.6,754.5 793.3,722.8 838,722.8 "/>
<polyline class="st1" points="607.4,212.2 790.2,256.6 839.1,256.6 "/>
<polyline class="st1" points="713.4,157.4 790.2,201.7 839.1,201.7 "/>
<polyline class="st1" points="493.4,615 202.9,748.8 113.6,748.8 "/>
<polyline class="st1" points="398.8,569.9 202.9,642.1 169.6,642.1 "/>
<polyline class="st1" points="658.2,497.1 794.4,432.5 839.1,432.5 "/>


<text transform="matrix(1 0 0 1 116.6838 547.4995)" class="st2 st3 st4"> </text>
<text transform="matrix(1 0 0 1 144.7839 547.4995)" class="st2 st3"> </text>
<text transform="matrix(1 0 0 1 150.1198 541.498)" class="st2 st3">FILM</text>

<line class="st0" x1="248.8" y1="466.9" x2="246.6" y2="465.3"/>
<line class="st0" x1="236.4" y1="474" x2="242.2" y2="471.4"/>
<polyline class="st0" points="236.7,470 238.2,469.9 239.7,469.9 241.1,469.9 242.6,469.9 244.1,469.9 245.6,469.8 "/>
<line class="st0" x1="236.6" y1="464.6" x2="244.3" y2="465.1"/>
<line class="st0" x1="236.6" y1="465.9" x2="235.7" y2="465.9"/>
<line class="st0" x1="252.2" y1="473.2" x2="249.3" y2="471.1"/>
<line class="st0" x1="249.3" y1="471.1" x2="249.7" y2="472.1"/>
<polyline class="st0" points="236.7,470 236.7,468.6 236.7,467.2 "/>
<line class="st0" x1="245.6" y1="474.8" x2="246.5" y2="474.8"/>
<line class="st0" x1="249.1" y1="466.6" x2="249.2" y2="466.9"/>
<line class="st0" x1="249.1" y1="466.6" x2="249.5" y2="466.9"/>
<line class="st0" x1="243.4" y1="474.7" x2="243.5" y2="475.2"/>
<line class="st0" x1="246.6" y1="465.3" x2="246.6" y2="465.3"/>
<line class="st0" x1="249.5" y1="473.2" x2="249.7" y2="472.1"/>
<line class="st0" x1="249.1" y1="466.6" x2="248.6" y2="466.8"/>
<line class="st0" x1="246.5" y1="471" x2="244.7" y2="466.7"/>
<polyline class="st0" points="244.7,466.7 245.2,468.3 245.6,469.8 "/>
<line class="st0" x1="246.6" y1="465.3" x2="247.3" y2="467.1"/>
<line class="st0" x1="245.3" y1="474.2" x2="249.3" y2="474.3"/>
<line class="st0" x1="237.3" y1="474.6" x2="243.6" y2="474.7"/>
<line class="st0" x1="245.7" y1="475.1" x2="246.5" y2="474.8"/>
<line class="st0" x1="249.8" y1="473.9" x2="248.5" y2="470.5"/>
<line class="st0" x1="247.3" y1="467.1" x2="246.6" y2="465.3"/>
<line class="st0" x1="242.6" y1="469.9" x2="241.8" y2="470.3"/>
<line class="st0" x1="245.7" y1="467.3" x2="244.8" y2="465"/>
<line class="st0" x1="250.3" y1="473.8" x2="249.7" y2="472.1"/>
<line class="st0" x1="239" y1="477.5" x2="247.5" y2="485.3"/>
<line class="st0" x1="243.5" y1="475.3" x2="243.5" y2="475.2"/>
<line class="st0" x1="236.7" y1="467.2" x2="238.2" y2="465.7"/>
<line class="st0" x1="236.7" y1="465.4" x2="236.6" y2="471.3"/>
<line class="st0" x1="236.7" y1="467.2" x2="236.7" y2="465.4"/>
<line class="st0" x1="236.7" y1="467.2" x2="236.7" y2="465.8"/>
<line class="st0" x1="236.5" y1="472.7" x2="236.7" y2="465.4"/>
<line class="st0" x1="243.3" y1="470.9" x2="245.6" y2="469.8"/>
<line class="st0" x1="236.7" y1="468.6" x2="238.2" y2="469.9"/>
<line class="st0" x1="239.2" y1="468.6" x2="236.7" y2="467.2"/>
<line class="st0" x1="246.6" y1="469.1" x2="247.5" y2="472.1"/>
<line class="st0" x1="236.6" y1="465.7" x2="235.7" y2="465.8"/>
<line class="st0" x1="235.7" y1="465.9" x2="235.9" y2="475.5"/>
<line class="st0" x1="236.6" y1="464.6" x2="245.7" y2="464.6"/>
<line class="st0" x1="243.5" y1="475.2" x2="235.9" y2="475.5"/>
<line class="st0" x1="235.9" y1="475.5" x2="235.9" y2="475.6"/>
<line class="st0" x1="253.2" y1="473.3" x2="252.9" y2="473.1"/>
<line class="st0" x1="249.5" y1="474" x2="252.9" y2="473.1"/>
<line class="st0" x1="246.5" y1="474.8" x2="248.5" y2="474.3"/>
<polyline class="st0" points="243.5,475.3 243.5,475.3 235.9,475.6 "/>
<line class="st0" x1="237.3" y1="474.6" x2="236.4" y2="474"/>
<line class="st0" x1="246.6" y1="465.3" x2="245.7" y2="464.6"/>
<line class="st0" x1="244.7" y1="466.7" x2="244.3" y2="465.1"/>
<line class="st0" x1="244.8" y1="465" x2="244.3" y2="465.1"/>
<line class="st0" x1="247.5" y1="472.1" x2="246.3" y2="469"/>
<line class="st0" x1="246.5" y1="471" x2="245.6" y2="469.8"/>
<line class="st0" x1="246.5" y1="471" x2="247.5" y2="472.1"/>
<line class="st0" x1="245.3" y1="464.8" x2="244.8" y2="465"/>
<line class="st0" x1="245.3" y1="464.8" x2="246" y2="467.2"/>
<line class="st0" x1="245.3" y1="464.8" x2="245.7" y2="464.6"/>
<line class="st0" x1="248.4" y1="473.2" x2="247.5" y2="472.1"/>
<line class="st0" x1="248.4" y1="473.2" x2="249.3" y2="474.3"/>
<polyline class="st0" points="244.3,465.1 242.8,465.3 241.3,465.4 239.7,465.5 238.2,465.7 236.7,465.8 "/>
<polyline class="st0" points="236.6,464.6 236.6,465 236.7,465.4 236.7,465.8 "/>
<line class="st0" x1="240.8" y1="467.7" x2="238.2" y2="465.7"/>
<line class="st0" x1="240.8" y1="467.7" x2="245.2" y2="468.3"/>
<line class="st0" x1="242.8" y1="465.3" x2="240.8" y2="467.7"/>
<line class="st0" x1="244.7" y1="466.7" x2="240.8" y2="467.7"/>
<line class="st0" x1="244.7" y1="466.7" x2="242.8" y2="465.3"/>
<line class="st0" x1="239.2" y1="468.6" x2="240.8" y2="467.7"/>
<line class="st0" x1="241.7" y1="468.8" x2="244.1" y2="469.9"/>
<line class="st0" x1="241.7" y1="468.8" x2="245.2" y2="468.3"/>
<line class="st0" x1="241.1" y1="469.9" x2="239.2" y2="468.6"/>
<line class="st0" x1="236.6" y1="471.3" x2="236.7" y2="470"/>
<line class="st0" x1="236.7" y1="467.2" x2="236.6" y2="471.3"/>
<line class="st0" x1="236.5" y1="472.7" x2="236.6" y2="471.3"/>
<line class="st0" x1="236.5" y1="472.7" x2="236.4" y2="474"/>
<line class="st0" x1="236.4" y1="474" x2="243.3" y2="474.1"/>
<polyline class="st0" points="236.4,474 236.5,472.1 236.5,470.2 236.5,468.4 236.6,466.5 236.6,464.6 "/>
<line class="st0" x1="249.7" y1="472.1" x2="251.5" y2="473.4"/>
<polyline class="st0" points="246.7,467.2 246.3,466.3 245.7,464.6 "/>
<line class="st0" x1="249.4" y1="471.1" x2="249.3" y2="471.1"/>
<polyline class="st0" points="249.3,474.3 248.7,472.7 248.1,471.1 247.7,469.8 "/>
<line class="st0" x1="235.7" y1="465.9" x2="235.7" y2="465.8"/>
<text transform="matrix(1 0 0 1 20.4956 692.4634)"><tspan x="0" y="0" class="st2 st3">BANCS MOBILES</tspan></text>
<text transform="matrix(1 0 0 1 31.4954 753.311)"><tspan x="0" y="0" class="st2 st3">BANCS FIXES</tspan></text>
<text transform="matrix(1 0 0 1 7.4955 643.0581)"><tspan x="0" y="0" class="st2 st3">CALENDRIERDE LA CAMPAGNE</tspan></text>
<text transform="matrix(1 0 0 1 7.4952 460.5181)"><tspan x="0" y="0" class="st2 st3">ENTREPÔT SOUS L'ES CALIER</tspan></text>
<text transform="matrix(1 0 0 1.005 848.9053 205.7886)"><tspan x="0" y="0" class="st2 st3">BANDEROLES POUR FUGITIFS</tspan></text>
<text transform="matrix(1 0 0 1 848.905 315.9742)"><tspan x="0" y="0" class="st2 st3">STOP THE SWEEPS PALISSADE</tspan></text>
<text transform="matrix(1 0 0 1 7.5007 509.9199)"><tspan x="0" y="0" class="st2 st3">ENTREPÔT DE LA CAMPAGNE</tspan></text>
<text transform="matrix(1 0 0 1 47.5008 552.7666)"><tspan x="0" y="0" class="st2 st3">ATLAS DE L'ALIÉNATION</tspan></text>

<text transform="matrix(1 0 0 1 57.2729 564.209)"><tspan x="0" y="0" class="st2 st3">DU LOGEMENT</tspan></text>
<text transform="matrix(1 0 0 1 858.9053 254.9136)"><tspan x="0" y="0" class="st2 st3">BUREAU DE TRAVAIL</tspan></text>
<text transform="matrix(1 0 0 1 848.9053 265.9136)"><tspan x="0" y="0" class="st2 st3">COLLABORATIF</tspan></text>
<text transform="matrix(1 0 0 1 848.9048 371.0347)"><tspan x="0" y="0" class="st2 st3">CARTE DE LA CAMPAGNE</tspan></text>
<text transform="matrix(1 0 0 1 848.9051 426.0952)"><tspan x="0" y="0" class="st2 st3">BUREAU FIXE AVEC</tspan></text>
<text transform="matrix(1 0 0 1 848.9052 437.5367)"><tspan x="0" y="0" class="st2 st3">ORDINATEUR PORTABLE</tspan></text>
<text transform="matrix(1 0 0 1 848.905 504.0406)"><tspan x="0" y="0" class="st2 st3">COUR DE LA RESTITUTION DE</tspan></text>
<text transform="matrix(1 0 0 1 848.9051 515.482)"><tspan x="0" y="0" class="st2 st3">TERRES ANCESTRALES</tspan></text>
<text transform="matrix(1 0 0 1 848.905 593.4273)"><tspan x="0" y="0" class="st2 st3">MURS D’ACCROCHAGE AVEC</tspan></text>
<text transform="matrix(1 0 0 1 848.9051 604.8707)"><tspan x="0" y="0" class="st2 st3">LES NEUF PROJETS</tspan></text>
<text transform="matrix(1 0 0 1 848.905 671.3726)"><tspan x="0" y="0" class="st2 st3">DEUX TABLES À</tspan></text>
<text transform="matrix(1 0 0 1 848.9053 726.4332)"><tspan x="0" y="0" class="st2 st3">DIX BANNIÈRES DES DEMANDES</tspan></text>
</svg>
