<?xml version="1.0" encoding="utf-8"?>
<!-- Generator: Adobe Illustrator 27.3.1, SVG Export Plug-In . SVG Version: 6.00 Build 0)  -->
<svg version="1.1" id="Layer_1" xmlns="http://www.w3.org/2000/svg" xmlns:xlink="http://www.w3.org/1999/xlink" x="0px" y="0px"
	 width="1017.7px" height="800.7px" viewBox="0 0 1017.7 800.7" style="enable-background:new 0 0 1017.7 800.7;"
	 xml:space="preserve">
<style type="text/css">
	.st0{fill:none;stroke:#000000;stroke-width:0.196;stroke-linecap:round;stroke-linejoin:round;}
	.st1{fill:none;stroke:#EF3E23;stroke-width:0.49;stroke-linecap:round;stroke-linejoin:round;}
	.st2{font-family:'AAHA-WEB';}
	.st3{font-size:11.76px;}
	.st4{letter-spacing:24;}
</style>
<image style="overflow:visible;" width="1136" height="1580" xlink:href="/img/pavilion.png"  transform="matrix(0.48 0 0 0.48 235.2 22.14)">
</image>
<line class="st0" x1="255.3" y1="474.6" x2="253.1" y2="473"/>
<line class="st0" x1="247" y1="412.3" x2="246.6" y2="411.9"/>
<line class="st0" x1="246.6" y1="410.7" x2="246.6" y2="411.9"/>
<line class="st0" x1="247" y1="412.3" x2="247" y2="414.3"/>
<line class="st0" x1="247" y1="414.3" x2="249" y2="414.2"/>
<line class="st0" x1="249" y1="414.2" x2="249" y2="412.3"/>
<line class="st0" x1="253.3" y1="472.6" x2="255" y2="473.8"/>
<line class="st0" x1="250" y1="469.2" x2="252.5" y2="471"/>
<line class="st0" x1="252.5" y1="472.1" x2="249" y2="469.6"/>
<line class="st0" x1="252.4" y1="472.4" x2="248.9" y2="469.9"/>
<line class="st0" x1="249" y1="469.6" x2="249" y2="469.3"/>
<line class="st0" x1="249" y1="469.6" x2="248.9" y2="469.9"/>
<line class="st0" x1="252.5" y1="472.1" x2="252.4" y2="472.4"/>
<line class="st0" x1="252.5" y1="471.8" x2="253.1" y2="472.2"/>
<line class="st0" x1="253.1" y1="472.2" x2="253.2" y2="472.5"/>
<line class="st0" x1="253.3" y1="472.6" x2="253.1" y2="472.5"/>
<line class="st0" x1="252.5" y1="472.1" x2="255.1" y2="474"/>
<line class="st0" x1="254.2" y1="471.7" x2="252.5" y2="471.8"/>
<line class="st0" x1="247.3" y1="469.5" x2="247.4" y2="469.6"/>
<line class="st0" x1="253.2" y1="472.5" x2="254.5" y2="472.4"/>
<line class="st0" x1="248.9" y1="469.9" x2="247.4" y2="469.6"/>
<line class="st0" x1="251.3" y1="472.4" x2="247.4" y2="469.6"/>
<line class="st0" x1="251.3" y1="472.4" x2="252.4" y2="472.4"/>
<line class="st0" x1="252.4" y1="473.2" x2="251.3" y2="472.4"/>
<line class="st0" x1="252.6" y1="473.1" x2="252.6" y2="473.1"/>
<line class="st0" x1="245.3" y1="468.1" x2="245.3" y2="467.3"/>
<line class="st0" x1="254.5" y1="472.6" x2="253.3" y2="472.6"/>
<line class="st0" x1="255.3" y1="474.5" x2="252.4" y2="472.4"/>
<line class="st0" x1="254.4" y1="472.2" x2="253.1" y2="472.2"/>
<line class="st0" x1="252.5" y1="472.1" x2="252.5" y2="471"/>
<line class="st0" x1="247.4" y1="469.5" x2="245.6" y2="468.7"/>
<polyline class="st1" points="599.9,647.8 794.4,594.8 839.1,594.8 "/>
<polyline class="st1" points="297.8,560.6 202.9,543.2 180.9,543.2 "/>
<polyline class="st1" points="351.8,165.9 195.6,456 154.3,456 "/>
<polyline class="st1" points="583.2,314.5 797.4,311.7 839.1,311.7 "/>
<polyline class="st1" points="272.7,485.8 202.9,505.1 160.1,505.1 "/>
<polyline class="st1" points="343.4,637.5 202.9,690.2 113.6,690.2 "/>
<polyline class="st1" points="645.3,490.9 794.4,367.6 839.1,367.6 "/>
<polyline class="st1" points="533.7,544.6 794.4,511.2 839.1,511.2 "/>
<polyline class="st1" points="612.9,689.3 794.4,667 839.1,667 "/>
<polyline class="st1" points="532.6,754.5 793.3,727.8 838,727.8 "/>
<polyline class="st1" points="607.4,212.2 790.2,256.6 839.1,256.6 "/>
<polyline class="st1" points="713.4,157.4 790.2,201.7 839.1,201.7 "/>
<polyline class="st1" points="493.4,615 202.9,748.8 113.6,748.8 "/>
<polyline class="st1" points="398.8,569.9 202.9,642.1 169.6,642.1 "/>
<text transform="matrix(1 0 0 1 116.6838 547.4995)" class="st2 st3 st4"> </text>
<text transform="matrix(1 0 0 1 144.7839 547.4995)" class="st2 st3"> </text>
<text transform="matrix(1 0 0 1 150.1198 541.498)" class="st2 st3">FILM</text>
<polyline class="st1" points="658.2,497.1 794.4,432.5 839.1,432.5 "/>
<line class="st0" x1="248.8" y1="466.9" x2="246.6" y2="465.3"/>
<line class="st0" x1="236.4" y1="474" x2="242.2" y2="471.4"/>
<polyline class="st0" points="236.7,470 238.2,469.9 239.7,469.9 241.1,469.9 242.6,469.9 244.1,469.9 245.6,469.8 "/>
<line class="st0" x1="236.6" y1="464.6" x2="244.3" y2="465.1"/>
<line class="st0" x1="236.6" y1="465.9" x2="235.7" y2="465.9"/>
<line class="st0" x1="252.2" y1="473.2" x2="249.3" y2="471.1"/>
<line class="st0" x1="249.3" y1="471.1" x2="249.7" y2="472.1"/>
<polyline class="st0" points="236.7,470 236.7,468.6 236.7,467.2 "/>
<line class="st0" x1="245.6" y1="474.8" x2="246.5" y2="474.8"/>
<line class="st0" x1="249.1" y1="466.6" x2="249.2" y2="466.9"/>
<line class="st0" x1="249.1" y1="466.6" x2="249.5" y2="466.9"/>
<line class="st0" x1="243.4" y1="474.7" x2="243.5" y2="475.2"/>
<line class="st0" x1="246.6" y1="465.3" x2="246.6" y2="465.3"/>
<line class="st0" x1="249.5" y1="473.2" x2="249.7" y2="472.1"/>
<line class="st0" x1="249.1" y1="466.6" x2="248.6" y2="466.8"/>
<line class="st0" x1="246.5" y1="471" x2="244.7" y2="466.7"/>
<polyline class="st0" points="244.7,466.7 245.2,468.3 245.6,469.8 "/>
<line class="st0" x1="246.6" y1="465.3" x2="247.3" y2="467.1"/>
<line class="st0" x1="245.3" y1="474.2" x2="249.3" y2="474.3"/>
<line class="st0" x1="237.3" y1="474.6" x2="243.6" y2="474.7"/>
<line class="st0" x1="245.7" y1="475.1" x2="246.5" y2="474.8"/>
<line class="st0" x1="249.8" y1="473.9" x2="248.5" y2="470.5"/>
<line class="st0" x1="247.3" y1="467.1" x2="246.6" y2="465.3"/>
<line class="st0" x1="242.6" y1="469.9" x2="241.8" y2="470.3"/>
<line class="st0" x1="245.7" y1="467.3" x2="244.8" y2="465"/>
<line class="st0" x1="250.3" y1="473.8" x2="249.7" y2="472.1"/>
<line class="st0" x1="239" y1="477.5" x2="247.5" y2="485.3"/>
<line class="st0" x1="243.5" y1="475.3" x2="243.5" y2="475.2"/>
<line class="st0" x1="236.7" y1="467.2" x2="238.2" y2="465.7"/>
<line class="st0" x1="236.7" y1="465.4" x2="236.6" y2="471.3"/>
<line class="st0" x1="236.7" y1="467.2" x2="236.7" y2="465.4"/>
<line class="st0" x1="236.7" y1="467.2" x2="236.7" y2="465.8"/>
<line class="st0" x1="236.5" y1="472.7" x2="236.7" y2="465.4"/>
<line class="st0" x1="243.3" y1="470.9" x2="245.6" y2="469.8"/>
<line class="st0" x1="236.7" y1="468.6" x2="238.2" y2="469.9"/>
<line class="st0" x1="239.2" y1="468.6" x2="236.7" y2="467.2"/>
<line class="st0" x1="246.6" y1="469.1" x2="247.5" y2="472.1"/>
<line class="st0" x1="236.6" y1="465.7" x2="235.7" y2="465.8"/>
<line class="st0" x1="235.7" y1="465.9" x2="235.9" y2="475.5"/>
<line class="st0" x1="236.6" y1="464.6" x2="245.7" y2="464.6"/>
<line class="st0" x1="243.5" y1="475.2" x2="235.9" y2="475.5"/>
<line class="st0" x1="235.9" y1="475.5" x2="235.9" y2="475.6"/>
<line class="st0" x1="253.2" y1="473.3" x2="252.9" y2="473.1"/>
<line class="st0" x1="249.5" y1="474" x2="252.9" y2="473.1"/>
<line class="st0" x1="246.5" y1="474.8" x2="248.5" y2="474.3"/>
<polyline class="st0" points="243.5,475.3 243.5,475.3 235.9,475.6 "/>
<line class="st0" x1="237.3" y1="474.6" x2="236.4" y2="474"/>
<line class="st0" x1="246.6" y1="465.3" x2="245.7" y2="464.6"/>
<line class="st0" x1="244.7" y1="466.7" x2="244.3" y2="465.1"/>
<line class="st0" x1="244.8" y1="465" x2="244.3" y2="465.1"/>
<line class="st0" x1="247.5" y1="472.1" x2="246.3" y2="469"/>
<line class="st0" x1="246.5" y1="471" x2="245.6" y2="469.8"/>
<line class="st0" x1="246.5" y1="471" x2="247.5" y2="472.1"/>
<line class="st0" x1="245.3" y1="464.8" x2="244.8" y2="465"/>
<line class="st0" x1="245.3" y1="464.8" x2="246" y2="467.2"/>
<line class="st0" x1="245.3" y1="464.8" x2="245.7" y2="464.6"/>
<line class="st0" x1="248.4" y1="473.2" x2="247.5" y2="472.1"/>
<line class="st0" x1="248.4" y1="473.2" x2="249.3" y2="474.3"/>
<polyline class="st0" points="244.3,465.1 242.8,465.3 241.3,465.4 239.7,465.5 238.2,465.7 236.7,465.8 "/>
<polyline class="st0" points="236.6,464.6 236.6,465 236.7,465.4 236.7,465.8 "/>
<line class="st0" x1="240.8" y1="467.7" x2="238.2" y2="465.7"/>
<line class="st0" x1="240.8" y1="467.7" x2="245.2" y2="468.3"/>
<line class="st0" x1="242.8" y1="465.3" x2="240.8" y2="467.7"/>
<line class="st0" x1="244.7" y1="466.7" x2="240.8" y2="467.7"/>
<line class="st0" x1="244.7" y1="466.7" x2="242.8" y2="465.3"/>
<line class="st0" x1="239.2" y1="468.6" x2="240.8" y2="467.7"/>
<line class="st0" x1="241.7" y1="468.8" x2="244.1" y2="469.9"/>
<line class="st0" x1="241.7" y1="468.8" x2="245.2" y2="468.3"/>
<line class="st0" x1="241.1" y1="469.9" x2="239.2" y2="468.6"/>
<line class="st0" x1="236.6" y1="471.3" x2="236.7" y2="470"/>
<line class="st0" x1="236.7" y1="467.2" x2="236.6" y2="471.3"/>
<line class="st0" x1="236.5" y1="472.7" x2="236.6" y2="471.3"/>
<line class="st0" x1="236.5" y1="472.7" x2="236.4" y2="474"/>
<line class="st0" x1="236.4" y1="474" x2="243.3" y2="474.1"/>
<polyline class="st0" points="236.4,474 236.5,472.1 236.5,470.2 236.5,468.4 236.6,466.5 236.6,464.6 "/>
<line class="st0" x1="249.7" y1="472.1" x2="251.5" y2="473.4"/>
<polyline class="st0" points="246.7,467.2 246.3,466.3 245.7,464.6 "/>
<line class="st0" x1="249.4" y1="471.1" x2="249.3" y2="471.1"/>
<polyline class="st0" points="249.3,474.3 248.7,472.7 248.1,471.1 247.7,469.8 "/>
<line class="st0" x1="235.7" y1="465.9" x2="235.7" y2="465.8"/>
<text transform="matrix(1 0 0 1 20.4956 692.4634)"><tspan x="0" y="0" class="st2 st3">BAN</tspan><tspan x="20.9" y="0" class="st2 st3">C</tspan><tspan x="27.6" y="0" class="st2 st3">S</tspan><tspan x="33.7" y="0" class="st2 st3"> </tspan><tspan x="37" y="0" class="st2 st3">MOBILE</tspan><tspan x="77.4" y="0" class="st2 st3">S</tspan></text>
<text transform="matrix(1 0 0 1 31.4954 753.311)"><tspan x="0" y="0" class="st2 st3">BAN</tspan><tspan x="20.9" y="0" class="st2 st3">C</tspan><tspan x="27.6" y="0" class="st2 st3">S</tspan><tspan x="33.7" y="0" class="st2 st3"> </tspan><tspan x="37" y="0" class="st2 st3">FIXE</tspan><tspan x="63.6" y="0" class="st2 st3">S</tspan></text>
<text transform="matrix(1 0 0 1 7.4955 643.0581)"><tspan x="0" y="0" class="st2 st3">C</tspan><tspan x="6.7" y="0" class="st2 st3">AL</tspan><tspan x="20.3" y="0" class="st2 st3">E</tspan><tspan x="26.4" y="0" class="st2 st3">ND</tspan><tspan x="40.5" y="0" class="st2 st3">R</tspan><tspan x="46.6" y="0" class="st2 st3">IER</tspan><tspan x="65.4" y="0" class="st2 st3"> </tspan><tspan x="68.7" y="0" class="st2 st3">D</tspan><tspan x="75.7" y="0" class="st2 st3">E </tspan><tspan x="85" y="0" class="st2 st3">LA</tspan><tspan x="98.6" y="0" class="st2 st3"> C</tspan><tspan x="108.6" y="0" class="st2 st3">AM</tspan><tspan x="123.9" y="0" class="st2 st3">P</tspan><tspan x="129" y="0" class="st2 st3">A</tspan><tspan x="136.4" y="0" class="st2 st3">G</tspan><tspan x="143.5" y="0" class="st2 st3">N</tspan><tspan x="150.5" y="0" class="st2 st3">E</tspan></text>
<text transform="matrix(1 0 0 1 7.4952 460.5181)"><tspan x="0" y="0" class="st2 st3">EN</tspan><tspan x="13.2" y="0" class="st2 st3">T</tspan><tspan x="20.6" y="0" class="st2 st3">R</tspan><tspan x="26.7" y="0" class="st2 st3">EPÔT SOUS</tspan><tspan x="82.8" y="0" class="st2 st3"> </tspan><tspan x="86" y="0" class="st2 st3">L&apos;ES</tspan><tspan x="106.2" y="0" class="st2 st3">C</tspan><tspan x="112.9" y="0" class="st2 st3">ALIE</tspan><tspan x="139.2" y="0" class="st2 st3">R</tspan></text>
<text transform="matrix(1 0 0 1.005 848.9053 205.7886)"><tspan x="0" y="0" class="st2 st3">BAN</tspan><tspan x="20.9" y="0" class="st2 st3">DER</tspan><tspan x="40" y="0" class="st2 st3">OL</tspan><tspan x="53.3" y="0" class="st2 st3">ES</tspan><tspan x="65.6" y="0" class="st2 st3"> POUR</tspan><tspan x="95.2" y="0" class="st2 st3"> </tspan><tspan x="98.4" y="0" class="st2 st3">FUGITIF</tspan><tspan x="144.8" y="0" class="st2 st3">S</tspan></text>
<text transform="matrix(1 0 0 1 848.905 315.9742)"><tspan x="0" y="0" class="st2 st3">S</tspan><tspan x="5.9" y="0" class="st2 st3">TOP</tspan><tspan x="26" y="0" class="st2 st3"> </tspan><tspan x="29.2" y="0" class="st2 st3">TH</tspan><tspan x="43.2" y="0" class="st2 st3">E</tspan><tspan x="49.4" y="0" class="st2 st3"> </tspan><tspan x="52.6" y="0" class="st2 st3">S</tspan><tspan x="58.8" y="0" class="st2 st3">W</tspan><tspan x="67.9" y="0" class="st2 st3">E</tspan><tspan x="74.1" y="0" class="st2 st3">EP</tspan><tspan x="86.1" y="0" class="st2 st3">S</tspan><tspan x="92.2" y="0" class="st2 st3"> </tspan><tspan x="95.5" y="0" class="st2 st3">P</tspan><tspan x="100.5" y="0" class="st2 st3">ALI</tspan><tspan x="120.7" y="0" class="st2 st3">S</tspan><tspan x="126.8" y="0" class="st2 st3">S</tspan><tspan x="133" y="0" class="st2 st3">A</tspan><tspan x="140.3" y="0" class="st2 st3">D</tspan><tspan x="147.3" y="0" class="st2 st3">E</tspan></text>
<text transform="matrix(1 0 0 1 7.5007 509.9199)"><tspan x="0" y="0" class="st2 st3">EN</tspan><tspan x="13.2" y="0" class="st2 st3">T</tspan><tspan x="20.6" y="0" class="st2 st3">R</tspan><tspan x="26.7" y="0" class="st2 st3">EPÔT D</tspan><tspan x="63.1" y="0" class="st2 st3">E </tspan><tspan x="72.5" y="0" class="st2 st3">LA</tspan><tspan x="86" y="0" class="st2 st3"> C</tspan><tspan x="96" y="0" class="st2 st3">AM</tspan><tspan x="111.4" y="0" class="st2 st3">P</tspan><tspan x="116.4" y="0" class="st2 st3">A</tspan><tspan x="123.8" y="0" class="st2 st3">G</tspan><tspan x="130.9" y="0" class="st2 st3">N</tspan><tspan x="138" y="0" class="st2 st3">E</tspan></text>
<text transform="matrix(1 0 0 1 47.5008 552.7666)"><tspan x="0" y="0" class="st2 st3">A</tspan><tspan x="6.2" y="0" class="st2 st3">TLAS</tspan><tspan x="33" y="0" class="st2 st3"> </tspan><tspan x="36.2" y="0" class="st2 st3">DE</tspan><tspan x="49.3" y="0" class="st2 st3"> </tspan><tspan x="52.6" y="0" class="st2 st3">L&apos;ALIÉN</tspan><tspan x="93.8" y="0" class="st2 st3">A</tspan><tspan x="100.1" y="0" class="st2 st3">TIO</tspan><tspan x="120.9" y="0" class="st2 st3">N</tspan></text>
<text transform="matrix(1 0 0 1 47.5003 564.209)"><tspan x="0" y="0" class="st2 st3"> </tspan><tspan x="3.3" y="0" class="st2 st3"> </tspan><tspan x="6.5" y="0" class="st2 st3"> </tspan></text>
<text transform="matrix(1 0 0 1 57.2729 564.209)"><tspan x="0" y="0" class="st2 st3">DU</tspan><tspan x="14.2" y="0" class="st2 st3"> </tspan><tspan x="17.4" y="0" class="st2 st3">LO</tspan><tspan x="30.8" y="0" class="st2 st3">G</tspan><tspan x="37.9" y="0" class="st2 st3">EMEN</tspan><tspan x="65.2" y="0" class="st2 st3">T</tspan></text>
<text transform="matrix(1 0 0 1 848.9053 260.9136)"><tspan x="0" y="0" class="st2 st3">BU</tspan><tspan x="13.6" y="0" class="st2 st3">RE</tspan><tspan x="25.8" y="0" class="st2 st3">AU</tspan><tspan x="40.4" y="0" class="st2 st3"> </tspan><tspan x="43.6" y="0" class="st2 st3">D</tspan><tspan x="50.6" y="0" class="st2 st3">E </tspan><tspan x="60" y="0" class="st2 st3">T</tspan><tspan x="67.4" y="0" class="st2 st3">RA</tspan><tspan x="80.8" y="0" class="st2 st3">VAIL </tspan><tspan x="112.2" y="0" class="st2 st3">C</tspan><tspan x="118.9" y="0" class="st2 st3">OLLABO</tspan><tspan x="159.3" y="0" class="st2 st3">R</tspan><tspan x="165.4" y="0" class="st2 st3">A</tspan><tspan x="171.6" y="0" class="st2 st3">TI</tspan><tspan x="185.3" y="0" class="st2 st3">F</tspan></text>
<text transform="matrix(1 0 0 1 848.9048 371.0347)"><tspan x="0" y="0" class="st2 st3">C</tspan><tspan x="6.7" y="0" class="st2 st3">A</tspan><tspan x="14.3" y="0" class="st2 st3">R</tspan><tspan x="20.4" y="0" class="st2 st3">T</tspan><tspan x="27.7" y="0" class="st2 st3">E</tspan><tspan x="33.8" y="0" class="st2 st3"> </tspan><tspan x="37.1" y="0" class="st2 st3">DE </tspan><tspan x="53.4" y="0" class="st2 st3">LA</tspan><tspan x="67" y="0" class="st2 st3"> </tspan><tspan x="70.2" y="0" class="st2 st3">C</tspan><tspan x="77" y="0" class="st2 st3">A</tspan><tspan x="84.3" y="0" class="st2 st3">M</tspan><tspan x="92.3" y="0" class="st2 st3">P</tspan><tspan x="97.4" y="0" class="st2 st3">A</tspan><tspan x="104.8" y="0" class="st2 st3">GN</tspan><tspan x="119" y="0" class="st2 st3">E</tspan></text>
<text transform="matrix(1 0 0 1 848.9051 426.0952)"><tspan x="0" y="0" class="st2 st3">BU</tspan><tspan x="13.6" y="0" class="st2 st3">RE</tspan><tspan x="25.8" y="0" class="st2 st3">AU</tspan><tspan x="40.4" y="0" class="st2 st3"> </tspan><tspan x="43.6" y="0" class="st2 st3">FIX</tspan><tspan x="64.2" y="0" class="st2 st3">E </tspan><tspan x="73.5" y="0" class="st2 st3">A</tspan><tspan x="80.9" y="0" class="st2 st3">VE</tspan><tspan x="95" y="0" class="st2 st3">C</tspan></text>
<text transform="matrix(1 0 0 1 848.9052 437.5367)"><tspan x="0" y="0" class="st2 st3"> </tspan><tspan x="3.2" y="0" class="st2 st3"> </tspan><tspan x="6.5" y="0" class="st2 st3"> </tspan><tspan x="9.7" y="0" class="st2 st3">O</tspan><tspan x="16.9" y="0" class="st2 st3">R</tspan><tspan x="23" y="0" class="st2 st3">DIN</tspan><tspan x="43.6" y="0" class="st2 st3">A</tspan><tspan x="49.9" y="0" class="st2 st3">T</tspan><tspan x="57.2" y="0" class="st2 st3">E</tspan><tspan x="63.4" y="0" class="st2 st3">UR</tspan><tspan x="76.7" y="0" class="st2 st3"> </tspan><tspan x="79.9" y="0" class="st2 st3">PO</tspan><tspan x="92.9" y="0" class="st2 st3">R</tspan><tspan x="99" y="0" class="st2 st3">TABL</tspan><tspan x="126" y="0" class="st2 st3">E</tspan></text>
<text transform="matrix(1 0 0 1 848.905 504.0406)"><tspan x="0" y="0" class="st2 st3">COU</tspan><tspan x="21.1" y="0" class="st2 st3">R</tspan><tspan x="27.2" y="0" class="st2 st3"> </tspan><tspan x="30.4" y="0" class="st2 st3">DE </tspan><tspan x="46.8" y="0" class="st2 st3">LA</tspan><tspan x="60.3" y="0" class="st2 st3"> </tspan><tspan x="63.6" y="0" class="st2 st3">R</tspan><tspan x="69.6" y="0" class="st2 st3">E</tspan><tspan x="75.8" y="0" class="st2 st3">S</tspan><tspan x="81.7" y="0" class="st2 st3">TITUTION</tspan><tspan x="137.4" y="0" class="st2 st3"> </tspan><tspan x="140.7" y="0" class="st2 st3">D</tspan><tspan x="147.6" y="0" class="st2 st3">E</tspan></text>
<text transform="matrix(1 0 0 1 848.9051 515.482)"><tspan x="0" y="0" class="st2 st3"> </tspan><tspan x="3.2" y="0" class="st2 st3"> </tspan><tspan x="6.5" y="0" class="st2 st3"> </tspan><tspan x="9.7" y="0" class="st2 st3">T</tspan><tspan x="17.1" y="0" class="st2 st3">ER</tspan><tspan x="29.3" y="0" class="st2 st3">R</tspan><tspan x="35.4" y="0" class="st2 st3">ES </tspan><tspan x="50.8" y="0" class="st2 st3">ANC</tspan><tspan x="72.1" y="0" class="st2 st3">E</tspan><tspan x="78.2" y="0" class="st2 st3">S</tspan><tspan x="84.1" y="0" class="st2 st3">T</tspan><tspan x="91.5" y="0" class="st2 st3">R</tspan><tspan x="97.5" y="0" class="st2 st3">A</tspan><tspan x="104.9" y="0" class="st2 st3">LE</tspan><tspan x="117.2" y="0" class="st2 st3">S</tspan></text>
<text transform="matrix(1 0 0 1 848.905 593.4273)"><tspan x="0" y="0" class="st2 st3">MUR</tspan><tspan x="21.3" y="0" class="st2 st3">S D’</tspan><tspan x="40" y="0" class="st2 st3">AC</tspan><tspan x="54.1" y="0" class="st2 st3">C</tspan><tspan x="60.8" y="0" class="st2 st3">RO</tspan><tspan x="74.1" y="0" class="st2 st3">C</tspan><tspan x="80.8" y="0" class="st2 st3">HA</tspan><tspan x="95.2" y="0" class="st2 st3">GE </tspan><tspan x="111.6" y="0" class="st2 st3">A</tspan><tspan x="119" y="0" class="st2 st3">VE</tspan><tspan x="133.1" y="0" class="st2 st3">C</tspan></text>
<text transform="matrix(1 0 0 1 848.9051 604.8707)"><tspan x="0" y="0" class="st2 st3"> </tspan><tspan x="3.2" y="0" class="st2 st3"> </tspan><tspan x="6.5" y="0" class="st2 st3"> </tspan><tspan x="9.7" y="0" class="st2 st3">L</tspan><tspan x="15.9" y="0" class="st2 st3">ES</tspan><tspan x="28.2" y="0" class="st2 st3"> NEU</tspan><tspan x="51.9" y="0" class="st2 st3">F</tspan><tspan x="57.8" y="0" class="st2 st3"> PROJ</tspan><tspan x="86.9" y="0" class="st2 st3">E</tspan><tspan x="93" y="0" class="st2 st3">T</tspan><tspan x="100.1" y="0" class="st2 st3">S</tspan></text>
<text transform="matrix(1 0 0 1 848.905 671.3726)"><tspan x="0" y="0" class="st2 st3">DE</tspan><tspan x="13.1" y="0" class="st2 st3">UX TABL</tspan><tspan x="58.5" y="0" class="st2 st3">E</tspan><tspan x="64.7" y="0" class="st2 st3">S</tspan><tspan x="70.8" y="0" class="st2 st3"> </tspan><tspan x="74" y="0" class="st2 st3">À</tspan><tspan x="81.4" y="0" class="st2 st3">  </tspan><tspan x="0" y="14.1" class="st2 st3">G</tspan><tspan x="7.1" y="14.1" class="st2 st3">R</tspan><tspan x="13.2" y="14.1" class="st2 st3">A</tspan><tspan x="20.5" y="14.1" class="st2 st3">N</tspan><tspan x="27.6" y="14.1" class="st2 st3">DE</tspan><tspan x="40.7" y="14.1" class="st2 st3">S</tspan><tspan x="46.9" y="14.1" class="st2 st3"> S</tspan><tspan x="56.2" y="14.1" class="st2 st3">U</tspan><tspan x="63.4" y="14.1" class="st2 st3">R</tspan><tspan x="69.5" y="14.1" class="st2 st3">FA</tspan><tspan x="82.8" y="14.1" class="st2 st3">CE</tspan><tspan x="95.6" y="14.1" class="st2 st3">S</tspan></text>
<text transform="matrix(1 0 0 1 848.9053 726.4332)"><tspan x="0" y="0" class="st2 st3">D</tspan><tspan x="7" y="0" class="st2 st3">IX</tspan><tspan x="21.6" y="0" class="st2 st3"> </tspan><tspan x="24.8" y="0" class="st2 st3">B</tspan><tspan x="31.2" y="0" class="st2 st3">A</tspan><tspan x="38.6" y="0" class="st2 st3">NNI</tspan><tspan x="59.4" y="0" class="st2 st3">ÈRES</tspan><tspan x="83.8" y="0" class="st2 st3"> </tspan><tspan x="87.1" y="0" class="st2 st3">DES </tspan><tspan x="109.5" y="0" class="st2 st3">D</tspan><tspan x="116.5" y="0" class="st2 st3">E</tspan><tspan x="122.6" y="0" class="st2 st3">MAN</tspan><tspan x="145.1" y="0" class="st2 st3">DE</tspan><tspan x="158.2" y="0" class="st2 st3">S</tspan></text>
</svg>
